<mxfile host="app.diagrams.net" modified="2024-03-07T22:48:29.088Z" agent="Mozilla/5.0 (Windows NT 10.0; Win64; x64) AppleWebKit/537.36 (KHTML, like Gecko) Chrome/122.0.0.0 Safari/537.36" etag="JySynMjB_7b7Ax8VQbf5" version="24.0.2" type="device">
  <diagram name="PÃ¡gina-1" id="9YWhiJYsWAPWmCQ23Mdo">
    <mxGraphModel dx="1050" dy="522" grid="1" gridSize="10" guides="1" tooltips="1" connect="1" arrows="1" fold="1" page="1" pageScale="1" pageWidth="827" pageHeight="1169" math="0" shadow="0">
      <root>
        <mxCell id="0" />
        <mxCell id="1" parent="0" />
        <mxCell id="AOr8H0upZgindr5D6W4T-1" value="" style="shape=image;verticalLabelPosition=bottom;labelBackgroundColor=default;verticalAlign=top;aspect=fixed;imageAspect=0;image=data:image/png,iVBORw0KGgoAAAANSUhEUgAAAeEAAAPMCAYAAAB15wHPAACAAElEQVR4XuxdBXgVV9Per0IVd6fUkNIWaEsFWqi792+/j1KoYXH3BJJAcXd3CBrc3d1dgtOWUkMLtPPPO8mm4WaT7L25gQRmnud9knvv7jl7ds/Oe2bOnDmGoZKl+Pn5lQ0NDfosJjbKv80PraPi4qJjwsODW3n7tmzl6dlsjLevxzb/QJ+fg4L9zoWEBvzFuBoc4v9PULA/8XcUEOhDfv5e5OPrQV7eLQQens2oRcvvFQqFIkfAeogWLpxDK1cuSYchQwekO97Tq7noJm+fluTr50n+Ad4UGOQrOgz6LDQs8G8u80pwSMBF/v531mmHPb1aLPbwaNopMNi3FWvFVm3atI5hhEVGRzYLCgp64bOYz/I56lMVlXTi6+tbKbp1pEd8fEx0UJBfHHfClUygf3KH+xvk2dKjaboOq1AoFLkZTJq0dOkCWrt2RToMHzE43fE5AZA6k/g/TNyX/QK8j3l6txgUHR0eE8dEHRIR8l5MTMwdjvpY5SYXtmAbcAeI8PX16hMQ6PsTOkhWVil+hzXLIz3q0LEt9e7TnYYMGUCjRg+j8RPG0rRpk2nO3Jm0aPF8WrFiKa1dt4o2bV5P27Zvpl27t9OevTtp/4E9dChpHx0+cpCOHD1ERxnHjh+m4yeOKBQKhdtx5Mgh2rFjC21nPeSIvayT0h579GiS6CUg6fB+OnBwL+3bv5t279lBO3ZupS1bN9KGjWtp1erltHTZIpq/YA7NnDWNJk+ZQGPHjRRS7z+gD3Xr3oni4lvJAAAWtaMudQQsbibov3x8PFaGR4bGtG4d7cFS1FFvq+RhiY6O+CgyOjTGz99nBxPpP1ZWLUg2LDyIOnfpQEOHDZSOBUIFkYI8T5w8Sqd+PJGKk6eO0bFjh7mzHuTOuo/27tslZLt9x1batm0zbd68gTZuXEfrN6xlQl5Na9auotVrVtKqVctp5cplQtTLgeVLaNnyxQqFQuF2rFy1jHbu2kq7WTc5YjPrtn+PXZKsjxgrVizj85Yz2a5gvbWSreZVtG79GtrAumzTpvW0ZctGJvEtXO62NMbFfibvJDpxAnry+L+68tRxIXUcC/KeNXs6jRk7kvr26ylEDS+joy4GQN5sHJ0PCPAeEhvfKjA42Kuco15XycUSGNjovtZx0V5+/t6TA4N8rziSLh7wD+3iaMTIIWK9YoQHizS54xwXct1/YK90HJApCBRkuXDRPD5+Fk2fMZWmJE5iop5IkydPoEmTx9PESYyJCTSBMX7CuGSMH0sJgjE0LiEtRidjnEKhUOQcoJ82bVrHhsHGdFiyZEG64wWmfkrRV9BfyRgrOg26bcJEIEF0HnTfJK4HdUEnTp06Wch2/vw5tHjJQiF0GCPwCu7Zs1MMFxgxJkmDxFesXMplJFCfvj3EGLLS2QGBvsfDIkLiIiJCnnfU+Sq5RFq3jvyaLd0Z/gHef6d9gAiG6tqtE3eS8bR5y4aU0doJOnosSUZyINoVbJ3OXzCXpk9PlI6EjoWOhk4nnZE759hxo2jMmJE0eswIGjV6uGDkqGE0cuQwJvShguEjhqRi2PDBqRg6DBh0DYYMHahQKBQ5Blid69evFqvXEfPmz053vKOOStZb/+ox4F8dl6zzANGDo5J14qjRI1hHjpS6oTNB6CBxkDdIG4SdOHUSzZ49Q0h63brVtH3HFjp4aF8qOeN/eCJxDZgCTEvKCB4LCvb9OTwyOD4yMvJhRx5Quc4SGur3UGhoUCcm37NpHxSiAvEA4Y45fvyIWLgHD+0Xq3f5iiXSAWDNTpwEyzWZaNFhTIIdwcRqEik64ZCh/5Lm4CEDUjFocH/BwEH9qHefntSte2fq0LEdW9rxFBfXimJaRVFkZBiFhQVTSEggBQb5k3+AH/n6+Qh8fL3Iy9tToVAo3I4A1jXdunWmXr26p0NcXOvU47wZvn7eopP8/H3Y6sSqjgBi3UrhEaEUFR1BrVvHUJs2sdSufVuZtuvZqxv1698nVQcOGvyvXgTSErtJ3iZhg6iTSTqZoGHwgJynTpsiHkfE1OzevSNVd+/Zu0vibjp2anfNqhK2kP8JCPBZGRMT3sSRG1RyWKJiw+oFhfgn+vp5plq9mF8AGcJ9fPLkMXmAcCnDyp05c7o85Ak8GsPIDB1g1CiQbbL1alqmackVnaxN2zgKZQL18vKgb779mr744v/o/fffo9def43qvViPnn76aXriiSeoWrVqgqpVq1KVKlXo0UcfpYcffpgefPBBqly5Mj3wwANUqVIlqlixIlWoUIHKly+finLlyilyEdI+G8W/cLxPipsHjs8aOgr6CoDugg576KGH6JFHHhHdBj0HQOc99thjVKtWLXruueeoQYP69Pbbb9Enn3xMjRo1pObNm7LR4cvWbCR16txBAregW/8l6X8JGuQMIwjGEFzf8EYmJk6mBQvm0cZN6+jgwX1iJSNgbBqTdXybVqlkDAMsMMjnl6iosOCmTZve68gXKm6UmJjIV4OC/ZZ5ejX/x3wAsXHRNHvOdAkAQADVjp3baOmyxTyqmiyWLkZacCPjIaclXNOCheWKUR9I9sOPPqSXXnqRnnzySelk6HDogOiYpUuXphIlSlDRokWpYMGCdP/999O9995Ld999N9155510++2303/+8x/iy1TkQdxxxx101113KTJAvnz56Lbbbkt33xS3JtAX8M6gX9xzzz103333UYECBahw4cJUrFgxKlWqFJUtW1aIHAYJ9Gn16tWpTp1n6I0336D//u8LtmpbUqtWUdS7d49ryBnEDAMJXklYy3BlI1gWMTzr16+RQDBYyPBsDh7SX6YcTTL2D/A5Fx4eHO/l5VXAUHGfxMZG1QsM8ltski9udtduHSV6D5P7mENYs2alBE1hBAVrF6MqPEg8UJN0e/bqTuHhIdSkyVf02muvMtk+IUSL0R5IFgSLjgRiVYVz6wADKAysoEhAOHj+in+Be5I/f36BDjQVrgD9BsYK3rFChQqJQQPjBhY2LGpY0h9//BF5eiFwtg0NGNhXSBlGU7KlPJzGjB0l04dTpkykBQvn0bbtW8TwSmJShsEVHOKfah37B3ifCw0PjPHz87vHUHFdwlqFVQkJDZzs5d0ilXx79uwqAVYnmXx37d5BixYvkGCqhIQxQrwIGMCDA+kOGNiP4uJbi5X7yisvy0gMli0IFx0BykWVigIjeXPwBeCz4l+Y9wVWjg5OFe4GBsEg5+LFiwsxwzB66qmn6ONPPhJ3NqYGBw6CpZxsJcOrOZYJGRHaMLywhApLpBBsO236FFmj/K9l7P1rZGRIM0PFOfHy8rorNDSoi5+/11/myKZL1w6p5AuX87z5c2gSW71wV+ChIIAKIye4mOPbxNKXjRrSs8/WkXmMMmXKiJKF+8Sw6ASKWxuYWoASMAkY0wyKf2ESMbwF+g4pchowjNDf4NaGOxvzzm+99Sb5+npTr97dxcCCdxMWMgwvWMcI6lq9eiUdPnKIyfgwTUmcKCk3TTIOCPTZGRMfU9dQyVqio8Pf8fP3/tGMdo6Li+Gbu1zczjt3bad58+aIyxkT+HA3m1YvRkstWjanF1+sJ8SLOQkoELV0FVkBJINBmhJwxsC9KVKkiFgtjvdPochJYOAHLwwCWxEIi8CvVq2jxeCC4TVs+BCJuEZAV+LUyZIYCZYx1iQjq6GZucvLu+XfoeFBI/38vi1iqKQXtn6Lh4UHJ5jzvkgTOWPmVPH579u/R+YAki3fZPI153nbd2hLX3zxuTwcuDKgTJV4Fc4AxILpCVjESsTpYQ5SdE5YcaOBQDC4rWFo1a//kiyp6tuvdwoZD04lY1jGSBKClJxYJdOla8d/54v9vc9EREd8YKj8K61bRzfw8/f62bxJyJyCUHSMZpBGLTk/6WhJjIGwdpBvm7ax9OGHH8ikPuZ4Mb9rWDw0hcIONDo6Y8A1qNHRitwEDAYxcEaMz7PPPkstPVowb/S8hozhpp41a7pMXyIRCBKAmMFbbOz9HR4eNFoDtwwk3Ajs7eXd4ipuDG7Q0mUL5YYh/Hza9ERZYpQ855tMvu3atRHyRch7yZIldY5K4TbgxVZkDMf7pVDcaKBfwkODueM6depITod+/ZMtY8wZIycEpi8XL15ASYcPyPKmvv16pc4V+/l7J8XGRtU2bkXx9vauwAS80Jz7xe4bsH7hx8eIZeLEBEl/hlENbiiyUf33v19IhLOSr0KhUChMmGQMy7hu3boUEhokc8aYtkQGRGRFhIt685aNYuQtWDgXa4qFe/z8vS4FhQZ8Z9xKEh8f85Svn+dPKW4BySWKLFdY9yXWL98wc94XWVY8PFtQrVo1JbsL3GKGxUNQKBQKxa0NkDHc1JgzRvYupNmEB3XYsMFi1MG4Q85qJHdCakwz8xbc06FhgcOMW0HCIoPf9/f3uoiGI8cz8oQeP3FU0ksitSSyWyHaLXneN45efrmBpH/EEhLD4qYrFAqFQpEWCLaEx7RGjRr03fffiosaRh2mNjHFOWPmNNq9ZycdO35Esm6Z7umIiJC5N3W2rcBAX38fX4/LsvQovpXsw5uUdEDW/CKJN7KimNbvd999I+vDEAmnASEKhUKhcBaI7EdGxPoN6lPbH+KTrWI28hDoi018NmxcJ+7p6TMSxSubsqZ4k2+obyXjZpPgYP/OMPll/rdbJ4l8xlaCGJEgpBzuZ8z9durUnl57/VXx7SMq07C4sQqFQqFQ2AFc1DDmHn/8cSbZ5jJXjEBfuKexH/zyFUtli9tlyxeTr5+nWMW+fl7HgoODqxo3iwQHB/T38GwmBIyRCNzPW7dtlg2gkecZUWz4Hlv+1a5dWxJtqPWrUCgUCncBa96xmQRW12AfAXhdsUkE5omRh+IoG4awjIOC/VKI2OOnqKioJ4y8LkzAvU0CHsnW7omTx2jDhrWS7xnh44h+xsjk22+/lmVHSApgWNxAhUKhUCiyA8wVI6lTvXp1qX2HH8T7iuhpeGPnzJ0lq3O2btuUmn/ax9fjp/Dw8MeMvCqBgX4dPDyTXdBjxo6QCOi1a1dJ5qvRo0eISwBrtrB7BnbTQGIAw+LGXQ/8h3En415GQUYhhdMowLjdSH9vFYqbCfcYqiNcBe4bdCx0LXSu4729HjDd07Vr16LIqPCUNcVDZRkTkntgLfGOnVtTidjX1/N4UFDQw0Zek+Bgv+aeXs0lCceIkUOEgJHTEwunkc0EroAePbvSG2+8Lgutr/e6X5BFBUY9xieMpgwPRbbxLYN7a7r7rVDkdYB832a0NNL3e4XzgM6F7oUOhi6+3gN4LGVC9LS/v69Mh2JaFNOjM2dNo0OH9tO27ZtlBQ84LCDQe7uHh0dRI69Iq1aRr5tR0Ih0BgGvW7daLGD44EHAXbt1pvr168va3+s1/5uPUZXxMcOfEa7IEQQwHjTS33+FIq8CltunRvq+rnAfoDegm6Gjoasdn0FOAPniMQ3q4dEiJXJ6cAoRT5cMW5s3b0AyD4maZst4MREM+FwuSAHm5+8p64C7dOlAx48foY2b1skaYLigQcBIpl2vXj3J+Xw90uGVYbxlJD9kxwevyBl8ZyRbDo7Pwt1A/8Eg7j//uT4DOcWtiVqMMCN9P1fkDKCrobPLGOmfhbuBZUzYw7hps+TAYVjESBg1e85MWcWzctUy8vJuIUQcHh48wcjNEhDQtJivn9cREHCr1pF0+PBB2r59iwRhIRwcmy/AAsZ2g4iAzkkCvo3xKOMrQ1+eGwHc82pG+ufiDoB08+W7i1+e++je++6n++7PzyPaAnR/fmxHeO91n9pQ3Ny4g/G1kb6PK3Ie0CPQ4VWMZJ3u+GzcBSyHBRFjO9xkIh4qwVrzF8wVQ3LO3JnilkaQcVCQX6iRWyU8IngWRguBQX60a/d22rd/t+TrRBQ0grAQFt6gQX0qU6ZMjhEwHhTcGd8b6R+o4vriTSP988ke/kN33plPiPaee68l4Pz5C1L+AoWoQMFCVLBQYfktp/qY4tZCcYavkb5/K64voNOh23OKjGERV6lShXx8vZmIETU9lCZMGEdLly2WVT3ItpW8dMnzcmzb2HpGbpPAYP9YvsB/eKRAK1YuFSsYiTjGjh2VGgX91ltvyhxwTinHioaOWHMTPjPSPyNXgT6T764U69ck4PvyX0PCBQokE3ChwkWocJGi/LngdYs3UNy8KM8IMtL3b8WNAXR8JSP9c3IHkB4ZmRrDwkLEIhYinpiQml65Q8e2ZjKP00FBLUsZuUViY6Oe8/H1lEAs7OGI7CMw4zHBjYnuAQP70mf/96mkD8M6LcOi8dnB/Yz3GaFG+gemuHH4wkj/rFxFsgUMAr5fCLhgoSJUsuwDVLx0RSpWsoL8LV3+ISpavLQQcJEixahI0eJsHRckWNCO5SkUdlGREWyk79+KGwfo+g+MZN3v+Lyyi4IFC1LNmk9SfJtYWb6EdMqIacK+xPv375GIaXh8wyKCpxu5QT777LN8fv5eh0DA7Tu0kdHCqtUrhIwlE9ag/tSs2feyq8Wdd96ZrsHZAdaZPcbwMdI/JMWNx5dG+mfmCm677fY0BJyfChYuRsXKPkSFSz1ARUpXphLlH6Ui/H+h4uWpeNkHqUSpckzAxahosRJUjHGXpj9VZAMPMEKM9P1bceMB3V/DcP+a42LFitHzzz8vW+gimHj0mBE0bfoUWUOMQC2QMOaHQ8ICmxk3WkJCAgfhgvwDvGVXip27tsuoYeTIYWLOR0VHyB7A8LcbFo11FYi8/dDQoKvcDARUOD43VwA3tOl+LlCwCJWoWJVKV32OKtZ8nUpUrkVFylWjYhUeo7JVnqeSlWtSyQpVmYjLUrHiJal4iVJiGTuWqVDYBZbbqZct9wIcAC5w52oMTH+VLVtWtkPEMltMqWLTB3h4T5w8KrkvYHj6B3hdDAryvnGJPOLjY+r6+HpcwcXMnjND9micPmOqREIPHoK1wJ3omWeekUXRhkVDXUUpBg8/0j0MRe4Clilld4SKlwFBWOb8b8lyD1GZ6i/SI680pkfrNqIHqr1F95eqSvlLV6fij9SlirXepeKValLZB6oLCZcoWUqIWCOmFa4Cqywc+7Yi9wGcAG5wfH6uAlOn2Eb3m2+aSGpleHbh4V23fjUdPZZE0THhQsShYUFzjRslAYE+23ERnTq3l+ixZcsWyzzw0GHJ88DvvvuO2yOhqxu63jevABlxkOTA8Rk6A7iiQcCyBIlRkq3gSnU+oMfeC6CPGvajD97vQmUq16f7SlWnIg/XowpPf0plq71Mpco/SsWZhEuWKs0oQ3fdpS5phWt43EjftxW5E+AGcITjM3QVSKUMT25Mq6jU+eEpUybS/gN7JVgLgchwS0dER3xuXG8JCwv0RzS0t09LcUFj0hopKRFNBje0h2dL2bHCXYFYsKieN3RuJi+hhZF9F9Htt9+RGv2MdcClH3ycHn2lCVVlEq73fmuq1yCICpetRfeVZBJ+qC6Vf/pztoY/oNKVHmMLuCSVKl2GUVaWNTmWrVDYwdNG+r6tyL3A1MHzRva9cCYKFy4s88PmzktYcjtv3mxxS4Prkt3S3qebNGlyt3G9BDk0/fy9zqPyhPGj6djxI5LmC5PXGC107NSOatasKeHehkWjnAXWhb1u6PxvXoMXo7CR/nk6AwziUtcAFyhIpR6oTpVf+JSqvONDpZ76mPKXTybghxs0pFd8u1P1tz2pXI03qDTmhUuWotJMwKXLlHN7TILi1kEDI33fVuRugCteM9yzphie3AoVKtD//veFuKWx4mf8hHG0afN6OnhoPwUG+Sa7pUMDOxjXS0JCAgdICq+IYEnrtWbtKskuYi5Heuedt92WEQs3EUnTlYDzHpCfu7SR/pk6A6zzxTKjAgULU0FG6YqPUpnq9ajK699TuWc+poIVn6L8pWtQzY996N3IIfTUp4FU8qE6VP7Bx8QKBgED+fLlS1e2QmEH7xnp+7Yi9wOcAe5wBxFDf1SrVk3c0rB+sQcCElEdPoI4qETTGv4rMDDwASOnJSwsoAoyhqDSefNn06GkAzQlcZJkE8HFBQYFSPovd7ih4U54w1ACzqvA1EFlI/1zdQYYyGFOWJJwFCpCxUsxqT70JJV7vAFVevo9Ks6EW6TCk1SC/z5S92MqgwjpStWpfKWHxQouU7a8zAu7Y0CouDWBpXaOfVuRNwDuQOY+d7imixYtSvUbvER9+/WWaGnEP61YuUzSWsa0ihAiDg4NGGHktHAlY1BZXFyM+MSR0mvcOARjDaLefXrQc889K4udDYtGOAu4gZSA8zZqG+mfq7PAKNTMgoUkHCXLVqRSDzxGRctXpRIVqvH/j1Px8lWocMqa4fIPPCrzwCDgsuUqUP78BdKVqVDYwd2M5kb6fq3IOwCHgEscn62zgFcO0dItU3ZcguGJ5bgHDu6lJUsXCgn7+HpeCQ8Pf8zIKQmJCqlhLklatnwx7T+w5981wYP603fffytZsdxhdTxl6Nq8mwHuyB+N/oSgLEnAUbQ4FS1WnEqVqUjlH6xOJcpWYjxAJcpUogoPpljAZf4l4JIlS2vqSoXLuJnyRkfwewQ4fp8lzPNcOTeXAFwCTnF8vs4CWx8+9dRT1KNnVwnSwtrhxUsWyuqgNm1bJ1vDIQEJRk5JcLD/KFSCylDp4sUL5CJwMd26dZZgLHcEwMCF6e5crehEUWxRRd15p1MdMYIVeOQdd8hfx9/M350p71bDN4Z75mRuu/12cUdLFqziJVMScZgoRSWYbM054LLlkgkY/9+pc8GKbAC79+R1bxx0VGzBgtSRDaSOlSpRDOvozHQWfou5915qU7w4ta9QgTpVrkyd2ALEX3zG963uuy9DnegI3D+QYHaR3eeA1KPumB4rX748NW7cSIK0sBoIhig2K1q+YkmqNRwWFlDNcLcEBQU9aOaHXrpsEVcKKzh5SRIuptFXX7plcwZE0yKq1vEGugp0KHSYzg89RAPr16f+L7xAHSpWpOi77860IwLRd91FXR55hHrWqiXngIwjmQzQCdtxW9Gh8Ts6uN0OeasBaeWKGumfsytAnAHc0ibpmmuA4XpOa/2WK19Bvke+accyFApngAhbxz6d19A6f36a6uFBp7ZupWNr19LAl14Sg8TxOCFfJmjotfGNGtH6QYPo1JYt9OuhQ/RrUpL8RRkbhgyhCY0bU0cm5cwIHcQZwL95s2704nc3O/BmoCyU6ViPM/A2sr9iA9sePvHkE5KMKtkaHsXW8AIxTOPbtBIiDgoJGGq4W0JDg7qg8NaxUTIXDB+4aQV36dqRnnjiCbk4w+Ki7QL7dro1CIIfWmsmSHSow8uX0+k9e+jn3btp76xZNOzNN1M7kJArI627BZ97Pvkk7Z83j37auZMWx8dTXOHCFF+sGK3s1o0OLlokZR1fv56Gvf22kHq6+hUyen3CSP+sXYWZQUtc0ilrgGHxmgSMz5gDzu5gUKHIZ+TNLVFhEMCShfEBoyG+aFFa2b07XfrzTzr74480+pNPRPc5noPjRn34Ie1KTKQ/jh+nv86epcsXLsjfi7//fs3nP06coD3Tp9PoTz8VnehohIAsvfi77++/n3xKl6ZAtqCzA5SBsjy5zOwSMTgGXOP4vO0CugUG55df/u8aaxjTsyBj8KSfv9flgICmxQx3SUxMTL7AQJ+LKBzpKQ8e2keT08wFN278lVus4BeN7Lsc0gKu5/5169KJjRul820eOZK2T5xIf546JeTama3YVvxge9asKTA7Joi5balStKJLF7rw66/SeVf37i2dLa5IEZofFUVbx4yh86dP058nT0pHdOzUin/xheGe6ERHIBXl3XzfsbUhknG4e4MQxa0NbNzg7mmxnEYEky68dAkNG9KEr76izg8/LLoM+ssk4TGffXatvmJ9BwNjmqcn/bxrF10+f54u/fGHWL/75syhtf360eI2bWhN375iwOD7i/w7jvuZDZsZfn6iF9NaxLBaQZqdWP+OYSNowrff0oTvvnMNfO4YbktXtuCbFiggZWeHJ3AuuMbxeTsDGJxPspFmbvAAg3TZsiWygVFEZKhs8BAZGRpjuEtat44MEBM72I+OHjtMq1YtT0lPOUgmqGvVyv5ccFnD/R2+Vf78NM3DQ0ZtSUuXUvfHHqMebLEfW7eOfjt8mEZ9/DH1ql1brOSkZcuoC3dYcxSJ0eLpvXtlBAiYJIxOjg6Lck5s3iwjRiXhzOGO9cIKxfUGtkd17Mu5HdB5ic2b0y/79on7eGGrVjIVlxkJw+sHPXiS9dnlixflvNU9e9Kgl1+mrlWqUJdHH5VpN/nLwLQevIFnDh6U4+Gi7vvss2L0oDxYqnAf+5UtSwnffENHVq2iP44doz9ZD7sCnHt87Vqa2LQpBVWuTF58vdm1hjE/DM5xfOZ2YVrDyCsNQxSR0khnmXT4ICVOnZjskg72+9NwlwQE+OxGoVigDBKeOnWy5NBEmHbz5k2pYsWK2bKC4RrARs2ONyq7gJU7hR8ciBKWL4ILEJywb+5c+W5qy5ZCpptGjKBNw4enzvui4+2ePl0s6D0zZojlbJKwWXa78uWFzJWE7eEdI/1zVyhyK0oy/Iz0/Ti3AfoKRgEsUeigWP5/fnQ0XfjtN3Ebw4rtwvosMxKGBduhUiXxEh5esYLGsxUNssV03OTvvxfC3Th0qLi0oU971aolv4/74gsxXnZOmSJBW6ZLGgTpgWBWrndGYKB4C//+6y/6+/Jll3GWdfCcyEhqxfra4667KNzJAFsrgHOy45a+l401REpjaS4M0oSEMbR23Wom4gOEdM7Mmf9ER0c0NLIrUVGhT3t6Nb8K83rX7u20efMG2UkC2bGwxdMLLzwvYduGxUXaRR3DvW5oE+igfZ55RkaFvx05QjP9/WWUiLnhsz/9RNO9vaXztilRQoCRHIh2QUyMjO5mBwfT6l69hGiVhLMHtYYVeQWYOskLWbIw3wsrd1FcHC3v1ImGv/MO/VC6tOgvk4TXDRiQJQkDCNTqWrUq9X76aXFhT23Rgo6uXi16Euf9de5c8vn8+eiaNTTdy0usY1jQ3apXlyBWsywhYdalUfz9rNBQOsd1OpKqszj38880n636WB4A+BQoQB35Gq2Cy5wBOAfc4/j87QKGJ5bk+vp6sUE6QIxU7CKImKl+/XsnZ9Hy955uZFfCIoLiUFiHDm3p5KljNGfuTBo9eoRYwaFhIfQQd4LsWMH5jRxch5cyt4tR3O9Hj9KZQ4foNBMy5jLOnT5N07gjwX1jHh/FHWnwq6/SyS1b6MCCBTTivfdobd++MgqDpYzRHzo+jlUSdh6fGe5ZrqRQ5CQqMQKN9P33RgOWH8gO02UwMBB4NaFRI3Efg6Q2DRsmcS6ukDB0JXRbbKFCNOm778RwuXLxosTE/H7smEzf4e/5M2fk+zMHDtC0li3F8hadmMYqzWkS9mdjaNBrr0nUt+M9chbgHnCQYx+wCySmevnlBmKQmjmld+zcSmvWrjRTWV5uEpPNjR2Cgv1+R2EzZiTSwYP7ZKck7KuIHNEffvgBFS9ePN2FOYOcXgKAztqJBwoIOljavj0tio2lX/bvFxfzxK+/lo5sHgureFmHDvLA0fkw53GBO93fV65I512TxhpWEnYeSGPpzkhphcLdQIasJkb6vpsbAF019M03afyXX1L3GjVEXyWyxQqDAsQItzAI1yUSTgFWeQx/+206vnGjTMfNi4ig/s8/T92qVaO+zz1Hc0JCZEUI5o8RSW1VzvUg4SF8jVj54o4EItgcyLEf2AUSAVWtWpXatI2VzYtGjxlJS5YuohMnjlJIaIAQcWxslL/hqkREhNT18Gx21dOruewWAX93anKO7l1kWVJ2IlKxXiun9wY2F6pjzgKBWVjfhkAtjB4Hv/KKzBu3K1tWAIKd4eNDOxMTZd744MKFEgl45dIlGfmBwDH/gnKVhF0D1ukhC5FjX1AobjTghs5po8BVQI/B/Xt8wwaxSLHSAzEuiWyNppIw663skjCsbVi3IHvkVEAdPR5/nAY1aCDxM/gMMgZRO0ZEm8hpEvbjevvWrSseAce6XQE4KDtrh0uXLk1fffWlGKYjRg6TvRSOHT8sxipI2Nffc57hqkRGh0aIK7pjsit61uwZ4vfG2ihvH89sB2RhcwbHG+JugGQRro+F51hWJPPB3CngXm7PRIoRHlzPB+bPF1cOSBYu7B/KlJE5EkQJwmreMHSodEAz+EBJ2HU0YdxrpO8PCsWNRE0j9+5XDr0DMkRsy1UmpaTlyyWA1N0kLHWluL1BsvAgwuoF8Z/cupVm+vnJeuLMkh2ZJBzJunUmW87uIuF53K7YmjXJk689BgmSUqYG3QFwkWN/sAts2VunTh2ZB0aAFmKmtm3fwkbrKiHhgECfy4arEhDgcxSFTJ48ng6xJTwpjSv6nXfeoSL8kAyLi7ID+OERrON4M9wNyRbDHRXBBFjTdmrbNumQiPxDR+rG1jEiArFMyVyiZJ4LC3o2dyIEKCxq3TrVCgYQAIFF7fht2FtvabIOJ4G1w3D9OfYLheJGAOkpc+M8sAkrEkaMypRmzVJJeMfkyfId8hhcEx3N361iYyKVhG0aDdB/c8PDJbr5n6tX5VwsecK8seOxaSGJOu64g4IrV6ZEb2+ZX8a0XnYATyQirRFx7ckEH5rBAMBVgItcnRuGIfroo49Qq9bR4pIeM3YULVu2WHZX8g/wlijpmJjw7wxnxc/P7x5fP0/ZrGHnrm2ygfG4hDE0dCjWBnejx7lDZMcVXddIfyNyAuKOZvKUSL5atcSahds5MiXEHRF27cuVkwXujtF2OBfEC4s5jkd/aUdemGsGEeM3yaPq5k5xK+C/hlrEihuP6kbuJmDAdEdj0I9YFSyrxJJKzMvCUgXRrezaVb6b/N139CMbG0i8MT8yUr7DXO5P/BnzvENee+2aaOaMgDqhL9f17y8BrUhXicjprCxQRB37sT5sxmTd/913aQEbMKt69aLVffq4BJy7MD6eBn7wAbVgPezL15UTq2nASY59wy7gkm7c5CvxEmPNMPYaRpR0n749zTSWbQxnJSYmyhMMjsnlkyeP0aJF82XSGVHRwSGBVJlHOa66orE2q6WR/ibkJNChHKP4FDce2OChmJG+jygUOQ1E6r9gJCducOyXuRHwtvWoUYP6PP20rOvFksrWBQrIXG3vp56SuBZ8B8MBBkfv2rWpTcmS8h2WYOIYZAaEd9Cu0QCdidwKcGGDkCW9r8Vxjgjh8ltwvd6lSlG7556j7q+8Qt1ffdU18Lntn3+efMqUoWZsKAXbvHZn4WG4vm44P9/Tl156ifoP6EvDhg+hiRMTaN++3TRj5tRkEg7y/cVwVoKD/dvi5H79egmjJ06dLJPOYPov/vs5leCHalhcjB08bCS7LBxvguLWBJIiIGo6J1JbKhRWKGgkL5nLCYsqx/Cf5GVE1+zqlvY7k5zw3R0O+fCtvrMJM4tgVhawI0CWnnxOMx48NL3nnmwBZaCsnCJgAJz0iJG+r9gBNpepXr06de7SITWN5YaN62j3nh0pOyt5XG3ZsuX9hjMSGOR3SpYmMZNjm6YJExOE4cH02U3QkRfTwSlyFlCGmCcuYaTvLwqFuwBL5xkjb2TDuhkAYkOwG7wN2QHKuB6GG7jJsc/YAbzClSpVIj9/H/EWjx4zghYumi9e5JSlSv9Et45sYTgjAYG+Mh+8ddum1Plgc8ckMD6Y37C4mKxwl5GDyTkUeR542fAiIG2gY99RKFwFdkRC9DNrwXR9TqEwgcEZOMqx/9gBvMP//e/n18wLY1VRz15dxRqOigqLNOxKeHjIWy09mv6N/JfHTxyhZcsX05gxI2nw4AEUFByQrflgmPvXY0SjyNuAZdyIUctwPWpRcWvjdkYFIzkZgw78FXaQHZc05oVffLGeZM8anjIvjPwaEyaMNV3Sawy7Et82Jhy5otu1j2cmP04zZ06TDRvA8F991UgiwQyLi7CD67E2WHFzAYTcjPGukexKfNBIDubSJU4KAGSLgRp2xanBqG8kR97ndCIgxc0JV9cMY7XQY9ipr2dXWUWUMH4Mbdu2mVatXiEkHBIa8JdhV/z9veNxEtY8IfMHNiwePmKorA9+8803qHDhwukuwC7UHaRwJzBfhCxczY3kXVG+MpI37YYSxhyz4uZBQyP52TZmfG8kR7PCfZingqsUuR7gKEfesgN4hx9++GGKjolMXS+8es1KSfcMPvXybnHVy8vrLsOO+Pl7H8RJU6dNpn3790hS6mHDkndNql27Nrm6dzBSg7l7z2CFQqFQKNwFcJQraSxBwuXLl6eWHs0lOAvZJRcumifBWYFBvhKcFRkZxraCDWGz+TJIeN261bRl6ybZJxFBWZ06t5egLCStNiwuIitUM3Q+WKFQKBS5F+AocJUjf9kBgrP+7/8+k6lbLOmdNj2RTp06Th07/UCY4m3TJi7CsCPePh5XQcIHDuyVLZnGslkN8zoiMixbWxfWN9I3WKFQKBSK3IQGRnr+sgNsbfjqq6/K1C1SPCPV87Fjh5k/+4tLOjDYN8rISkJCAt5AZLSPrwedYDN68ZKFsuYJ5rWHRwuqUKGCyyT8uZG+sQqFQqFQ5CaAqxz5yw4wVYspW3N/4QkTx9F+NmYnTkoQEvb2brnayEratGkdhINbtY6UyOjZs2ekRkY3bPg/KlWqVLqK7QKBFI6NVSgUCoUiNwFc5chfdnDHHXdIhHS3bp1lR6WE8WNpx46tbMwuEBIODvE/b2QlcXHRUfBdY4ExFhpPSZxII0YmR0a/9967VLRo0XQV28TvuT1JukKhUCgU4CpwlgWPZQp4iatUqUKxca1kCnfsuFGSvnLb9s3JOaSD/a4aWYl/oHcUDgaLHzlySNJVDh02mPr170MvvvgiFShQIF3FNrEdy0kcG6tQKBQKRW4CuIo5a4cFj2UKkDCSWQUG+Yv3eNToEbRy5TJKSjqQukzJyEo8vVosxMHwZSMwCxsUDxk6SDYsrlmzpsvLkxgLc+uG2QqFQqFQmABXgbMseCxTmMuUmjVvSgMGIn3lcFq0eIHEVyEDJZYp+QX5vWRkJgGBvmdAwnPnzaKdu7bL8iSY1d17dJHlSdnYQ3iiLk9SKBQKRW4HuAqcZcFjWQJxUw2//J9M4WIqd86cmRJfFREZItZw69aRPkZmEhKSvEYYS5M2b9koPm3kjP6hXTxVrVrV5choxmDNbKNQKBSK3A5wFTjLgseyRLFixeijjz9MziE9YogkvQIJd+jQNnmt8A+tM18rjIljkPD2HVto/Ya1knoLy5OioiPokUceyQ4J93RsqEKhUCgUuRHMWb0teCxLIK3zG2+8LnFU2P4XaZ+RNat3n+7JlnBcdOZrhbH5MA5EvstVq5bLGuGBg/pTQIBftnZPYnR2bKRCoVAoFLkRzFndLHgsS2A3pbp16woJI6gZwc1HjibRkKEDkiOkg/yijYzE19e3NB/0N0xmbGG4dNkiyX+JKC8Pz+wl6jCUhBUKhUKRRwDOsuCxLHHvvffSU08/JcHMWGWEvRewpeGYsSOFhD08mvU3MpLQ0KBPEL3lH+At5vOChfMkugsTzN99/w2VLVs2XYVOQElYoVAoFHkC4CwLHssS+fLloxo1alDffr1kzwUk7Ni7bxclTp2UnDXLx3O7kZFERoZ7gITDwoMkUcecubOYhIcJCX/ZqGG2smUZSsIKhdsRkQaOvykUCtcBzrLgsSxhZs3CiiKQ8LiEMbLSaPacGULCAQE+p42MJD4+JhgHxcZFSzTXjJnTUrNlffbZp7JDhGFRqU0oCSuuC9IS081IUmhL5H/+Q1G33UbRKcD/Ufydu9tp1mXC3eUrFLkV4CwLHssS2GUQy3k7dPwhJWvWaMmYtWTpQjN15QUjI2nzQ1wE5oNxMkg4cepkGj5iqIRaf/DB+xJ6bVhUahNKwoocgRAFkEJMmUHIJOUcx3LyAnDd0dyG1jzabnPnndTurrsE+L/17bcnEzHD8TxnYZJvDN8zlBvL9eEvPisZK24FgLMseCxLIG4Ky3nj28Qmk/DYUbRp8wZau26VkHBIaMAVIyOJa5OcN7pHz+S80QitxjonkPBbb70podeGRaU2oSSscDtABiAekAOIAmTUNl8+S8TzbzgGx7pqNZrk5Mq5dpBZ+ULAfO1oY9f776dB5cvTiMqVaRhjQIUK1KVIEYrl35xpW0b14btWTLo/MMF3L1SI+pQsST24/HZ33y3fO1OHQpEXAc6y4LEsARLGct6YVlE0aPAAWea7fsMa2rZtk2kJ/21kJFExYdE4CFFdiI7GXojYjgkk/Oqrr8heiYZFpTZxXUg4gpVUK1ZQcTxgwF98djxGcfMAVq2QBZNDr+LFaWDp0jSkbFkaCpQrlwp8h99wjEkkIBrH8jJCWrLHudkhcitkVr4JWMAYSPTIn58mPPkk7ejcmZLGjKFDjB19+1LiJ59QuwIFxOLP6rqyqg9kj4FLPybfuR99ROvDw2nx11/TMFYu7e65J9kitihXobhZAM6y4LEsARJ+6KGHKDw8RHJsjB4zktasWUW79+xI3lM4yDdjEg4JCxASxgbER48m0cSJCULCyZs31JP1T4ZFpTaR4yQcyVZOh4oVKfGbb2hZXJz8bc8KOIKVjOOxipsDIBxYhn1LlaLlLVrQ5ogI2h4VRTuio68BvsNvy728aOCDD1IbtvBANGlJzoRjHSAbkA4IsOO991IXfg863ncfxfFnswzHc5xBVuWLm50BK74L/z6uShXa3aULXTx1iq6cO0cXTp6kA+PH04innqK2PMAwSTijNmVVH+oCMeP76a+/Tme2baO/fv2V/jx4kNZFRlJPJma4w60GMRnV6U5cjzoUCnCWBY9libSbOCST8AhauWq57MUAfvXz98qYhH38vISEh48YTIcPH5RNHMwdlJ5//jm6j19Uw6JSm8hREgYBd+VR+roePejX7dvpXFISnd6yhRaEhVFcoULpjlfkfUAJgzQ6MPGMrV6dftm8mf46c4YuM2FYAUTy665dNOXVV6nj/fcnu1VBOrelCW5KgTl3DMACBdH35H40oU4dmvH22zSxfn3qxp9TiTLlegBzfjoS36ctM025aYkkq/JBmMAPbJkO5kHlWl9fOn/kCP1z5Qpd/Okn2j9iBI1/9lnqwlYwiNpsi2WbGKZL26o+EHMM3xeQLNzPS9j6vfDjjwS5cvYs7RkyhPqVLy/1pCX7tPPxaes1Xd1pYefeOD7rtHP+Vu2yOkehyA7AWRY8liVAwpUqVSIfX+/UnZSWr1hCh48cNHdSypiEW7Ro2gYHIUHHoaT9ssgYi43hnq5T5xlZhGxYVGoTOUbCqQTcsyf9uX8/XT59mq788gtdYkthX2Ii/VC6dLpzFHkfULwgjC733EOTn3ySzvLAi/75RwgDf0FS/1y+nIq/GWePHqWpb74pVh4IByTXhsnNDHCCC1aCnDB3nOKmjeP/u3Hfn1CjBh2fPZvOcRk/rllDY6tVk+9xDoKWzEhlnIPzUT5+S1t2fEqAU1oisVO+zAPzNU/lAcRPK1bQX9zHzx44QNvbtKGExx+n7kzAOA5loQ7HenG+GVyF6+rOA+rxmdXH6M71JdatSz9zfRfZ2v6NLeJlLVpQj2LFUknYdGmbgWJmvRgwmHWKqzsFdu+NOQACTMscbXM8J/VZpVyLkrHCXQBnWfBYlgAJI7GVl5dHCgkPp6XLFtPx40eEhFt6NP3bz8/vHsNKPDybT8RBCePH0IGD125jWLt2bbqbLQ7DolKbyBESzoiAgQvHjtHmwYOpTfHi6c5T5H0gChjKGcQxtWZNOnv4cCoJ/33xIp3dsoV+ZXI5s3o1/cL4edUqOjx1KiU89xz1YNLqxkTUh609zBeP4JHryAceoGH88gwsVYp6FCwoFjbIBCQ/nL9b89VXQkao4zzXtfCll2gMW4UDSpakLnw8iAvk0h7BTGxpDyhRgobx7yh3JAKouOz+fCyCqlAuCArE0onrybB8PmcA/9aTr7Nv0aI0o0ED2s3Ee7BzZ9rUrBlNZiLtwxZsRy4D9cJdnVGbevI1duU292CM4oHp2saN09eH9uDYwoWpF5PwSC5n4csv04YmTWgJW8xjHnyQuvD5Qq63J0dNd+B6cT8HctvQ3hFc5/CKFWUOHvcRhInBDmDn3oBc8VxlQJMyaOjEzyCjdmEAgnJTo8Mt+opC4SzAWRY8liXM7QxbtGwmJIyEV4tlO8OjsIJlO0N/f68nDCvx8mqxDCQ8afJ42rd/t2T6MEn4iSeeoLu4oxsWldqE20k4MwKGFXxs6VIazlZPNCsox3MVeR8mCXdl4plWq1YqCf/z9990ga3Ete+9R7PYQgZRja9encZWrUrDH3qI+jOZDWRM4O+W/t//0fZWrehA7950aNAg2sPktjEwkGa/8QaN4L7Vl8loGJPJ/Pr16dSECXT1/Plk1+yZM3SYj90RFibu4WlvvSVE2Y1JZCgT0NTnn6e1LVvSrrZt6WD//pQ0ZIiUvZ6PxW+DypQRMgNpDmbyyaz8dX5+NOudd2hkuXI0iwcQu6Ki6OAPP9DOiAiay8TYjy1T3ANcawJbs0ss2rSJ2zSP34UJ/Pt4vr4lTKw/TpyYcX1c7jAmvES+r1v48+6YGNoSFESz+L704HpAlBhIoL0gxTlsoa/39KQ97dvToYEDaV+PHrSFr28OP4PBTJid0VbGkKzuDbcP5N2RSddcgtWLiXxcBu3Cs8I1DeXn2h4BY7c7F3CnUGQEcJYFj2UJkDCySzZt+p3k2AAJL1w0T/YU9vXzNPcUft2wEm+flltBwkivtWfvrhQSHijpt5ABJB+/dIZFpTbhVhLOjIDx/687d9JMVgrdqlShdnxD2rHSc8QPrPxi+QWPvF0Dt/IiMiPhc7t30+I6dWhc8eI0hEljAD/nvmzZ9WEMZtKa9eKLdHT8eDp/9Chd/u03uvLnnzLneeWPP2Re+eyhQ7Rv+HCa9PjjtOzzz+n04sXym2lpo44rv/9Ol/nY88eO0a4+fYR8h/IIeHN8PP22fTtd+vlnuszHoNyr587J+Ze4b57ZsIHWMrGNZPIayn1w0Wef0c9ZlL+3Xz+ayteyplEjOrtvn3x/ga99V9euUs4gWMn16tGRTNp0jtt0jH/f6u1NZ3iAmlV9U3jwsurLL6U+nI9yd3TpIkuj4B3oxRboRL6mHXFx9Ae/b2ib2V7UjTn4P/jdXN+6NQ3gdxDz2Zvs3Bsm46Fs5cJljoHF9Lp1M20XntXuoUOpL58Dyxzzy459RaFwFuAsCx6zhTLML99++3UKCQ+j+QvmCgkHBPoICQcHB3xsWImPn+chkPD0GVNo956dNC5htCw27t2nh5DwnTwyNSwqtAm3kTCWHXXi0TWCsBwJ2CThc6yQTyxfTklz5lDS7NnpcGjWLNqVkEBzAwKoA7+8SsR5D5mR8AXuF+vYmpvNRDKFLeDxjz5KY9haGs1Eic9JrLQRrCUkxMdfhWJnBY+/mDtG1PEBJuFpzzxDuzp2pIsnTtA/V68KYYngHLYiQQYIjto1YAANZTKEi3QbH/8Xl4U5afwuxMGEgXlp1Ify/9i1i5Yy+U7ia9nZoUOW5e9ny286W/Ubv/tOCAyC3w6y1Tnh4YdpEg9ID7FFmVWbfpw+nY4NG0aXsqhvXwb1HeB2whXcjwc1CTzA3d+3r0RpS1m491wPysF0AJ7DRT53hZeXuJqHMHnbuTe/871Z9PHHNKxECUrgtmXVrsvcrj0g4ZSAMSVhhTsAzrLgMVsoXbo0NWnyVcqewkNp7rzZknsjKNhPSDgsLPhrw0r8/b2Pg4RnzppKu3bvoHHjRsti4569ukkaLuTENCwqtAm3kXBrHoHP5NE8rF1HAk4lYn75//rxx0xx6eRJ+mXrVprNI2+U6ViPIncjIxKGQEH/ygOwnyZNopMTJ9LxCRPo8OjRtDUsjJa/8gr9uWNHKgldZYvsNBPTYbbojjKp/MKDtzNbttAitjpHP/ggLW/cmI7y75e5X6Ut/0e2zuB63dm9O83jY/qw1d2HLbcZb7xBp9eto18ZR5i0DrRqRcd5wHh+82b656+/kgmNiWd/r1409YknaFWTJnSMCT+z8pd+/TVN4oHExu+/v4YUk5gspzIZzq5dm/5gCzOzNv3KbVrn4UEbW7akEyNGuFQffh+PwQyP9Fc1bEjnk5KEbFEOLOlfV62i42PH0kkm+9/4/Ty1ciWNffppcVv3KlSIpvO9+dnmvZnMBDzLRrt+4XbN42vpitwAIGF1RyvcAHCWBY/ZAvZZaNy4USoJYx8GZKEMCQ2Q4KzIyLBmhpX4B/r8jAPmzptJO3ZuSyHh/pKIGiR8Oys8w6JCm3AbCSPQahMrAwReOZKvs5DgLS5Lg7fyHjIjYbGq2Br7+8IFupoCWFOnpkyh9R99ROcPHkw9Fv3geHQ0bXrtNVr61FM0hzGTiRrztnC5Di9blhY3aEBnt21LtfguHDlCy/h4EBLcs92LFpVALlzLEH4B5/Dx8599lhbxdS1jItnEn0/ExNBVWHSUHDh2atYsSuT3aiJbz8tefpnOmmTjUP6QlKAlBEltcLBMDw8eTNPYmp7LdSFaOqM2zWUinM3/j2ZrPaFiRVrG7XOlPpD+FLa6QfxHeeAAVzIE1u+JhASZ257Av49lAh/P9U7A0idk2koJGsO9mW3j3vzI92ZmjRo0j487l0m78KxmcFv6seWB7F6aREThLoCzLHjMFkry+9Pwy/9JPBWyTs6aPUMs4YjIECHhqJgIT8NKAoP8/sAB8xfMoR07tkriaZBwt+6dcxUJIxvWYh5B/8kv55UMLGE7gBX9x759tKR1aynTsR5F7kZmJAzrDMRwFXOHKbgEBc5W8YrXX6dfli6lv1MsLxDRX8eP02m2mrc3by6ENZaJqmf+/NQZUblMxDNq1qTfN20SNyrqwPzqdK6zNx+DyFxE8CJQqQdbfKMQQMW/oZ7NX31Fe/z96TD31zNMmFcxDwuiuXyZTq9YQZMfe4xGMoHP4eP/yKB8kDuinxHAtc6KFJnwpj/+uMwrZ9SmedymcdymAWyNYo7c1fqE9GF58/04w1aouJFZ4JJe+fnnNLRECYlWx/kopz3/jwAr895IcJmNe/ML35uZTzwhyKxdeFaIIEcWMdRjLm9y7CsKhbMAZ1nwmC0ICTf8byoJz5w1TUg4KjpMSDg2NsbfsBKThBcsnEvbt29JJeFOnTvkKhJGUFYvfjn3sEJFcIoVESM6+vfduyXbT0b4af16sYJ7clko07EeRe5GhiQM1+hvv9GPbJkd5ud7cMAA2t+/P+3q2ZNWenjQZO7Lm1j5I6GLkJBo93/EasYUxU/z5tGqb76hYUxaWMYEYoLb+Lc0pIVgoElPPinWHZYZAfgf7uv1LVvSjzNnyrKfSz/9JG7fK2zlwZWKOc1Uolm5kiYyCQ9lS3EGl5WW5B3LRzTyQCa4dd9+m849jDlhLC1CdHFWbRqDpT1M+rMcBhV26wMJz2DLe8Ezz9DZvXuT24PzeUA8na3Snky0IENJhckw1/c6fW9WraJpPLAYxwS7wc8v03atTHlWHczoaIu+olA4C3CWBY/ZAnYc/PyLz1NJGDsSgoSjY8Ltk/A2IeFR15AwQq8Niwptwm0kDGDZUf/nnqO9PCJ2JGLMB2OeaCYr3AF161IfHi07onft2tSNlUlbHrFEsdJwLF+R+5ERCUt09P79tPy11yRgaRTWoSKCmImqLz/vPgUL0hgmro3BwfTrxo0SYWsGBomCv3SJ/tizh1Y0bSprX/uxJTzNkYQPHqRJ/B0sZZAMLL1BpUsLEYKQzMAk/AXRIBDq0rFjqUQilnAKCcMyRRDUNaSYpnxzYworUgQJj2VyQ6AUAs82ZNGmNc2a0QQmtrl8v1ypDyQ8s1o1WsTvFbJ2mfcb0dFT+HxYwWbWLgDPB65oZ+8NBijwEgzkezPW5rPCnDw8Elgr7NhXFApnAc6y4DFbKM590SUSDg7xP48DsKYpt5NwOF9LTCZEfPH4ccmW1a9OHYphxQJL1xG6uUPeRmYkfHb3bpkvHMpKHJYsLFoQDBJjSEILJtbRIKMXX6RdsbH027p1slbWDACC+/PHZcsogfv9IAQUMcE4Wo5IEALLD+5oyXjFpPHz8uVCIlIGW2tn2FLbHRREm99/n/Z9/TVdTkkBmSUJm+XzdWOuE3UMsnAPg4RH8yAD12GnTaf5+uBKXsD3Jq072m59piU8nweyZ3ftSg3KwmqEOS+8QH15MNCe7zFI3Fzni+Qgk2rUcOreiJeA731fbhPKzKpdeFaj+LpQH8hfE3YosgtwlgWP2cI1JDw8PQm3adM6xLCS4JCACzgAmw/nehIGMiNi/gvFsrpzZ4ovWjT9uYo8j8xI+NzevbS0Xj0az9bvcLbCML8Jy65/sWLUv0gRyeiEudsE/m0mW8urX36ZjnfsSFdAOClW1lm29KYysQzh48US3rAhlbSwZhXBWiP5ZUN5WO87j0nCtA4hf506RbuQaYqJdvnjj9MhtubQN02iAQmDuAczyWdU/ghEXDMJIbJ4RJky6QKlTEu4P5KKMFEhmGpcJm0yy130zDP0B1uWztZ3OCUaexZf7y9LlqTO1f7F7doWEEATEaiGddkMZLPCNouj+Lrmv/SSU/cG7mhYwoP43tppF57VZNYD2JBCg7MU7gA4y4LHbMGRhKfPmCok3Do2yh4JL1u2mLZu25T7SRjIhIgxL3xg+nTNHX2TIiMSBqDkD0VH07bmzWlDs2a0rmlTWs2EsvzLL2kuk/NOHpxt8PKiRUwOi9kqXPPss7S/USO6tGdPasQwFHsislsxoWAeOW2AEOYxD7VtK1HGC15/nRa+9RatfPNN6X8ifP5l5C7nOtdzfTsaNqTfFy4U96lJNELCXO5AJj2Uj4QgVuXPfe01mvHqqzSRyXbz99/TXw6BWROZmMYzMW7r0IHWeXpm2iYQ4YL69Wke368zTKKpy4KcqA8u/skMzLUjcQYELmKQ+raWLWkJl7/07bdpI5PyoXHjaOVXX9EKvj/O3JszTMLwPkyqVo2222gXnv0k/h4krJawwh0AZ1nwmC0ICX/+f6kkPG36lBQSjnaNhDt0bMckXC13kjCQhogRrIX5LRAwIp/VEr55kZaEEx1yR0M5w2WJjQ5AIrDmAMxd7kAA06FDkqEJy19+X7OGfluwgC5s3y7zlCgDRAAX5+iqVan3/fdLzuSkESNSl+RIhqnffpNpD0kMM3kyrWbi+d20ZlOI6RLXc3bdOpnz/JvP/QdEk1I+SBhpJpHJK6vyj3C/nlO7Nm3mwURaUkT6xslMwDPq1KE/2PrPqk0/LV9OiWx5TuFzjowc6XR9SA4CyxuJNBZ9+CH9yXWaRIj24n5f5LYiJzXmby+cOEEbQKAvvvivpW/j3oCEETw2m4nVTrtO8bMagex4+fIpCSvcAnCWBY/ZAkj4088+cR8Jt+/wQ+4mYYCvDcFafVhxrOrYkfZNmSJ/e7LC0cCrmxPmLkqY653AVtM1uyhlIJd+/JF2BwfTBSYaIQ8mH9lhiQlACAJLm1i5YwCH/Yn7MNlgHrkfv1TLGjeWZXHmXKQI14elUKfmzKH5L7xAu+LihHhkrhSSUj6OwdrkP1avlvlQIcQVK2gUEwfmk/tnUv4VrMGdPZtmshW43sE9vB/JM9gqnQ73Ml9zVm1ayZbqkNKlaSj2X3ahvr39+0tmMCzfQuasbfHxMu1zNYVA04pMC7D1u4rLwHroHbGxdIFJ3s69wQAFEekzeXDxp4124Vn1wu5O/K5rsg6FOwDOsuAxWyjGffHWI+EUgHDjixQRFzQsYCXgmxeyF+9tyfvsDn/0UTrJVh6sYbiRM8JptsaQD/kAW5DIIAWSuMBW24VTp+g8kyc2rj86dSot+eYbGli+vAQZIeIWy19APutCQ+mXjRvpHJMJzkF9P7HVtqlNGxpTubLkmt7evj39tmOHlHeey/6Dyzw+cyatbtSIVjdsKOf/zuS3f8IEGsBEhiAo7BKUWfmbufxx3MaFn31Gpzdtoj+5LdgbeWPbtpJnedTDD9POPn0k01dmbUKEOOrqzMQ/DKlfnaxvA5Nub363ZMem++6j4dzmZU2a0PFZsyRPNOqTerm83/j4Xf360QQeIGDDjITHHqNt7drZujcH2RIfzYMLRLEjL3dW7cKz0mQdCncCnGXBY7bgMgl37tLhUrdunWjdulW0jUl49pzpNCVxAg0bNjj3zgkrbmlgOUosW8OdsEMPMjVhxyQmwolsRaUFLOVx/P3IqlVpEFuBw5mAsA/v9JdeonnvvUcLPv1UduOZyNYfdlrqyaQBpW5uqYdt8kDE/ZmAUMeM116juR98QJOff17K7Fe2rJAS0jOC6MbXqkWz3npLdj+a8PTTNJLJZCBbuwCOH1GtGvVn0sXOP9gPF8ucMiu/P5eP/X2xDGc4W8+jmdCG8/d9+PtOTKhdUC+TMc6dlkmbED1sbqHoUn1lylBbHpjgmmUbQ3ifWOGgfRPR5jffpHkffkgzX32VEvjzQL4m7N2M7Q5xfwaVK2fr3gzk54M2YWtDO+0SAsYa4f/oVoYK9wCcZcFjtgAS/vrrxjRpUgJNn5FIS5YsoKSk/TR02EDq1LkddenWKdSwkhkzplzesGEN7dq1jXbu3Epbt26kTZvX0cqVS2QDByVhRW4DFC6IGCSJBBOw0JCtCVvhXYOUDE7mhvP4i++FOAsWpO6FClFXJgt8Z+71K1YVlw2YG8tj2Q3KAUF0K1BACNDcLxfnyBpbPh8Eh/LMMs1N6GULwJRrABGCOLDZvbmmNqPyYY3jeDMzl9mOeP7OJESULedm0SbUB7hSn1yzQxk4Br/DwkZ93blulIcBRjyfg+vDceY14nqyujdol3k/7bZLCVjhToCzLHjMFkDCwcGBwp/gUfApeHXTpnW0atVSGjZiCHdVC1ESVuRFQPEKUbIihjIGsVkihexM4DPIAQSOv5LlySQYB4UudRjJhG9uNp/unBSkLdv8Hd+Zv5nAZ5M4XCnfLMPx+8zahDqyVZ9FGWiDVd1p22gOZJy5N471Z9YuJV+FuwHOsuAxW1ASVtySMIkBUdOWSHtMCkyCMGF+71i2Yx1W51xTbppjHH/LrA675WcGZ9pkdY5jeWnheH7actK2OaN6HY9zLD8zONMuhSK7AGdZ8JgtuJeENykJKxQKheLWAjjLgsdsQUlYoVAoFIpsAJxlwWO2oCSsUCgUCkU2AM6y4DFbcJmE4+NbXWzVKpJWrV4uS5QSp06iseNGUp++PXWJkkKhUChuGYCzLHjMFkDCDb/8H40aPZwmThxH8+bPpqNHk6hHzy6yiUOHDm2tlyhZJ+voR+07tM0zyToUCoVCocguwFkWPGYL1ybrGGw/WYeSsEKhUCgUyZxlwWO2oCSsUCgUCkU2AM6y4DFbcA8Jb91EY8aOooGDmITbKwkrFAqF4tYBOMuCx2xBSPjTT6hvv940jEl46jQlYYVCoVAobAOcZcFjtqAkrFAoFApFNgDOsuAxW1ASVigUCoUiGwBnWfCYLSgJKxQKhUKRDYCzLHjMFnItCXvxX4VCoVAocjvAWRY8Zgu5loTrlCxJCoVCoVDkZjxdrNhVcJYFj9lCriXh2QkJpFAoFApFbsbU4cN/BmdZ8Jgt5FoSvnThAikUCoVCkZtx8fz5w+AsCx6zhVxLwqSioqKiopL7JQmcZcFjtqAkrKKioqKi4rokgbMseMwWlIRVVFRUVFRclyRwlgWP2YKSsIqKioqKiuuSBM6y4DFbUBJWUVFRUVFxXZLAWRY8ZgtKwioqKioqKq5LEjjLgsdsIRsk7O9AwiOZhPsyCbdRElZRUVFRuVUkCZxlwWO28C8J92ISHsQkPFlJWEVFRUVFxaYkgbMseMwWlIRVVFRUVFRclyRwlgWP2YKSsIqKioqKiuuSBM6y4DFbcAsJb2ESHj1mJA0Y2JfaKQmrqKioqNw6kgTOsuAxWzBJuE/fXjR0GJPwVCVhFRUVFRUVu5IEzrLgMVtQElZRUVFRUXFdksBZFjxmC0rCKioqKioqrksSOMuCx2xBSVhFRUVFRcV1SQJnWfCYLSgJq6ioqKiouC5J4CwLHrMFJWEVFRUVFRXXJQmcZcFjtqAkrKKioqKi4rokgbMseMwWlIRVVFRUVFRclyRwlgWP2YKSsIqKioqKiuuSBM6y4DFbUBJWUVFRUVFxXZLAWRY8ZgtKwioqKioqKq5LEjjLgsdsQUlYRUVFRUXFdUkCZ1nwmC0oCauoqKioqLguSeAsCx6zBSVhFRUVFRUV1yUJnGXBY7bgJhLeyCQ8gkm4D5NwvJKwioqKisqtIkngLAses4VkEv6YSbgnk/BAJWGVm0/++ecfunr1Kl25ckWA/1VUVFTcJEngLAseswUl4RwWEMDFixfp2LFjdPjwYTp69CidPXtWvlfJefn777/pl19+oU2bNtG6detow4YNdODAAbp8+bLjoS4LnuVff/1FP/30kzzf06dPK9HnEdFnp+IGSQJnWfCYLdx0JIyX6tKlS3T8+HEhPRNHjhwRIjx16pQoZRAhFHROC5T9ypUr6YUXXqCHH36Y6tSpQ5MmTaILFy44HqriZkFfgHJt06YNVa1alSpUqEC1a9emuLg4+u233xwPd1nwjDdu3EhffvklPf300+Tt7U0nTpzQgVYeEH12Km6QJHCWBY/ZgttIeNToEdR/QB/6oV08VbuBJAx3I6ydl156iapUqZIKKOFnnnmGPvroI/Lx8aGBAweKRQQyzMkXDgOCuXPnUtmyZeWelChRgoYMGULnzp1zPPSmEzyLH3/8kU6ePEl//vmnWwc9WZWNZ4rvx44dK4OffPnyUfny5SkwMFCeuzPWTlZ14buePXtS6dKl6Y477qCHHnqIli5d6lZrW8U10Wench0kCZxlwWO2ABL+hEm4d5+eNGToQErM6ySMl2f58uVUrlw5uu22264BXrK7776b8ufPLy/dO++8I1bpr7/+mmNEbJJwmTJlpG3Fixe/JUgYJLd371763//+Rx988AGNHj3abW22Uzb6wdq1a6lBgwZUpEgRql69OnXt2lW8Ic4QsJ26zp8/L99joIcXCt6O7du3O1WPivtFn53KdZIkcJYFj9nCTUnCy5YtE8sTZYF8CxcuLFYQiBmW6D333CPfg5Dx8o0cOVLc046CFxGWMkbLv//+u/zFZ8fRdFpJew5ecMAOCWMQgFG7eS5+x+fMBgfmfBau/Y8//kitM6vz0opZL85DGSgLA4eMzrdbJ77v16+fDHZwz2NjY8Uiwfw4zncs35l7badsXFNiYiJ999139O2339LkyZNlvs8sz53tQJmY5kA/6tChgzxvx+cLSfuMUSdgVafjsXb6g932WIlZF9oEmOek7ReoH+9WZmU5nmOnL6U93qwHbTaB60lLiO7uJxk9O3yP48xrsGp7Zsc4+/wg2XmGKjdUksBZFjxmCzc9CRcsWJBCQ0PFRb1mzRp52T799FNpOIgYbsp69erRli1bpLND8Pfnn3+WEfHEiROpV69eFB8fL5ZUQkIC7d69W16QtC8+XhK8aDt37qQJEybIsaNGjZI6p0+fnikJm/UhcGjcuHFyLo5ZvXq1BIvgRXR8CdFOWHXz5s2jAQMGUPv27albt240ZswYWr9+vSgWsz0ZCX7HnCnqwbV26tSJ+vfvT7Nnz6ZDhw6JAklbr506cQyud/PmzfTee+/JQOe+++6jL774gkaMGEFTpkyR54OyzWuwe69xLXbLhjLbunUrDR06VNoEEjY9Hu5uB9qwf/9+Gj9+PA0bNkzI39G7Yt5rWOdoV5cuXahz5840fPhw+S7tAMHZ/mCnPZn1Bfx28OBB6afTpk2Te476MVeKMtAvBg0aJO3F91aE52xfApmax+N+4niQIK4f9xEeKmDGjBnSNjzPnOgnVs/uzJkzQoIgZFwDvsOzwIDCFNSDZzZz5kw5Bvdtx44dcp3OPj9Idp+hyg2VJHCWBY/Zwk1PwnBFduzYUUbN6MR4Afbs2UMtWrSgAgUKyHXimJiYGAnWwcuB0TLmDh977DEqVaoUFS1aVKxp/MWo+vnnn5c5ZVPRAhi9QtGD0HEMji1ZsiTVqFGDPDw85HxcjyMJ45qgWPz9/enRRx+Vc3AujqtYsSK9+uqr8iKb12a2EYOK//u//5NjcCzaYNaJeS1YgJkFmKAMkJSXl5fMmcJSQBnoEPAavP3226J8zEhuu3VCmUMxvf766+L2x/3FYOf++++XOuCN+PDDD2WOztl7DaU5a9YsW2XjunEePB0ot2bNmkIqsFjc3Y6M6jKVpnmvfX196ZFHHkl9xqgXZeG8H374IbWPOtMf7D6XzPpC2ut/8MEH5d2Ijo6WZ4IyUB7KxbWHhYVJWWmJ2Nm+BALet2+f3A+zjTgW14y/+Iz7CDz55JNyLoIrr1c/wf1MSkqS6SroEbQBsSQgSfMeQo8g3gDTHDgP52OggufizPMz7192n6HKDZUkcJYFj9nCLUHCGGVjZJv2mBUrVohSMd3S77//vow2ISCGRo0aiRWNlxgvBV5e/I/j77zzTlEGGCljdIzyYPE+9dRTYlmj7TgGJI9zChUqJOfhetKSMBQZlD0sc7xwt99+u5yP86Aw8Pmuu+6iJ554QqxrnGMSF1ysZrlwr6NcAPUBn3/+eWp7HMWs9+OPP5b7g3pgKeB8lIlrxz1BJPGSJUtkdG+3TlgkkZGRokxQLtqM+4HjoTRxH999911RgBBn7jXaY7dsWEXdu3eX+4rjoHhhiSBq3t3tsKoL/QGEinuNQDAocdxrs014xmgz7jPK6tu3r/RRZ/uD3eeSUV+ApL1+1IHrBFAn6jb7NMrH/Rg8eHDqINKVvgRLMygoSMgLx+MaQd6VKlWSY826cP4bb7whgVKwIK9XP8Gzg5UeHBws9eFclLVo0SK5fggs3aZNm8o9Qv3QJTgPc9DOPD93vM8qN1ySwFkWPGYLtyQJo+NjVPvmm2/KS4GXAy8GRtsQjHLh8sJI2tPTU0bKcLHBQsCLgnLxNyIiQkbeAP7Hd+bLjpG5n5+fLH2AsrEiYSgARGbid/M8WNJQUHjBoZTMF/m5556TEbbpZoXSwjm4/hdffFHmvuDGgnWB64ZrzWqeG4J64c4z64Wi+eqrr2QkHxUVJQoFQWxQHFAOePnt1gnlBEWIKQDzXqFd+L1Vq1byLGBBmNfmzL2GJWC3bCvliqViWC/s7nZY1WWSMH7r0aOHWDSoEySDKP2AgAAKCQkRiwzW0bZt28Q6cqY/4JnA5WqnPRn1BYjj9aOv4n8QK67zpZdekmvBb/fee68EOoGkzHOd6Us4D+5fWLhoC8qDmxj3CySHdoFQ8f1nn30mfR6W7fXsJ7gW1AfXMMgX7UI5rVu3lmeEgceuXbtEZ5htQJth3Tvz/Nz1PqvccEkCZ6H/uAKnSLhx40bf1nrysVZPMoKC/a7kVRKGQBlgZI0XCMfhBcFLYc4pgSRhwWCUjzXGcE8tXLhQ3E5QUmmVEawrvGxQHnjJMCJfvHixzBnhfCgDKCfUk5aEMRKHq84cCDz++ONioWMdM0b+mDc0lQNebMx94TzMPVWuXFnuMeqEBQ4XF0bhOA9Ae63m7iCoF642s95q1aqJAsQgBCTVrFmzVAsD14Q24N7YqROuRigwzIfBjYdrhwKDZWIeY3oBIM7ca1gMdsu2Uq6rVq2SuX93t8OqLpOEHZ8x2rRgwQIheViE+B1zplDGjsdm1R9AJJgvtNOejPoCxPH6cb//+9//CtHgGnEP0KdxTSBUDDAxiIU425dAwLg3WLONa0adaBdc8XiXcDwIG20B+ePdglzPfoLrgx7BsWbbQJwYLKFenIvYEnNghWeBz7g2Z56fu95nlRsuSeAsPFdX4BQJN236DXeM3dzZ9lJYeJAckJdJuGHDhqkkjBEvrAooX5SBlw3BFggWwQL+xo0byzIHvHh44WHR4DOUEF4+cyQLVxxG/FAEEChXELJ5PSYJY1QL5QulhfLM80wLAy8ciA9zdOZIHKN4jMShmGDFm647vPQYRMCiQCAHrh1tyEigvDCXhXqhLKCoMCBp3ry5XAOULMrG9UJZQtGjTLt14toRoIZ7ijLgAswoQYYz9xoWud2yM1KuIAd3tyOjulAOnrF5r/GM0Ta0I+3cHv4HXOkPUOB225OROF4/+igsWdPljOuFixWWnUmmKBfibF8CMeKemsSJdsBiBtHAkoTbFe8kyAgWoUnC17ufmF4MBEdBSeLe4vrnz58vAxDM0WKwgEEJljWBMKEHnH1+7nifVW64JIGzUrjLaThFwr6+nrRt2xZBXiZhKDy89BjZYoQL5YGADCgUnI8gCczhQaHgfLzAUEx42c0XBX8ReYkXCCP+tCNuBLWYLzvqQiCYqQxMEsb1gPTN72EpI+gFrm1T8PLhunB9eKmbNGkiFhSCi6CM4NbEfBNeelwTlBeUCKwYtMHqxYUygPvLrBfn4R6gjeZcICwXc/QPZYC5PFyv3TrtKkBn7zUGPHbLzki5YvDj7nZkVBfiBWB5p33G4eHh1zxjUzD4c6U/mMRkpz0ZieP1I5If7lxz/hMenZYtW6ZatAg2RL2u9iWQGCxW/GbO5cKNDNcrrhntQxkIboIlfiP6CUgYzwTvtkmspjWNaQ3cA1ynufoC98iV55fd91klV0iScb1I+OuvG3GH+FwQFOSXZ0kYygUuQdMFhBE+5p8wggbMIAnzRUBQCV4YzI/B4jWTfpgknFYR4eUz54ohUAZw65m/mySMlx/kbFrQePkQCAKlYwoGBXjZzZG1+dKarjm4V2ERwKpAvebLi2uHkrMK5DBH5FCIuB6cg2uC1YFBiSNgmUC54L7ardOOAkQbnL3X7lCu7m5HZnWZ833m+VbP2BTU5Up/gKVltz0ZidX1g2jM6G64UxH5bEXCrvQlXC9IvlatWkLCAK4TwLsIpfTaa6/J0i08rxvRT8y24/5+//33YvWac7mwxE1XNMqHLgGRuvL8svs+q+QKSQJnof+4AqdIuEmTL+n9D94VBAb55ikSxpwTfoMlBMUBlxleLFwnFEfbtm1F2cD1iiUB+B7KATmf4UKDexnLTjCSNV94RFTjhcfLlXZeCm5ukDNeLrycWC6BZRS4nrRzwjjGtMahfLBEwVwGASUARQgXGM5La0VBwaBcWFp4iRH1iyAfKASMsnHtcHuZ7nVHgUsWChDHoo1wGZqRwwhqAczc27geM2GC3Tpx7WkHHlAi5hIwU3CMK/facVBjVTYkI+UKYnRnOzKrC+ejb5juWjxjuHXhhTHd0biv6JO4JtxrZ/sD+qzd9lj1BUhm1w/JiIQhrvQlcxkWIpTxvqAtaBfuE4KQkFQDHgTz2BvRT8y2IygMa4jhHUD9IHNcN+6FSfrmM7pR77PKDZckcFYKdzkNp0i4RfPvKDaulSA4xD9PkDBePriF8LIinSWiKrHswRxVw1X2yiuviFLAi5D2XIxWEfWIES6UDpZmmJGPaUfdAMpEWVBSeGEQyYk5PrzQ33zzjRA+ykxLwlBucMGZLihYFAi2gcLCKN78DfVBCZgRkmaSACgZKCIASguKEsejHigTuP6sXFgY3WNkDQWIstFelA3CwDVBEaC9UAaw5HBfnKkTRIcAHNPTgHowv4UIYChl3C8oN1fuNRRaVmWb83mOyhWWBqwJd7Yjo7pMRZ42cAllQAnjXqNvQGmjLLQVfRNlOtMfkIgE98pue6z6AiSz64dkRsLO9iUQjVkf2oD3AoNWtAF1wv2LuWGQJep3fJ+vRz9J23aUg7neunXrygAA7TfvA5QnIt9RhnmfnHl+7nqfVW64JIGz8JxcgVMk7OvjSYmJyCAziUJCA/MECeNlgDWMuSR8BxI0yRKjVcxHgTARTWmOnrHIHr9jFIrRKF76Tz75RF4qq/knuLqR/QjrD/EbXlYQcf369aUsjJ5RFq4nLQmD3JClCEoNI3kAdWA0DbcXrtu8TkRdmlvwYUAB6wMBMpgvQhIDJARBOagb5WB+CS8+2uQoqBcJEOA6M9sJpYB64Q6D+w3/o3xk7oFLzdk6YQHAKsL3uCe4B4ggf/nll4WU8Lsr9xqSVdlQslbKFZGqcHG6sx0Z1WUqcijZPn36iCcE56Mc/I6c1igDHhTcAwRCQYk70x8QDAQr0Zn2WElm1w/JjISd7UvwSIFgETdhvhcgUbwrWK6FZ//1118LucHaRd/DtV/PfpK27RBcL6xoDNxxDMrCtcByB1ma1umNep9VbrgkgbMseMwWnCLh4GB/2rtvlyAsPDjXkjCsCpOETZjkiBcAo0u8bJgHRlo8kKjpHsTIHZGduDHmS4/RNxQQlAUiITGqTvvC4yUEobz11lupo2AAZI/PIHqzvLQkjDrhjsJnKGPUg2uEOwt/UTfqRZ1QdGaaPdM9h2NwLajDDHIxA2CgWKDwrAT1woJBdCYGC7gnqAvXi3JgnaB9IA5HN73dOs2102bkKu6/6aYzlbgr99pu2VbKFSQMi8zd7bCqy1TkUJqweqFcMUiDQkU5KANAm3G8GTHvTH9Avc4+FyvJ7PohmZGws30JhIZ2YnkOyNR8V3CtOA7no924Frw3IGOQ1fXsJ44kDJ2ChCGmVY3j0C6s/TWjnyE36n1WueGSBM6y4DFbcI6EQ/xp/4E9gvQkPJxJuDeTcNwNJWGzUz/77LPSeU1gpI5RMebkEHX5/+ydB5xTVdr/3/+7u7a1rq/rrr2XtSsiItJkbasiuooiiDSl9yIijGKhiNIRFEFQegeRriAiCCMioHQuTO/DJNOYkud/fie5M5k7J8nJJRkyk+fn5+cMyc3NzZ08z/c855x7Li70RxCi9WoCGELAoXWLAMNCA4A5kgVei+UvcQ0kWu0IMrTyARIIXZdoubdu3VreOhGVN16P5IvWMRYYwGswoQSr5ZhrJ+O9keTQbYWJGmgRo8sSxmIAeA+MJSFxYVszqeNxtMTxPqg8cJzXXnutnBSDMXBzXMyX8BwSCHoBUFHg2MzeAvzEZ8C4Oa7DRC9BsO+JvwMaJlhMAVUMtsVnwiINuLwD7233XOvsG40cdPdhvBB/f1Qi6OpEF2WoP4fqvbwrJOwDXayYGITnsA32g4SPz43KD99ZnI9gvg/Yf7B/F5UCHT/AAsjiPQAiXE6DKtJUMN8ls+GASVomoJGEzONGQ8VchQoNFtzjF38zjIdW1ffE+7ND+JvgHOLvgffHdohjrEFtxrH3trp/v1DGM+u0ygCzFBzTcjmExwkIfyYgvKh6QxhfbIAVk18MwyizOTEE4y3o4lItom4KyRABimswUVUjAZgXzGNMy5xogm28gxWvw/6x5CECDQkAY5DmmCpeg/2YAWgKv+N4kDzMcWRz/Vo8ZiZnU0gueG8kdrwPZmeipY7xLnxG3Qv7sU8kERwjqg1UiRh3QpJE4sNnMRspdt4Tr8Hx4zxgiAD7NT+Ted7snutA+8axYB9oaOFx7NNcYjTUn8PXe3n/zbAdqkA8h/fCe2KMGt8VnGfv7YP5Ptj5u1gV6PjxPGLGfB4A9q4UId3vEo4f9/NG4kFFiolYWB0Kxw1IY9ELc9IkcgHghX3gtVX5PbHmBmyLfeM9zO185ZBg/n5QKP6GrNMqA8xScEzLwUG4v4Dwof3SkQrhUApffARMsDMSzdfZCRwTeHhPVYB7y9wWVbjd9zNl7sv8vL7e2857ep9HX/s91XPtb98qhetz6MjcD94/0Pvqfh/sfJ5wydd3CT8BJXM2NZIPlnkE0FAho5ECyGGylTm/ApWn91hoVX9PTlW6fz8okv6GrKBkgFkKjmk5aAgfFACGowHCLBYrtELFiUlG6Go2JyjhloeYHTx9+nR5JYN5IxRcxuO96hSLFaEywCwFx7QcEgj/uktA+OsZNHnKRPpw2HtyhRmGMIvFsgrjy1h1CmOfGA/GRCQkIUzcwqRF7wU7AGiM41u7vlmsCJMBZik4pmUJ4ecFhCeOoy+mfUZLlgaE8D5phjCLxQpW6GJF9zMmGwGymHyEGc4wJiNh0hOuycWCHQAwxmdZrAiXAWYpOKZlhjCLxapSAcSYbITJVLiiYNmyZXKm8ffffy8X9ACkzcU6WKxqIAPMUnBMywxhFot1WmRORMLMZ5gnI7GqqQwwS8ExLQcP4YP7pBnCLBaLxWIxhFksFovFOl0ywCwFx7QcNIQPCADDDGEWi8VisRjCLBaLxWKdLhlgloJjWmYIs1gsFotlXwaYpeCYloOH8IF90gxhFovFYrEYwiwWi8VinS4ZYJaCY1pmCLNYLBaLZV8GmKXgmJZtQPgPaYYwi8VisVgMYRaLxWKxTpcMMEvBMS0HDeH9AsAwQ5jFYrFYrKqG8P4/pCtD+EsB4QkCwkMZwiwWi8WKFhlgloJjWnZDuJmA8FgB4SkCwgsZwiwWi8ViacoAsxQc03LQEP7jj73SDGEWi8VisaoQwt27d6ZZs76SHvBmH4Ywi8VisaJdBpil4JiWg4Jwhw5tqHPnjtL9+veqAOGvBIQ/nTyBPviQIcxisVisqJEBZik4pmUTwhMEhKd+MYUWL6kI4fe8Idyq5Ut03333SPfp24MhzGKxWKxolwFmKTim5aAg/PrrbWno0Hek+w/ozRBmsVgsVrTLALMUHNNyUBDu1LEDHTy4X9o6MYshzGKxWKwolAFmKTim5aAg/MorzQc936zpmhdfeG5d3369ShnCLBaLxYpyGWCWgmNaDgrC3uo/oHc+Q5jFYrFYUS4DzFJwTMsMYRaLxWKx7MsAsxQc0zJDmMVisVgs+zLALAXHtMwQZrFYLBbLvgwwS8ExLTOEWSwWi8WyLwPMUnBMywxhFovFYrHsywCzFBzTMkOYxWKxWCz7MsAsBce0zBBmsVgsFsu+DDBLwTEtM4RZLBaLxbIvA8xScEzLtiHcr3/vIoYwi8VisaJcBpil4JiWA0L4vSGD/kclroRZLBaLxQoVhMd4ILxArxKuCOFYD4THM4RZLBaLFU0ywCwFx7RcEcKTGcIsFosVSpWWlpLL5bI+XEFyG+uDFunsB9LdjhUyGWCWgmNaZgizKgrBW1oifpZan/GSuU2AQNfaF4tV81RSUkLZ2Q5KTEihw/uPUtyxRMrIyKaiouKybUpLXeR05lFSYiodPnCU4uOSKSsrR77Wup8EsZ+DBwyKP5ZAmRlZVOy1H+/t/L0fK2wywCwFx7TMEGa5YVl8klzODHKlH6fShN/JlXqEXDlpREUF5bAVMHXl55ArK8G9TZohX0MlRcHvy72xfK3cNjvJvQ2grSscD16P9wu3i+y6MLQ+GUEuDMYF4XNBiC2Ol4qLAzcyfahEvNbYf4Q++2A8dX38VepU+2nq2LA5fdz3A9q3c68AaJGsVDPSMmnB53Opx7OvU+c6Talzk1do/JCP6ah4bUlxiTiEEjp48Bh9PGwyvfafdtTqwWbUq/7zNLnHEIrbGkslTqc8Rp33Y4VVBpil4JiWGcLRLiSaAieVHNhMJ+cPooLRzahg5BNU8MkzVDijK5XsWSufBxwByqL1k6hgYgsq+OhJKhjzLJ2cN5BKj+8SSatIf1/YDi7MpdKjO+jkrD5iX8/RyRndyOVIsx5hZYnXugTQSzLjqPj4Tio+vJWKD/1ExQdNbyn3AYv3m/7R7X0W/yH8O7y53HtN/+D2HnhTRe/28m/Cu+CN5f7V4p3w9xX9i8exHu/4rqK3wxvK/fP6yt7m5a3CP62r7C3eXkvFP1q82cs/rKHiTVavpuKN3l5Fxd9b/J2XN3xLxesVXmd6pdtrFV4Df0PFqz1eZXqF29+aXu72SoW/gZdR8QqPl1u8DF5a7m9WUElsrGhkpqHEtH77/MpVWkon4hJocYdetOnKm+nYWedR0p/PorgzzqHYS6+mxS1ep+zj8ZTncNK6aXNp8Z0P0v5zL6LEv5wttj2XfrjyJprV9S3KTE6jtNQMGtpvGPW7vSGtvfRaMs48l5LFdmkXXETp99eh4tmzRYM4i06I/QV6P+6eDqsMMEvBMS0zhKNdAp6lR36mgsmvUv779Sn/g4ZUMLyJ+/d3H6SCCc2pRADO5UgXAP5UQPVx8Xhdsc2/xTYNKP+9+lT4ZRcqTT8mKt1CrX1hO1duFpXs+pYKJ7eS+8sfcj8Vjm9OrhPJ1iOsJFdxIRUd+pGcs7qTY0pLckxuQY5PhSfBL5NjovD4l9weJzy2OTnGCI9+kRyfwC+Q42PhUcIf/ZccI593e8Rz5BguPEz4w2bk+OBZaef7wu8JD21KzneF3xGOecbtIU+7/fZTbg/6DznfEh74JDnfFB7wBDn7C/d73O2+j5Gzj3DvR93uKdwD/jc5uwt3a0LOrvAj5Owi3Fm4U2NydhR+oxE5X4cbkrODcLsGbretT8428MPkfE24tfCr9cjZSrjlQ+R8RbiF8Mt1pXNfepBym8N1KPcFj//7AOU+X5tynxNuJvzs/ZTbFK5Fuc8IP30f5T4l/B/4Xsp9Qvhx+B7KfUz40bsp99/wXZTbRPiROym3sXCjOyi3oXCD292ufxvlPixcT/ihf1Fu3VvdflC4jvADt1BubeH7b6bcWsL3Cd97k9v33Oj23TdQ7p3w9ZR3h/Dt11HebcL/upbybhW+5Rq3bxa+6WrKu1H4hqso73rh64SvvdLta66gvKuFr4Ivp7wrha+4jPIuF77lZjrZtw+5UlKCqohL8vIpde4CSr32Bso/40xyXXQR0aWXkuv88+nkn/5MmVdeTRmz51HOgUO0qeGTlH7WOVRy1lnubS64gPL+cgYdufFfdHjVevp1604aUr8Z/X7exVRw5llyX66//50Kzzqbis84g0rvuINKliyh1Blf+3+/OfPkcbHCJgPMUnBMy4DwcwLC4yeMoc+nBgHhitcJx9LMr76kSZ+Op/c/YAhXK6FLNytBVK5vUeGU1lT0/eeyYi36ZqQEbP4HDahowyQqjdtNhZNekcAs/Kwtlfy2mopWjZYgBpCLdywml6hsA+9rsqyoi3/8SlS/olIeWo/y36lTDuHswBAuzUmh3Dk9KWfs05TzyZOU8/ETlDNK+KPH3R7xGOUMhx+lnGHCH/6bcj4Qfr8J5bwnPPQRynlX+B24MeUMaeT24IaU87bwIOG3GlDOwPqU82Z9cgwQ7v8wOfoJ961Hjj7CvR8iRy/hnnXd7vEgOboLd6tDjq7CXR4gR2fhTrXJ0VH4jfvJ8bpwh1rkaC/c7j63295Ljtc8bn0POV69mxythFveRY5XhFsIv3wnOV4Sbn4HOV6EbyfHC8LP3+b2c/8iRzPhZ28lR1PhZ24hx9PCT91Mjv8IP3kTOZ4QfvxGcjx2IzkfvYGc/4avJ2cT4UeEG19HzkbXkrOhcAPh+teQ82HheleT8yHhuleR80HhOle6/cAV5LwfvpyctYTvu4yc9wrf809y3i181z/IeafwHZeS83bh2/7u9r8uIectHt/8f+S86WJy3ih8w9/Ieb3wdcLXXkTOay4k59XCVwlfeQE5rxC+/Hy3LzuPnP8U/se5lHup8N//SrmXCP/fOZR7sfDfzqbci4QvPItyLxA+/0zKPU/43DMo96/C5/zF7bP/TLlnCZ8pfMafKPcvwn/+X8r90/8TP/8kwH0DlaxbR3TypPUr6FNFhSfJ+G4zJTZqQoX33keuoUOJ5s0jV7fuRAKyJQKOJ3r0opw16yhTgLNEgJMeeohIVLXUty+5LryQ8kWl+0fvgbT9uy00tvd7FF+/MZU+8ADRe+9R/pczaPuDjSRwSQC3aOBbZCxe4ff9cnr3pdLMTOuhskInA8xScEzLlSC82AJhX9cJM4RrkEpENZwRR6Wph9xjvoV5VHJkOxUImOW/9zCdXPY+lcQudf9bVLdFm6bJSrY06QAVjH6W8gVITy6KkY8F2heAXJp8UIK6YNRTdPLLrlQ4sYUA8YN6EBaNhpK0I+T44jXKGf0kQ5ghHB4I/+//o7xLLqHiiRPJ5XBYv4U+hW7fotw8Kt63j1y7dxMJ+JXm5FDu8m+o9J//JDrvPCpq244yRoyiokv+LkFKH35IlJpKtHMnlV5/PRWLyjjx0Scp1zhG2WkZcl+0Zw+VpKfT4V2/09BHXqT0M8+R+3J1705FcXF+36+0WzeijAzrobJCJwPMUnBMy4Eg/P77MW/9j0rW7miGcDUXZjBLu8hV4KTinxdQwYeNqWDYI1QsoFv840z3v0XVW7JnnXuSUE4qFU7tICD8kIBp5/LxXH/72jrHDfDju6h42zwqPfYrFc7sISrsh/S6o0tLqCTlIDmmtmYIM4TDC+GLL6aiUaPE9zzH+i0MrNJSOZ4sx4iPx9OO9l2o4Nzzif7+dyp5731KH/g2lVz0N9l1TAsWEOXnk0vAtOCBByWEs2vXoZL4+LJ9uYqLKSU5nca+P4FG3nA/Zf35DLkvGjeOCI0EP+9Xtg0rXDLALAXHtBwIwj67oxnCNVTFJ6nUiJXdyYBr4dT2VBq3S4JYjvGOeJRKDm4RSaFIjhMXzuzuBuinrQRAUwLvK/WwewY0ZjWj+zonjQq/6uXu5taBMFfCDOGqgrCNSthbqIod6Rn065jJFH/lte6x3/r1qeSHzZTVfyCVXHABEarVVauICgupNCGRchs2puIzz6L82+8UDdXjZfvJzsqhuTOWUO9aT9Kecy+W22BfqJDNyWO+3s97G1ZYZIBZCo5pmSHMKhegibHfGV1l13HBuP9Sye7VErbFm78MDsI+9kUnK04QkfsIBsLEY8IM4SqAsM0xYVMAYl7WCdo3fRYdvfkOKgQ0RV6kOXOoND6BTgwaQqUXXFgJwo4GjWQlnH+HG8ISrI5cWrlkLfV9+Hn66YJ/UAHGgz37otzcgO9nbsMKmwwwS8ExLTOEWW4BmvF76eRXPdyTrQQ0i39ZWj6uu2MxFXz4iLs7eu/6it3RAsInp3cq7472sy/rTFM7EObZ0Tw7OlJnR0MAYmGOg4z5i8m4/R4qOOscKr31VqJp0+SYLbq3CyeICvvi/3PPZPZ0R5cejyPHffdLCOfWfUh2R+fl5dPGtT/SwH+/TJsvFMd15tnkAlw9+5JDPgHeL9jjZwUtA8xScEzLDGGWG5oJAppf93RDc3Qz92xnAVmXqFxdBQ4q2bfRfXlShYlZ+z0TswSEF7xNLmdm4H0JgHonBTsQlomHrxOufI0wXydc+RrhKr5OGN/N4tw8Sl6+ko7ffT/li4q08OprKX/seMo/dJjyMzLpZFo6lS4RjdLLLpOXFBUMeYfyjOOUv2UrFYltS88+h/L/+18qEFD++ccdFPPUa/TD3y4TlfoZdPIasa9x2NcRKso+IRq2+VTsdPp9vyKHQ44Vs8ImA8xScEzLDOFoV2kJlaYcppOzestuYznTed5bIskvFDARCXb3GglgzIQunPJa+SVKu74tv0QJE662zZWwDriv/T9IGJuyBWFTvGLW6XWlVbH8GStRhcnWFa9O1aewYparqIic27ZTYu26VPCXM6lIVLVH69Sn2Dd60Pa+b1PsgBgyxk2iou07qKiWqHrPPJOSrr+ZtnTtR7GNnqACAWC65BIqGTuW4vb8QUNf7kobL76ccv/3z+59PejeV2z/IWQM/5iK5s8n54bv/L/f+MlUfOKE9VBZoZMBZik4pmWGcJTLdTJPAHQBFQx/lPIH3ydcyw3QYU2E/y1dMKmlvKyo+IcvqWDUf2Tl616EA4t11JNd0oCvnAmtsS9cJ1z2/qcCYRYrwoTLg5wjR1HRxf9HLpHLXCIPnkRle/4FwrgG+EIquvMucv32G5UOG06uq66Sk6zyzhPPn3U2uc49l1wNGlCJeP7Ir3vpq4eeoIwzzqq8L+znb3+jkhtvJGe3HoHf79gx66GyQicDzFJwTMsM4SiXhDDGeye8JK/bVRmVr7m2c/Gm6VQ4+VUJY3RFn5zTn0qPxorKAdWR5r68JnChW/vkkqFUMPZ5/WUrWaxIlcNBpVOmEN19N9E116hdrx4RoJiQQDRsGBEW4sDjN91E9MILRN9/LyvyoqwscnwyhkrvvLPyPkyL9yl9e3Dg94uLsx4pK3QywCwFx7TMEI52oUtXVLCoQF1ZiWoDmp67IcltBZBLkw+QK/2Y1w0csB50EPsyhTWpnZllkA/qBg4sVqQJY6/o+sXlRYahNq7/RXe3uS2AvGsX0YEDRMnJ7tnY6ArX2Reew0Ic/rYx348VLhlgloJjWmYIs+zJsxgHi8U6RSGOMAGM46m6ygCzFBzTMkOYxWKxWCz7MsAsBce0zBBmsVgsFsu+DDBLwTEthxDC0z0QfpchzGKxWKxokQFmKTim5XIIj2YIs1gsFosVpAwwS8ExLVeG8HyGMIvFYrFYmjLALAXHtMwQZrFYLBbLvgwwS8ExLTOEWSwWi8WyLwPMUnBMyxLCzzWjceMFhD8PAOE33mjfvF3b1qXdunWifv17yQ1MCM+YOZ0mThpP773PEGaxWCxW1MgAsxQc07I3hD8TEF7kD8L16taO2br1R3I4TtBbg/ozhFksFosV7TLALAXHtBwUhOsKCM+c+SUtW7aEBrzZlyHMYrFYrGiXAWYpOKbloCHcoUM7euKJx6hvv54MYRaLxWJFuwwwS8ExLduAcFt6/PFHqU9fhjCLxWKxol4GmKXgmJaDgjDGhPv1603t27fliVksFovFYlUphOvVifnoo+E0YsSH1H9Ab4Ywi8VisaJdBpil4JiWg4Jw/fp1Y2bMnEaLlyygAW/2YQizWCwWK9plgFkKjmk5KAg3FBBevnwJbd+xlQYO7McQZrFYLFa0ywCzFBzTcnAQblgvZt361XTo8H4a+BZDmMVisVhRLwPMUnBMywxhFovFYrHsywCzFBzTctAQXs8QZrFYLBbLlAFmKTim5aAg3LhxfYYwi8VisVjlMsAsBce0zBBmsVgsFsu+DDBLwTEtBwXhJk0A4TV+IDxOQPgdhjCLxWKxokUGmKXgmJbdEH5WQPgTAeFPTwXC0xjCLBaLxYo2GWCWgmNatgfhQwxhFovFYrGIIcxisVgs1mmTAWYpOKZlWxA+yBBmsVgsFgsywCwFx7QMCDcTEB477hQgvPPXWPpyxjSaMHEcDX2PIcxisVisqJEBZik4pmVvCE/57FNauIghzGKxWCyWrgwwS8ExLTOEWSwWi8WyLwPMUnBMyzYhvI8hzGKxWCwWQ5jFYrFYrNMmA8xScEzLDGEWi8VisezLALMUHNMyQ5jFYrFYLPsywCwFx7QcCML9+/cp6NypQ3bbtq/OZgizWCwWi1VRBpil4JiWA0F406bvqKAgj7p06UgMYRaLxWKxKsoAsxQc03IgCK9cuZyOHzeoS+c3GMIsFovFYllkgFkKjmk5EIT79e9NnTt3pNdea+kF4YMMYRaLxWKxKMwQfv2N9tS06dP0aqsWDGEWi8VisSwywCwFx7QcCMJvvdWfevfuQW3btGIIs1gsFotlkQFmKTim5UAQ/mjUcBo/YSx16NCmekPY5XKx2TXGVSnre7PZ1dlhkAFmKTim5UAQnvnVl/T9xg3UuVOH6gnh0tJS6eLiYiosLKSCggI2u1oa39+TJ0/K7zK+02FKKGXi2GHXFIc5dgwwS8ExLQeC8LLli+nQ4f3Utav3JUqVILxDQPgLAeGxAsIxEQPhkpISeeLxR8jPz2eza4TNpGImlHCIY4ddEx2m2DHALAXHtFwO4Y8FhCcJCM9TQrhb107VC8JIIpxA2DXZZkIJYTKR4thh13SHOHYMMEvBMS1rQ7ibF4QPRDiEOYmwo8moWEPVvcaxw44mhyh2DDBLwTEt60K4uwnhdREOYU4i7Gh0UVHRKScTjh12NDoEsWOAWQqOaVlCuNmzNGZsAAh3DwThL7+Q06iHDj19EEbXAlo21pPMZtd0A56AqF1x7LCj1acaOxRCCE+eMokWLPQF4c7VA8LckmdHq0+la41jhx3NPpXYoSqCcI/uXSIbwjiBmPFmPblsdrQYELWTSDh22NFuu7HjkQFmKTimZW0I96gGEMZsN+vJZbOjxXa71Th22NFuu7HjkQFmKTim5RoFYe5OY0ezzUQSbIueY4cd7bYbOx4ZYJaCY1q2B+EDDGE2OxKNbuVgEwnHDpttL3Y8MsAsBce0rAvhnj26eiC8jiHMZkeq7SQSjh02217seGSAWQqOaVkbwj0Zwmx2xNtOIuHYYbPtxY5HBpil4JiWtSB8iCHMZlcL20kkHDtstr3Y8cgAsxQc0zJDmM2uQbaTSDh22Gx7seORAWYpOKZlXQj36tWNIcxmR7rtJBKOHTbbXux4ZIBZCo5pmSHMZtcg20kkHDtstr3Y8cgAsxQc07IOhA9WhvAfDOGa4rw8ys3JoZy0NMpJSfHt1FTKPXFCbp8n7MzMpBOJiXQiKYmcWVny8Ur7Zle57SQSjp0QGzElYsUhYsqRnk55ubllz3HsRK7txI5HBpil4JiWbUB4NUO4BhkATt6xg3aPG0c7R4zw6d/GjKH4TZtk0sg6fpz2f/01bXvzTfr5rbfo0Pz5lJ2QUCHZcGI5PbaTSDh2QmtA9tjatTJmfv/8c9mAxeOID46dyLWd2PHIALMUHNMyQzjKjYRxcM4c+qZhQ1p8992VvOj222nulVfSQvE3/W30aMo4dIh2DhtGS+69l5bWrk1La9WiJffdR3smTJAtfyQQZ3Y2ZR454q4COKFUqe0kEo6d0DnP6aTkX36h1U88QfOuuYZW1K9PmYcPy+fQo8SxE7m2EzseGWCWgmNaDiGEpwoIj2EIn2ajRY2WN2CZLVrdSArWbSps73BQ+r59dGjBAtlC9/a+GTPo50GDaM4VV9DCW2+lAwLWqbt2ycTyTYMGdGz1ajq6YoVMKKtE0sk8elR2w6EK2PDyy3T0m29kUrG+Jzt8tpNIOHbcDjZ2KllAE6/7eeBAmnP55TTzvPNkQzbj4EH5XPqBAxw7EWw7seORAWYpOKblcgiPEhCeKCA8lyFcnY0WNLrAEOxbunWj7Pj4SttYjWSDbmZUxaYdGRmUumcPbWzThhbcdBNt7duXMkSLPmnHDtmS/+H112XXGpLH+pdekskkTcAcieb71q3pG/H+8Zs3U66AvPX92OGznUTCseO2ndjxNmLo8OLFtOjOO+lrkVhnnn9+GYQB+KTYWI6dCLad2PHIALMUHNNy0BBeKyC8nyFcbhFceSJ4c5OSKDcxkXKTkyk3JUU+lieCUramq7BbCS35XR9/TPNvuEG2qLOOHau0jY4xUWvPxImyO3rdc89Ryq+/yqSQIiphdKGtb95cQjrlt99o9VNP0bdNmshtdk+YIJPKLx98ICefVOVnZ9tLJKctdkxHSAydSuwAsogHxMq8a6+lVY8/TrMuvbQChDl2Itt2YscjA8xScEzLIYPwdA+E340mCKOCPHKEMmbMoJR33qGUwYMpddgwShszRj6WtXIl5YjgcsbFUZ6AWl5OTtgDyzuRrA8ykZiW41o7d9LKRx6hxXfdRUeWLXPP4hTPZRqGTCJo7f/Upw9t6dlTJpptAweSIT4vXrNWJKLU3bsrTjZhV4ntJJLTEjumIyiGbMeOOB5Ac+eHH9KCm2+mNc88I4E677rryruj8zl2It12YscjA8xScEzLJoRHjwkGwvv/oDcHKiA8voZDGMGP4BAuQOsd40fTplFihw4U36IFxYvAjX/lFUpo1YoSWremhHbtKJzPSqQAAIAASURBVLFTJ0oeNIjSp06lE1u2UC6SSQgvS8DkDXQdo2sL3cVoXe+IiZGt8TXPPkuJP/8sH8dkjxOiwtAJbkwgQWt8wS230ObOnSlLJA/zeDFOdWzVKpks5OQSYSSWQ4sX0+YuXWjpAw/QwfnzZZe2db/s8NtOIqmS2DEdQTEUqtgxx3IRC+huPrRwIR1ZskTC3BvCHDuRbTux45EBZik4puUKEJ48keYvUEF4nxeE10YhhM3E4XRQgSOnzHlxxynl7bfdiePFF31bPJ/w6quU2LEjpQwdKlv3TgG2PEy8OMVEIsehRMCvfvppWtGgAS1/6CE5hvvVhRfS7Msvp2V168rHv33sMfp15EgJWOs+KlgcD8anMHlk0R130LE1a9zXB3s9L2dwiuSU+NNPlLh1K6Xt3SsncSGp/NSrF6X9/ru87AKJKzcEn5GtbzuJJKyxYzoCYygUsQOQA7IYy0WjNfbddyXUjW+/pfk33lgBwhw7kW07seORAWYpOKblwBBeVA7hxo2jDMJ57tZ6gSVxlCWQ+DhKef89dwvemjRUFq1ebItWP7restetk2Ng6JKr9N6aRqv5wOzZtFwkjAXivCMRYDYzJoV8fcklsnsMj2MsavvgwXKBAOs+vA3gYmbmwttuky12eXmFKhGIx9BtjeuMMda1tmlTWtm4MR1etIj2TplCW/v1o+1Dhsh9IXnx5RZVYzuJJCyxYzqCYygUsYMubFxihEv41jZrRqmimgbcJYTNSvjAgYoxxLETkbYTOx4ZYJaCY1pmCCtc4Gm1+0ocpvPT0yhbBEpSz56U0KaNu/tMtNbRnRb/0kuVE4i3kUhEqz5NBHDOnj22W/ToIsN4VHJsLCVu20Zx331HW/v0oblXXy0vfTBWrZKPY1YzgBrosgvzWkYkldj331e2/sssjhet9lhRmSy9/37Zhf1jly4y8eDfS+65h5bVqSMTnYO72KrEdhJJKGPHdHWIoVONHVzelyAq2hUPP0zzrr9eLs6RsnOnBPEf06fLbu1FojGL/aJbG9uXvZ5jJ+JsJ3Y8MsAsBce0HByEG0YBhNFyF8FmTRZlRlLB8whIYYxp5WzdSpkLFlD6tGmUNmkSpX74ISX17SsTBBKLTChowVuTiHgMSSf57bcpe9MmOfEkmCRSfsx5MqEgSaAba9eoUe7JJSKJoWsMj0v7GNPyNiajYGYoIHxk+XK/1yqiakaiQjfe9yJxHl66VCYQzPg8vn49HZw7lxbddRd917KlvCTD+np26G0nkYQsdkxXpxg6hdhBFYzV5LA9ZkLjWnpzkRt0a8+84AL66qKL5ESs9eJY5dwKz2s5diLPdmLHIwPMUnBMy0FBuGHDejUWwrLLBy13h4+WOxIHAjEPzisPdARxTg7lidZqLi6zwBrLIpidInByRKs4c+FCShGtXEwuwWQTZSIRLfqkHj0oa9ky+dqgkojFtmd45nsusxCteEwuwaVJuGxClXzktnnuxQeQQFbUqye7zgDtxaIFj+X40MrH8xhPW9mkSdmqQezw2k4iOdXYMV3dYyjY2MF1xRjP3diuHW0Q719mAXBcdvT1xRdLOOOypZ/ffJNOiJjA6zh2ItN2YscjA8xScEzLDGFYBEVBLlrulZMHWuruxBFkUCOxiP3JxCKCKmfbNtltltilCyWoWvUicPEcqgFcLxn0+3mM5e92jx8vLy3CQhtZcXGVtvFljGVh5awFN94ol7HEykHWbcreR3yu/TNn0vIHH5RdaUhYxzdskIkEM6qxChe6+dBVt/rJJ2VVYd0HO/S2k0hOKXZM14AYCjZ20EDFa7LFdqhWTaPrGUvB4hIlTG7EBCx0e5vd2Rw7kWk7seORAWYpOKbloCBcv37dmKVLF9HWrVtqDoQRqKquM9Fql7M5gwxkpT3JBIkBl1jgOshE0XpWJhERhJmLF8vFCuy8N7qPEdCYpYlxKbkmrWI7lc3x4PnXX0/fiSTnrxsMk1oOiwpFzujcu1cmGMyqxiIFmMiCax83d+woK+pt/fu7Fx9Q7IcdWttJJLZjx3QNiaFTiR1vm13NlWZHm+/DsRORthM7HhlgloJjWg4awl988TnNnTubBgzoUyMgLGduWpNHLlboUXfDnpKRSHJyyClatpmzZ1Ni166VL81AEsGSeWvWyAqg0j4CWbwHKtqc5ORKt1ELZBPCWLYPszNVs0FNm9dYyjvAeFr48mYQ8+fLZILF6XHZBS7dSNq+nZfgqyLbSSR2Y8d0jYmhU4gdb2PWc9zGjfLyplWoZI8cqfA8x05k2k7seGSAWQqOaTkoCNerVyfmgw+GUkzMYOrXv3e1h3ABJpBYu8+QPPL1W8+2LIIQ41ZZa9dSUp8+lS/PEEklWbSAc2Jj3SsEWV8fJsvZogK86E6T3WfBJiEkMZFM0vfvl7c9RDccVglCUqq0LTsstpNI7MSOaY4hhT0wNxf6qDAr2pc5dk677cSORwaYpeCYloOEcO2Yrl070QsvPE99+/Ws3hCWMzgrJ4+CcCcP02jRi9bwCRFwSf36VWrNJ7RsSakjRsgFCWSXnvX1kWwkSIzloZUfRHcg+9RtJ5EEHTumOYZCb46d02Y7seORAWYpOKbl4CBct3ZMixbNqXbtWtSnb4/qC2Hx5VYlj7C33q32JJHs776TMzsrXBfZvDkltm8vJ5lgIftKr2WzFbaTSIKKHdMcQ+waZjux45EBZik4puWgIFxXQLhnz27UsmULUQn3qrYQrjSGhQkk4Ri/0jFavmlplLlkCSW+8UbFiSYioeBaScfu3bZWBGJHn+0kkmBixzTHELum2U7seGSAWQqOaTkghJcJCB/0gvDixQtpy5bN9ObAvtUSwljJp8IYlpzBeRpa8N5GEomPp/SJE92rBXl3qb32mlzAANdOVnodm22xnUSiGzumOYbYNdF2YscjA8xScEzLQUH4mWeeGPzZlEm0ceN31RPCGGOxXEohW8eRMPYijgOtdTm25d2lhpZ8r17k2LuXW/LsgLaTSLRixzTHELuG2k7seGSAWQqOaTkoCI8bN+78V15pPujJx5vE9OvXq6gyhEfLF0YshBVdaJjdWWm702SMW2H8KqFt24ot+TZtKHPOHDn2ZX0Nm+1tO4lEK3ZMcwyxa6jtxI5HBpil4JiW3RBuKiD8kYDwBAHhOb4h7K3+A3rnVzcIW8exIqYFbxor8Bw8SMkDBlRsyb/8srzZOW5sHlHHy44420kkOrFjmmOIXVNtJ3Y8MsAsBce0HD0QVs3mjKAWvGnZkp81S45jebfksZD9ia1bq/6aR3a1sp1EEjB2THMMsWuw7cSORwaYpeCYlkMH4elTaZyA8DvvRiiEK3WjRVgL3mNcH4hF67H0nvcsTySUYLrTsCqPE2NkDof8yfckjQ7bSSQBY8d0lMUQO7psJ3Y8MsAsBce0DAg/KyD8yeiP6NNTgfC06gbhCL54H4vVpwwdWmEVICxYj4UH5B1iFK/xNoCbmppKW0Wr/4cffqADBw5IGFu3Y9c820kkAWPHdBTFEDv6bCd2PDLALAXHtBwIwktrBoTNO7xUjwSC7rSM6dPlfVLLutNEix4zPHP93FRBvlYAOC0tjb788ku67777qFGjRjRv3jzKDGYNXXa1tZ1E4j92TEdPDLGj03ZixyMDzFJwTMvRAWF0mXknD+HTtrCAhvOys+Xi8wnt21ca03Ls2eP3Mgt0PcfGxtJ//vMfqlOnDn3xxRcUHx9PuRGcMKvSOA/oJUhKSrLdO4CGDho1OK/YTySdWzuJxG/smI6iGGJHp+3EjkcGmKXgmJajA8LWbjS5uk/kjWWZxoLvWHherv7jnUA6dKATP/zgd2JJtkg+GzZsoKFDh9J0UQkcPHhQgtm6XbQ6OTmZxowZQ4MHD6bff//d1rnJysqilStXUpcuXejdd9+VILZuc7psJ5H4jR3TURRD7Oi0ndjxyACzFBzTclRA2L3Cj3cCicwJJWXGpKpDhyixU6cKCSShXTvKWr1atvIrvSbfXaEdPXqUmjdvTpdffjndcsstNG7cONk9bd02Go3zg/Hxhg0byq76JUuWyEaLdbtAxvnEeb3mmmuocePGdMRyq7rTaTuJxF/smI6WGGJHr+3EjkcGmKXgmJajAsLVrRUPO48fd98r1TuBtG1LWStWUJ6oxKzbw+he/e677+i6666js88+m/76179S06ZNJSTM2dLHjh2j42LfGRkZ8vfDuG3hiRPue5yK1ycmJsrHUEEbhiG3w3MwfkcXLPZ3SCS4uLi4suetxxJoe3ThAmY4BrwXtklISJDH4u8583N4Hye2S8f9X72OQ/VZUlJS5GMjR46UlfCePXvkdv6O0/wsgLV5PHjdsGHD6NJLL6W6devK1wT6vMGeH2yj8zmttpNI/MaO6SiJoaoy/obhGtLAvtFbg14f/MwRVT9+x09/351wOhTDQDpGzCBX4LwiZoP5vHZixyMDzFJwTMs6ED5Q8yAc4a14YSwqkNS9e8VLLEQCwSL1vm5UDsigGxpVMCZkXXHFFXT99dfL7mkEIED0otjPK6+8QlOnTqX//ve/spLDGDK+sDt27BB/6F708MMPy0oRAMcELwQw4LB48WLq3LmzfA3Gm1u3bi3HnBFY1i87Eoyv7QEWNATQLfzCCy/QAw88QI8++ij17t2btm3bJqt51XM///yz3O8vv/xCffv2pfr169M999wjt/vss89k4OE4EOT4LH369CnbBp9lwoQJ9Ntvv9GTTz4pq+FVq1bJz+brOM3PhXOzWlRPOHfY17///W957i666KIyCPv7vMGeH2yPv1egz2n9+8N2Eonf2DEdBTGEBI4Y2b9/P+3bt0/+xHcRcYXvlK9zbsfhGtLAMeI7PXfuXBoyZIj8uW7dOnr//ffpjz/+sDX8EgqHYhhIx4gN5Aqc159++knGkXUbX7YTOx4ZYJaCY1qOSgjnV4dWvEggqlZ85vLlylY8gg9drU2aNJEQ/vDDD2XSxu/vvPOODAIklZtuuonOPfdcuuGGGySk77//fgkmVFovv/wy/eMf/6Cbb75Zwg+/33777bR06VL55R4/fjzVrl1bGq+75JJL5N96uTgma7cuKllf28+fP5+++uoreSx/+9vf6MEHH5QQAhhRyc+ePVv53JYtW+RnaNGihaxCcXxXX3213C+OecqUKfJ9UTm+9NJL9Pe//11ug275u+++mz744AMJ8htvvFF+dswaR/Xp6zjxuZAskbwA3gsuuEA+d+2118p9n3nmmWUQ9vd5gz0/2B6Jyt/nREVs/Q7AdhKJ39gxHQUxhJ4GNLQQG+hNwvfmsccek5BEQkdPjPU1dh2uIQ18zwD3hx56SH6XYDTgmjVrJuMilA0JXZu56VSHgXSM98FnRowizyB+rdv4sp3Y8cgAsxQc03JUQLhGjWetWaMcz0KCWLFiBV111VUygXz77bc0atQo+uc//ymDHF9OtO7x5fzLX/4i4free+/JCg+tcCR+M9Gjxbpo0SJ66qmnJGx69OghK1fACNsBlPiC33rrrXJ7dO+iq8n7eFA5+No+JiaGRowYIfcNyACOa9eulS12VCITJ05UPodupmXLlsnjxBcX+8DxA1YANipcfEZsg/Nw8cUXywoAlT6umcZz6ErGOQDY5syZI5Ohr+PE58LnxmNozOA90bjBeX766afpvPPOK4Owv88b7PnB32XWrFl+P6evpG0nkfiLHdPREEOAVIMGDeicc86RIEbjCH8DfA/x98bfC99PX8M5/oYPzB4Vf0Ma+E5g/6i+AQ+zV8d8zOxe9TXUgi5f9LAsXLiQ3n77bZo2bZqsChG/ZoMSn9PfcVrPCR7TGTbBMWA/+J7jWLEdXmN+DuQY72EgnDPzNTh2vMY8FnwGbI/jw3t6d2EHOh4zx5nxzRBWvKGmQwphBGTFBBLZrfiyFX98zexUtMjxRe3Xr59M0qiWAK/+/fvLLtMrr7xSBiEqXnxBL7zwQhowYEBZAgGIAD58GVDdobWKxIBtAQVUyAgcVI5dRWXx+OOPywSFyhD7B1RRaZcdvzi3CCxf27/11luyusZjOBYADsBH1zcCClBSPYeAQ5cyjglJEt21eJ9JkyaVPQbYosLEv9EYQbc0koRp7yBFxY2g93Wc+Fw4R6hYsD9U0HhPJDAkUDQUzATq7/MGe37QBQ3Y+/ucu3fvViZNO4nEb+yYjoIYMiGMc4zYwXcJDVnEBRp1+L4899xzPodz/A0fACyBhjRgVKz4vm/cuFHGJsCPoRQ89uOPP8r9+BpqAQABIzTgXn31VTmsdNttt8l9Tp48WX5vgx3mCDRsgu0BU3wufB7ExRNPPCF7dl5//XX65ptvJAgBTO9hIPRo4TXPP/+8bHSixwG9VTgW9JLh/OP4sD3yxa+//ipBHOh4GMKRDGHvNW8jPYGIgM4W1Z/yGsfdlW9OjkBA9yW+kGeccYaEF5IGulwxQQvJHUGLpIIvKFrfM2fOLFvAAxAeO3asrBzRVY1Wf8uWLWWyQTCjmsQX+q677pJfblyD3ElUGBhvxmsw9uQNGSQPVOK+tkdrGAkH3WbYP47p/PPPpzvuuENWmUgGqucALVTpSJLorgaI0IL//PPP5WPo2tu8eTN98skn8ouNbdDwQIVgVhDeQTpjxgwZ0L6OE58Lxzl69Gi5f1SqaIwg2QHMeA0SKM69v88b7PnB32r48OF+PyeSkmoyj51E4jd2TNfwGIK9IYzED1iZDTCcc1SW+O74Gs7xNXwAAAKc/oY0zOoYDUfsF41Uc/4DtkVDGjEBKPsaasF3LNTDHIH2h8aHOcyFHgQcO84N9o3v8jPPPCPPK+LOexho165dFV6D7z4KCEwmRcMbx4VzgVyG5wcNGiQhG+h4zEKDIRyREK5mq/0IQOiu9oMvGr5wl112mWxZo3JFK7Rdu3aytYhuU4zxIvEjmVi/oPiJLiwEOr7QAB3GwLZv3y5b3xhHRVcSvix4PbqqAS8EGwLHChkEiglC1fZmyxZJBxOxPv30UxlweG/AB9BRPYfqcMGCBTJA8RlQjeA4O4rEis+NoMRrUbGgGx6JBgkQiQf7QyL0DlJADfv0dZz4XOgmQ2WB/eE1qMjxnm3btpUJAgkUn8Xf5w32/Lz55psyUfn7nEja1u8BbCeR+I0d0zU8hmATwmj04SfiCA0vgBMVMCY44u/lbzhHNXyAGATM/Q1p4O+J7y4az/ib4/sACKPKRlzi+4fHEKe+hlrQyAz1MIe//ZnDLGbDFg1+7AOf7eOPPy77fmPp3L1791aAI2LGfA3OAxod3bt3l+ce5xvd6KiisT9853H+0WsV6HiQsxjCkQjh/Dz3RJKMdMqLj6O848coLyVF2RqOBMt1b0XAeK97G491b4cNU657i8oRCRqBhFnRCEw8hm4iJHi0JBHE6CoyYeL9BUWViNbss88+K78QgAG6sNBVhNb7119/LWdZAoYIEARGvXr1ZGtcVemhdYyg8rU9AgywRXJClxQCDO+L7dEaB6BUz+E4AFNcB43H8LlQIeN3JCZMoEGXG5IZurGQ4JD4MEkFvQRoTZu9ASZQA30u7A+tdiRKtNqRENFdj/dDAjErYX+fN9jzg54C/A39fU7v/XnbTiLxHzuma3YMwSaEzzrrLJn4cd5hdOsCfiY4fA3nAASq4QPEXM+ePeXfz9eQhgrC6FpGA9iEMICD2MA+VUMtoR7mCLQ/c5jFhDAeA+gxdwMNaJw7fBZ8160VqnkukbNQxaOxi945nA98VlT9yF/olsax4b3RQAh0PDhfDOFIhLD4MuWKL/SJDespFd024suYLiokpwii/NwISyIYyxJf0MQuXSrdASZDVHjWO8AgUJAMMGZ05513VkjQeA7BjZYmnkN1jGQOiJhdSeZ+kEw2bdokKzyMIyFZoIWJsZo1a9bIiV2Y4IH94HnsE5czIYGg1es98cgcJ/K1PQIVFS5+RzcYjK5ZJDYADWNCqucQqDhOBFr79u3lvpGM7r33XgkuNCSQjFBBIPBxTtDNhW1q1aolu7EQ/AAezgEmcOE1vo7T/FzoosMx4XUIcDyH8Xe8LxoJOC5/nzfY84Ptkcj8fU5VVzRsJ5H4jR3TNTiGTJsQRlJHgkdDEYkcjTAA0YSNdTgH3w98nwEL1fABkiwumcFPX0MaGPbA46gcsX+8L+IYM4mxDcAE+KB6xX5UQy2I51AOcwQaNjEbl+Z5AUAxxINzhc9iNihQCOAcqiBsvga9CWjo4Hm8DtvjMVzZgfOBPITvfaDjAfwZwhEIYbmE3c6dlCQSB+6kgpt9Y6wo/YsvKBetecVrTpflvVBFoqh0L9Q33vB5L1QEIBIIQIkvrneCBpQACTyH7hz8BJiti0jgd0zawMQogBAVI1rKSA74ImM/qK4RXAggtErRmsfzCEQrFPBvX9vjGNGiRbcSLjvCe+F3PI/PYs5Ytj5nvge2wXHicVQDCE7s07z2EJ8Fx4zPjfdGYKI7DO+JxIJjMM+BzufC/rAtzp35ftjGnJmKffj7vMGeH3P7QJ9TZTuJxF/smK7pMQR7jwljdjH+JvgemX87X5N+EDfo1vU1fICGL+CJ52DVkAb+7vj7AjAACt4fQ0GoBNEoAIQBKQDL11ALvk+hHOYINGxihbDZeEDjBPFmvo8/CHs3OLCdCWG8Ho95QxiNhkDHE+UQ/lxA+BMB4cGRB2Hxh8gSVQ+uESwLSpFEEkUlgsSCBGN9zWmxCHZcVpE8cCDFv/xy+bGK35NFBYQVgKpiMgygY4JF9ZzqcV/2t735PmZXmu5zOvs2jef97SOYfZnb+NuXzn6C3V5nG9N2Eom/2Ck7hiiIIRPCqM6w6A0abd7P+4Iw/j6AqK/hA3STopfJ35AG3hsNrg4dOshGAN4DM5exLV6D+R4Ya8Uwha+hFjQIQznMEWjYxAph87wEA2Hz394QxutUEMb7BDqe6g3hkQLC42sohEX1k71hAyW+/nqFljEmbaR/9pl7jMhHYFal0U2WKb6IuJaxwnG2aeO3G43NNm0nkfiLHdPREEPmYh3o9sfVAqgEvZ8HaM2hDOtwDqphf8MH6H72N6QBgJors2GiFGY9Yz+4SgFDFYAtJiKhYYAuaszVMJemxXYYasF7YD+hGuZA4yLQ/vCe1vMC8GFf2AbDQOhCRsXuvQ0g6/1v7AfbYXu8zjxnuDIB27Rq1Ur+fQIdz07RIPT1NwpkO7HjkQFmKTim5aAg3L3z643atW19omuXjoX9+vWSG1QHCCM5OI8elS3hChM1RIswsVs3v11UVWZRrTnQ+hswoGILXlQbST17Et9+ja1jO4nEb+yYjoIYQo8Jkjy6ZM3FL7yfx/CA91CGtUfE3/ABtg00pIFtAA38G5UjwIWFQfBvc1gIx4TGAapGc74DJiyiKxrPwaEc5tDdn/W8eD+GyhiNFO9trP/GfrAd/o3H8Xo8hvfAYwCwzrCPdbjJ+jfyZzux45EBZik4puWgIFyvXp2YHTu2UUlJEb01qH/1gbAw1orNRHea5bpBjG+lfvghOcUfE11Z1tdVidHdKFqo6Z9+WvGSChwfKo2pUynXsuISm62ynUQSKHZMcwzp2d/wgc6QBuxvGwAM48VYHAPd1ZhdbO0693cMwWxjZ9uqcDiOx07seGSAWQqOaTkghJcKCB/wQLhu3VoxM2d+ScuWLaEBb/apVhCWY0VoyQ8ZUrkl37YtZcycSbmiNVjlXWri/fJEyzZr+XL36j5eszllC75PH3L89pvfFjybbdpOIgkYO6Y5hiLCqPwwYQvXKqNb1pyRbN2OHZztxI5HBpil4JiWg4Rw7Zhu3TrTiy/+l/r261m9IJzvnlySvWaNez1Z70BFEuncWU48yUNruaqSCJKHqC6yN26UiwggYVQ4pnbtKHPePDnbs9Jr2WyF7SQSndgxzTF0+o0uayyAgYU3sEIcqmBfVTNb33ZixyMDzFJwTMtBQ7h161bUoMHD1Kdvj2oHYdllJVqR6VOmVLp8QbaYu3Wj7FWr3JdchPtL7UkeJ378kZJEq7ZCZSGc0LKlu4tPVB52uvgQlBhjwfiJ9bIlds21nUSiFTumoyiGItWIbXRJI74xdsoADo3txI5HBpil4JiWg4JwPQHhfv16U/v2bUk1MWvsOAHhdyIYwjAmb+zbR8kxMXIFHVUSyVy8WI4vhS1wkchEksJs06R+/SolD3k5hXg8Z8cO25NdMIkjHPcrDYfRQEDrvrollEg8bjuJRDt2TEdJDLGjy3ZixyMDzFJwTMsSws82pY8/GUmTPg0E4Xp1YoaP+IDe/2Ao9evfuwzCv+zcQV9Mc0M4JtIhnO++3EK2nhG83rMoPUkEi7xjIgeuN5S3PAtVgkXLXSQEJ27XNXeuTFbK9+/aVVYT8nIKm+8drvuVhtoAGWZq4nICXF4QzE24T6cj9bjtJJJgYsd0NMQQO7psJ3Y8MsAsBce0XAnC8/1AuH79ujFTp06hWbNmUv8B1RfCMpBFcMpWdM+eFceR4ObN5XWFKe+8Q9nr18sWvbz1md1gxvthyn1yMuVs20ZpI0dSImaYKt4XY22ZCxcG3Z2HSkznfqWY1GHeR9QwjArT+AEWwNvcB8CN6wox7R+vxfbB3P8T+8P+0SWuuvcnjOdwGzZcH4gFB7AUn3m5hL/XmpeTBHM85rnydx689+vr3qj+jhufGfvw3j/25et+raG2nUQSVOyYroExxI5u24kdjwwwS8ExLQcF4YYCwsuXL6HtO7bSmwP7VV8IwwhqARy0lpN69KjcmoZbtJAt+rTRo+nEpk3kFBBA4pGrA+kEN679w7V9IiHnxMbKtXbRQsdYVYVJLTBa70geonVvZ4apeaG/r/uVYrUZXBOIC9uxID0uZsd9SLGEnnm9HyCHOyjhnp6469Kjjz4qb7aAi/sBk2Dv/wmI+bv3J8CH1+JYsPAAVu3BdljfFvDz91o8H+zxAL6wv/Ng7tffvVH9HTfgHMz9WkNtO4kk6NgxXcNiiB3dthM7HhlgloJjWg4Owg3rxaxbv5oOHd5PA6s7hGEziYiWerJI2srARou+VSt56QNa9ZhpeWL7dtkdhkDHtYe5qHKQWIRzxf7QWs8Vycaxa5e8rjJVJGfMHE149dXK+4dF8krq3p0ylyyxlTwAUFx47+t+pQ8++KCcTYlbs2E5N9wUAZDF77jMAUvBAUC4SwsWdsc6rHgNwAeIYX1ZrHAT7P0/AW5/9/4E8LBqENbCxX2Qcc0jwIU7vaD69PdaVJ7BHo9Znfo7D9b9qu6Niv2ojhvXawLAwdyvNdS2k0hsxY7pGhJDbLad2PHIALMUHNNydEMYRhLBii6iOsKtz9CFpgxyPCaSK55HMkkSFSJmXqZNmkTp06ZRxqxZlPH117KlnvrRR5T85puyVY61duWC9z72iaSSLCo1dOvJxQRsJA9UZwCor/uVossUi72bQEC1ixV3cJchgBrLwGElH9zSDP8GQACUtWvX0rp162QXtfc9Q3Xv/wlg+bv3JypajKc+8sgj8jHc7g0VKx5HF7i/15r3DQ3mePAZzfu++joPaHCY+/V1b1Qcm+q40Y2N48D+sb3O/VpDbTuJxHbsmK4BMcRm24kdjwwwS8ExLQcN4fU1DcIeY7KHQyRpTCbx2d3lbYxFicSABIAVeXC5hjT+jddax6qsRjedSERpY8dSjqi+0OVmN3mYk7AABNX9SnFnFlSC+GOjMkY3KrqoARu8BpAAML///ntZdaJ6BNABJ7Ob1oSw7v0/0T2Mpff83fvT7P7FLclQNZoLwqPLVve+obrHg31gnBz3ffV3HgBZ/NvfvVHR9a86blS5/u4ra71fazhsJ5GcauyYrs4xxGbbiR2PDDBLwTEtBwXhxo3r11gIS2NtUqw/umULpYoqBgEeMJEEa1QC7dvLVYeyRZUkL+M4xZV8AGEsdI5Er7pfKVbVwf140aV67rnnysoRC8O/IhLgqyLhmVUp9gN44TGACFUl7rKCatC8Kbfu/T8bNWpE00R14+/en94Qxmtw+zZz/Vfd+4bqHo95KzQszO/vPJhw93dvVG8Iex93oPvKWu/XGg7bSSQhiR3T1TSG2Gw7seORAWYpOKZlhrDV6FoTLfrc48flykCpmIWJsSisR6uaeKJj0aJH616OiYkqLnP5crmAQKha7pgNjNVzUAECFNb7laLiA5Axdml2w+J5dOliDVosFG/efxfAAeAAE4ypYvuPPvpITmYCnHTv/4m7vgD8Zjeu6t6f2B4zhzEJCtDDfU0BKSwoP2rUKL+vNSGsezyAMLq3AWp/5wGf33u/qtuymbPQrceNyhuNB3PbQPdrDYftJJKQxY7pahhDbLad2PHIALMUHNOyHoT/cEO4SRNAeE3NhrBpJBKRbOWsTAGgdAG2lMGD3cmkXTt391mrVu7FCpBYTGPRANHyl88LCCJp4K4uGOc68cMP7tmhSBwhrIZQWaHy83W/Ukyywrjqs88+K//ggFmzZs3kzGJM5lqwYIGcGQ3wYpYvZgdjDBXbAsQAfLD3/8SELoxD+7v3J7aH0b2M/eCeqYAlJj1Nnz7d72ut9w0NdDzYL8ZjAXh/58H6OX1BWHXc6PJHY0X3fq3hsJ1EEvLYMV2NYojNthM7HhlgloJjWmYIBzISCVZESk+X3V64VRpa9xkCEmm4h+fw4TKxYGIIjNmfqaKKS//iC8paulQmH9xIHDM+T+k6yQBGt6e/+5ViUhJuLI7qGPfhxNgxuq4BD0zAQtctbomG12EmL4zuYFSzqJBRwQVz/09086LC9HfvT2yPRS5wXKgqAUVcZjRw4EA58cnfa633DQ10PLgfKW4Lh65uf+fBet9T1b1RsQ/VceNSKLyH7v1aw2E7iSRssWO6msQQO7ptJ3Y8MsAsBce0bA/Ch6IIwlaLJIrWvUwouLRCVDZo6SO5yJ+45AL3IkXCEFWU9vWQp2hM9vF3v1JcHwtwoOIFaLZu3SonDlnvU4ou2y1btsjn8Tv2gees9wzFY4Hu/4n383fvT2yP4wbUAPrY2FhZdWIyVKDXWu8bqnM85j1b/Z0H631Osb313qjmgh2q48Z7YHvd+7WG2nYSSZXFjukIjSF2dNtO7HhkgFkKjmk5RBDeLiD8mYDwxwLCb9dsCEe4AQcTbtbnvLcxb5Dt6zkTWNbn7dg8JuvjVquOW/e1duzvPARj1XHD4Tx2X7aTSDh22Gx7seORAWYpOKZlN4SfERAeISA8Tg/CBwWEK66YxRBmsyPBdhIJxw6bbS92PDLALAXHtMwQZrNrkO0kEo4dNtte7HhkgFkKjmmZIcxm1yDbSSQcO2y2vdjxyACzFBzTMkOYza5BtpNIOHbYbHux45EBZik4puVAEF4iILxfQLgnQ5jNjnzbSSQcO2y2vdjxyACzFBzTsk0I72MIs9kRaDuJhGOHzbYXOx4ZYJaCY1oOKYTHjGUIs9mn03YSCccOm20vdjwywCwFx7RsQnjUxyNo4qRxNM8uhKd+4YFwDEOYzT5dtpNIOHbYbHux45EBZik4pmUtCO8XEO7JEGazI952EgnHDpttL3Y8MsAsBce0rA/hrgxhNjvSbSeRcOyw2fZixyMDzFJwTMvaEO7BEGazI952EgnHDpttL3Y8MsAsBce0rAvhHhUgfJAhzGZHou0kEo4dNtte7HhkgFkKjmlZH8JdGMJsdiQb3/+SkpKgEwnHDjvabTd2PDLALAXHtKwN4e7VAMKFhYWVTi6bHS02E0mw4thhR7vtxo5HBpil4JiWdSHcvTpAGN0J1pPLZkeLkUjstOQ5dtjRbrux45EBZik4puUaA2GotLSUu9XYUeuTJ0/aTiQcO+xo9qnEDlUZhDtXDwjjZFpPMJtd032K3WkcO+yo9anGDlUVhLtVAwhDOJncomdHm4uKik6lJS/FscOORocgdgwwS8ExLetCuFu3ToEgPEVAeJSA8KDTCmGIkwk7mnyKXWkVxLHDjiaHKHYMMEvBMS2XQ3i4gPBYAeHZ/iG8TkD4QIRDGOJkwq7pxvcbs5rRlRxKceywa7pDHDsGmKXgmJYDQXjhovm0e/cu6tq1Y/WCMIRkgpYOJxR2TbKZQDCjOURJpJI4dtg10WGKHQPMUnBMy4EgjDsUfvvtN9SpU4fqB2EIJxrGScfJxx+Bza6OxvcXYDQTSAi60fyKY4ddUxzm2DHALAXHtBwIwh9/MpImT55Er3doWz0hbAonnc2uKa5KWd+bza7ODoMMMEvBMS0HgnD//n2pa9fO1KbNq9UbwiwWi8VihUEGmKXgmJYDQfiNN9pT06ZP06uvtmAIs1gsFotlkQFmKTim5UAQbt78v3TvvXfTKy2ae0H4gBrCo8eMoiEMYRaLxWJFjwwwS8ExLQPCTQWEPxolIDxxLM2dVxHCffv2oo4dX6fXWrf0QHidAsK/CAhPZQizWCwWK+pkgFkKjmnZG8ITFBBeuXI5xcUdoy6d32AIs1gsFotlkQFmKTim5UAQHj9+NM2YMY1av/pKAUOYxWKxWKyKMsAsBce0HAjCbw8euKJ/397dR4wYcStDmMVisVisijLALAXHtBwIwu+9N2TA/5hiCLNYLBaLVUEGmKXgmJYZwiwWi8Vi2ZcBZik4pmWbEP6DIcxisVgsVtVDeDVDmMVisVgstwwwS8ExLTOEWSwWi8WyLwPMUnBMywxhFovFYrHsywCzFBzTMkOYxWKxWCz7MsAsBce0HDSE1woI71dCeLKA8EcCwm8xhFksFosVLTLALAXHtFwO4WECwmMEhGcxhFksFovF0pQBZik4pmV7EN7PEGaxWCwWi6ocwmsZwiwWi8VieWSAWQqOaTk4CDdmCLNYLBaL5SUDzFJwTMtBQbgxQ5jFYrFYLG8ZYJaCY1pmCLNYLBaLZV8GmKXgmJaDgnDDhvV8QvhzAeFPRn9Eg4cwhFksFosVNTLALAXHtCwh3PQZGvmRG8Jz5tqAcCxDmMVisVjRKQPMUnBMy94QHj8hIITrxqxcuYJ27drJEGaxWCwWqyohXL9+3Zgvvvic5s6dTf0H9GEIs1gsFivaZYBZCo5pOSgI16tXJ2b48A/Eg+9Sv/69GcIsFovFinYZYJaCY1oOGsK9e/ek1q1bUd9+vRjCLBaLxYp2GWCWgmNaDg7CdWvHtGjRnGrXrkW9+/RgCLNYLBYr2mWAWQqOaTkoCNcVEO7U8XXxgqepT9+eDGEWi8ViRbsMMEvBMS0HDeHp06fSggXzeGIWi8VisVhVCeEmTRrGLF26iI4dO8qXKLFYLBaLVZUQnvTJJ9c1aFBvRKNGD0/q269nMUOYxWKxWFEuA8xScEzLQUHYW/36985nCLNYLBYrymWAWQqOaTlEEP7ZA+GRAsIDGcIsFovFihYZYJaCY1p2Q/hpAeEPBYRHCwh/zRBmhV8ul4vNrjFmRbUMMEvBMS0zhFlVqtLSUuni4mIqLCykgoICNrtaGt/fkydPyu8yvtMM46iVAWYpOKZlhjCrylRSUiKTFhJYfn4+m10jbALZhDEr6mSAWQqOaZkhzKoSAcAMX3ZNtgljBnHUyQCzFBzTMkOYFXYxgNnRZPT2cNd0VMkAsxQc0zJDmBVWMYDZ0eiioiIGcfTIALMUHNNyyCD82eeT6eNPRtLbgxnCLLfQLYeqwJqg2OyabjQ80QBlRYUMMEvBMS0Dws8ICI8YyRBmhViAMFfB7Gg1d0tHjQwwS8ExLXtDeNx4hjArRELywWxRa2Jis6PFaIAyhKNCBpil4JiWGcKssAjJBzNFrYmJzY4Wc5d01MgAsxQc0zJDmBUWAcLcFc2OZpsQ5mq4xssAsxQc0zJDmBUWMYTZ7Hw5JMMQrvEywCwFx7TMEGaFRQxhNpshHCUywCwFx7TMEGaFRQxhNpshHCUywCwFx7TMEGaFRQxhNpshHCUywCwFx7TMEGaFRQxhNpshHCUywCwFx7TMEGaFRQxhNpshHCUywCwFx7TMEGaFRQxhNpshHCUywCwFx7R8ChDuZYHwpwLCIwSE32QIsxjCoXBeHuU5HJSbnU2OzExyZmVRnnis0nbCeNwptjmRnEzZCQnyJ7bHPpTbJSbSiaQk5Tbs0JkhHBUywCwFx7RcDuEPBIQ/YQizQiOGsH0DlI6MDEr74w9K2LyZjixbRvtmzKAjS5fKx63b5wpQZxw6RAdmzaIdQ4bQj927045336VDCxZQ5pEjlOd0uvebm0tZx4/T/q+/pm1vvkk/v/UWHZo/X0Ibz5Xtk6EcMjOEo0IGmKXgmJYZwqywiCFs305R+R795hta2aQJLbrzTlpw88204Kab6PtWrSREvbcFYFN27qSNr71GC0XcLbjlFlp4221lP3/s0oUyDh6UkM1JSaGdw4bRknvvpaW1a9PSWrVoyX330Z4JE8iRlibhi/cGuB3p6T6rbra+GcJRIQPMUnBMywxhVljEEHZbwi81VVaq2QKgZlXqz7k5ObIC/rFbNwneFfXq0ex//IPWNmtGWYZRYVt0K//Uty/Nu/ZaWiqAuuOdd2RFjErXhPfu8eMpR0A2/cABWlG/Pn3ToAEdW72ajq5YIWG86oknKPPoUco9cYKOrV1LG15+WTYCAGTrsbGDM0M4KmSAWQqOaZkhzAqLGMJuo6L8/fPPJfy2CKhmx8dX2qaSPRUpuonT9+2jncOH07zrr1dCOOPwYfr20Udl1YvtUMVizBdd2RvbtqW5V19NG9u0oaxjxygpNlZWwT+8/rqsqAHe9S+9JEGcJt4HkP6+dWv6RhxrvGgEoJu70rGxgzJDOCpkgFkKjmmZIcwKi04bhEXlmSfAl5uURLmiSsxNTqbclBT5WB4mNqESrcJuVlTBuz7+mObfcIOsMAFD6zb+jG7i3RMmyNdXgrD4HCcEqHeNGUO/jhpFaXv2lFXa6HqOff99WSGvefZZCeeUXbtk9/P65s0pVWyb8ttvtPqpp+jbJk0o5ddf5fsAyL988IGssKvyPNVUM4SjQgaYpeCYlhnCrLDotEBYAMgpYJMxYwalvPMOpQweTKnDhlGagBQey1q5knIEbJxxcZQn4JaXkxN20HhDeH2oIZxf3t0N6KI7Wc6kzsiQkEUljAp6a79+EqqZ4rUAMMaZf+rTh7b07EmL776btg0cSIY4NysfeYTWPvccpe7eXXGiFtu2GcKB5bL5XwTJALMUHNNyyCA85bNPadTHI2jQ2wxhVhVBGAAFLIQLUAFj7HXaNErs0IHiW7SgeAG9+FdeoYRWrSihdWtKaNeOEjt1ouRBgyh96lQ6sWUL5QLIIbxMx5zZjK5edBWj2twRE1NWkSb+/LN8HJUpLiMKBLtAEC57X9EAwT6PCpj+8cUX9MMbb9D8m26i5Q89JB8DnNHFfWzVKglaOTFLGFA+tHgxbe7ShZY+8AAdnD9fdmdb98+2Z4awb1WGqtsuV6n4f2WXPW/5LwJkgFkKjmlZQviZp2n4CDWE32UIs+worBA24et0UIEjp8x5cccp5e233fB98UXfFs8nvPoqJXbsSClDh8oK2SngloeJSKcIY1x3e3jJElr99NO0okEDCUFMjvrqwgtp9uWX07K6deXj3z72GP06cqSsYK378LYuhPG+hxYtom8aNZKzpGdfdpkcD0ZXNcZ/JezN2c+iEZD400+UuHUrpe3dKy9/ApB/6tWL0n7/vew6Y4D7VM9HtJshrJYVvlbglrpKxP+9LP5t3cYK5NMoA8xScEzL3hAeO05AeA5DmBUChQXCee6Kt8AC3zIIx8dRyvvvuatgK3hVFlUgtkXljO7r7HXr5DgyurUrvbemUUUemD2blgvYLvBcMjTniito5vnn09eXXOKesSwex9js9sGD5YIZ1n14WxfCmFGdvGOHnJy1pXt3+qZhQwnhbxo3ltcZy0U5zO0FWFE54zUYJ17btCmtFNsdFhDfO2WK7L7ePmSInCGNRgJfqmTfDOHKUsHXG7olrmLx0+0Sb8vH3dv4gvFpkgFmKTimZYYwKywKJYQLPJWvL/iazk9Po2wBjqSePSmhTRt3F7SoeNElHf/SS5Uh7G3AWFTGaQJ4OZjgZLMKRMWJ8dfk2FhK3LaN4r77jrb26SOBiEuBjFWr5ONJApioSANdsqQLYRwroApoopLFtcObO3WiedddR9+/9lql64uxPbaLHTqUlt5/v5yMhWuKMUaMfy+55x5aVqeObFBgta5K78fWMkO4opQALqt43aB1Q7eIil3wSY+L5GPeUPaG8Wmuig0wS8ExLTOEWWFRyCCM6leAygrcMgPMeB4wE8a4cM7WrZS5YAGlT5tGaZMmUeqHH1JS374SsoCzhDKqYCuIxWMAd/Lbb1P2pk1y8pYdEMtKE2PU4njQrbtr1Cj3xCzREMBYMR6XDjAeDAeCMCZjAeawd/cxxqX3TZ8ux6JRdeNSJ+/PgtehQYDu8u9FQ+Xw0qUSvpgtfXz9ejo4dy4tuusu+q5ly8oAZ2ubIVwunAc1gC3wJQFdKqQiF1wgHimQv+MxCWRvGHuq4/LKmCHMEGZJnSqEZRcoql+Hj+oX8JXjnO6xzjLAAICiIswT1VsuLlUSUMZlSk4BkhxRHWYuXEgpourDBC1M2FLCWFTFST16UNayZfK1tkDscThnRwPimPiFlbXQ/Xx8wwZZDcvXic++d/JkWYEvFjDFWK/ZrYyf8ppgAV8sBIJu5yPLl9NiUf1iKUt5fbJ4HuPW2DcAbz0utp4ZwuUqr1MtABYGWAHfIsBXQPekK1/8C87zON/zGKAMIJfD2N11fVpBbIBZCo5pmSHMCotOCcICEgW5qH4rAxjVrhu+QYIRcBb7k3AWkMnZtk12PSd26UIJqspYVK14DhU1rjkO+v08lhAdP16CUC6aERdXaRt/9gdhGEtSYgUsjDtjYhW6oQF6dHl/Jz4XHl8nPo83/NG9vH/mTFr+4IOyGxrPAeCA8ObOnWXVjO70FQ8/TKuffFJW79bjYuuZIexWORjdEJZjv2Y1K2Aqq17AV8C20JUrMCsa4OSsaDwuneeujj2VcQSA2ACzFBzTMkOYFRbZhjBgp+p+FpWvnBFtE4bW95B3JxJwxWVKuJY4sV07NYgFlDIXL5YLfth5b8xGBuBi332X/pg+3b1Gs2I7Xw4EYVTav40eTYtuv11WvQDnBqyCVacOzb3qKlpSq5bsWva+7Ai/H1640D0beu9e2TWOFbNWPf647LrGdcObO3aU+9zWv7974Q7FsbEDmyHslqoKNivgcgDnSdACuOKbL/6VQ3muE2XOpWzKoGQ64UqX2wDY6K6WVbGrSO6zDMTyMqcqA7EBZik4pmWGMCsssgthOfvZCuBcrHIVePw0aHu6rp1Hj1Lm7NmU2LVr5cubAGIsN7lmjayiK+0jkMV7YGZyTnKy+6YIGuPA3pZjuzNmyGUvce1vtqWSNu+MtGfSJLl8JcApfeed8npgABjj0t4NCPNaZnn3JM/EMIAZ1wgDxLixAy5ZwhKWSdu38/KVp2CGsFveEK7YDY0uaA+ABWbd8BXAdWWR05UpUJtJDlcG5bjS6Kjrd5rpGkuraC6lU6IHxO6q2Oye9gax+a5VIAPMUnBMywxhVlhkB8IFmIRl7YIGgPODr0CDsoASxn6z1q6lpD59Kl/iJMCcLCrCnNhY9ypb1teH0XJFLFENY4EPeb2vYjY1tkHFjG0ATczITsb4t2hcyApYp4JHY0Fsm75/P8Vv2iSvIcYKW+YYM9ueGcJuuWFYEcKyCqZCWdGiAgaAc13ZEr5u8KaLqjdNOJUSXIdpnGsINaRrqSndSxtcS0VdnCZBjC7qMhDLiti7a7pKQGyAWQqOaZkhzAqLgoawnAVdGcAF4QawaVTFojo8IQCU1K9fpYo4oWVLSh0xQi7qIbvFra+PEJvX/wZbcZcZDRKMnQP2OvBm+zVD2C0rhGUV7HJXwYWyCnbKLmcA2A3fVMp2iYaxK0k4kQ66dlJLakS30pl0G51Nbegx2uXaIrCdWQnEZWPEZQt8hB3EBpil4JiWGcKssCgoCItkrwJw2Ctgqz0gzhaVJGZHV7i2uHlzSmzfXk7Uws0gKr2WzVaYIeyWN4TLL0UqlDOeMQkrz5Uju6BRAQPAgG+mgG9GaTyll8bRcdcfNMEVQw/R5XQj/UnUwhfREOpIR1x7xauzfIC4ysaHDTBLwTEthxDCkxjCrDIFA+FK48CYhBWOMWAdoxJMS6PMJUso8Y03Kk7WElDG9caO3btPaVUtdvSYIexWOYTNKtirK7pCFZwmK2AAON0VR2muY5TqMijFdYT2lv5EQ6kL1aK/CRD/rwTyNNcoSnIdlZO2ysaIXQUS8t7XEId5fNgAsxQc03I5hN9nCLNCJ10IYzWsCuPAchb0aaiCvQ0Qx4sW+MSJ7hW3vLulX3tNLgKC648rvY7Ntpgh7JYSwq5CeblRvsspIHrCqwoWFbArXgI4pfSIBHCy6zAlug7SDtd66kBP0O10Dt1Ef5a/raEFYvtECfICFypiTNbCtcQVx4fDCGIDzFJwTMsMYVZYpAVhjDlaLkeSFWYkjEWK40DFK8eHvbulUQ336kWOvXu5GmYHNEPYrcoQPkknRcXqhrB7QpYbwimeKvi4qICPSvgmCfgmlu6XPu7aS6tdc+gZuptupr/Qv+gsak1N6BfXJjmJK59y5Cxr9+VLuI7YA+Lwjg8bYJaCY1pmCLPCIi0IK7qhMUO60nanyRj7xRhwQtu2FavhNm0oc84cOX5sfQ2b7W2GsFuVIWyphD0QziZAOKGsCk4qFQB27acE1x8UXyosfh4qjaXprpH0MF0px4fvoQtpML1Oh2k3OSlDji9jnLkKx4cNMEvBMS0zhFlhkQ6ErWPBEVMFm8alPwcPUvKAARWr4ZdfppTBg8mJa3Yj6XjZEWeGsFvlEC71rBPtHhMuFBVrxe7ocggnu46I6vcAJQC+pb9TXOneMu8u/YHepU50n2d8uC5dTlNdIwSwD8uxZVTXcqJW1YwPG2CWgmNaZgizwqKAEFbNiI6gKti0rIZnzZJjwd7VMG4GcWLr1iq/bphdvcwQdsusPiuuloUuafc1wu6JWQLClCq7o9NKj8mx4CTXAVkFA7zHS3eX+ZjwNtcqau81Pvw4/YtWu+ZRuoA4KusCCWLv8eGwLeRhgFkKjmmZIcwKiwJCuFJXdIRVwR7jelnc+AHLV3rPlAaUuUuaHcgMYbesEDYX68ANGVCxYizXnB2NiVnppe4xYYwHSwi7BIRdAr6u38go3SV/P+r6lVa5vq4wPtyKGlOs63vKdqW6J2qVLW/pNT5sdk2HDsQGmKXgmJZDB+Epk+ijUQLCgxjCLBsQtru4RBUYN3xIGTq0wkpauOkDFu+Qd1lSvIbNhhnC5XIDzwSxV5c0xoUJXdLZcqEOXKKU4Yqj1FJMzDokILzPXQkDwgLARumv8uex0t/oQOnPNN01gurTVWXjw4OoHR0SsEb3tmp8GF3TIR4fNsAsBce0bEJ42PBThPBkD4TfYgizKBCEzbskVQ8Io0s6Y/p0ea/hsi5pURVjlnQu32uX7ccM4XJZq+GKXdJOuWZ0hXFh2SV9WM6Kjiv93dMN7YawBLELv++iXaWbLOPDl9HnruFyqcsK48PkGR/2qoZD1C1tgFkKjmnZG8Jjxn5CsxnCrFDIL4TR7ewNYEzKisDxYNN52dnyBg4J7dtXGhd27NnDlyqxfZohXC4rhL3Xj8bSlfJSJcryLNiR5FUNH5STs1ANo/oFgI+W7pSWIBbeWrrK6/rhP9GjdAutcs0tHx8mh3yPMI0PG2CWgmNaZgizwiK/ELZ2RcsVsiJvPNg0bnuImzfIFbS8IdyhA5344YegJ2fhLkZOAW78tD7H1nOu+A4lJyfTsWPHKD4+Xp5P6zYwznFmZqbcJikpiRzib5mamlr2u3X7UJshXFFu2CmqYYFJsxpG9Wou2oHrheWlSq4D8hIlsxo2ISxBLP59RPxc7ZpFTekeOT6MNaZbUkPa4fquKsaHDTBLwTEtM4RZYZE/CLtXyYr8SVllBjQPHaLETp0qQDihXTvKWr1aVsqVXmMxYJAttouLi6N9+/bRzz//LH/i31lZWQzkIAwAHzlyhGJiYujll1+WP3EeVecQ53blypXUpUsXevfdd+U5HzNmDA0ePJh+//13n/AOlRnCFeW3GnbhfsLWhTtwuZJByaWHRDW8j+JdFath9090T++i/XJ8eGTZ+PDddAENpDZ0UFTK3uPD6P6uND58aiA2wCwFx7TMEGaFRf4gXN0qYdh5/Lj7fsPeEG7blrJWrKA8keit23sbcEhLS5MwaCfAff/999PNN99MtWrVojZt2tCGDRvoxIkTlV7HVjs9PZ0mT55M9957Lz399NO0du1a2cCxbgfjvI8bN46uueYaatSoEW3cuJEaNmxI9913Hy1Z8v/ZOw84KYq0/7//y8F0+pr1POPpa/bOHE/PjNkzneEM5+mZFRMGMKCgYs7pzDmdCQOKGBFFxQwiLSIZBAQWVHaef39rtnZ7e2t3a2dmFwZ+Pz8/l52prq7uma1vPU9Vdz/e7HaVsiDcVE2i4frrhhtWShcf5sBK6VHuAQ5upXRtMS09vPajulXSxbnhBn9ggwr97PxCbn7YLg7OD3PXrgrNDycwK8CxKAvCUruobRCewyPh1NyYY9Txxze+TCmFMA96mM4zewPbeBONPfHEE7bhhhvaEkssYeuss47tsMMOtummm9oWW2xhffv2dWVGjhxpQ4cOtSFDhrg0K7Dx0R0RW5Ik7nXSqcOGDbMv0uicNKuPpIkQgQ5lqINo8ZtvvnGAnzJlitue7Xx50rH+NWDkf2f7MWPGuNd9W0jpksKlfdSbT+fSvpban3f2eGL35dtMBHvqqafaUUcd5QY2HCPHTr0+4+DPwUcffWQXX3yxLb744rbJJpvYu+++a5dccomLhHnPR8JtbX+sBeGmqo+G3erk2joIN16k5S5Zsonp/xvS0mML3EGrmJb+uvBRk7S0hzHXD//TdqqfH97W/mjPFu5vz/nhBGYFOBZlQVhqF7UFwjXVEAmnEA5FwhOffLLVSBjY7L777va73/3OttlmGwdd4PL555+7tDRzm8Chc+fODsrrrruu/e1vf7Obb77ZQRYQUMc+6T733ntvB5Udd9zRRdRHHnmkPf300w5cpGRJtbItwN9uu+3s5JNPtv79+9unn35qe+yxh3Xq1MlFg4CZ13bbbTf32uuvv+7gwz722msvu+CCC2z77bd3Awbqu/vuu+20005z7SOS7NKli73//vsOinjgwIEttj90Ttq6LwYP77zzjp1wwgm21lpr2corr+zafscdd7hz6AH83HPPubppx7bbbuvOGeceCL/22mu20047uXp79+7tzkMp7Y+1IBxWPYgDaWn3ZKX6+eHcXbRqeZDD5+4OWswPN05LFxdqufnh2vsazQ8fYFvYgPabH05gVoBjURaEpXZRSxCeq+aEn3++xTlhOvBBgwbZKqusYgsvvLCbvySy8+8BACLaAw44wEVrRMrLLbecLbrooi5lfdNNN7mIDGBTx29+8xtbZpllbKWVVnJlF1lkkfQPeFf7+OOP7cEHH6zfz8Ybb2wbbbSRg80bb7zhILbCCiu4bYnKgTbgWX755W3ZZZe1Z5991j788MNG+1hxxRVdXb/97W9t6aWXdu2ijoUWWsi9f9ZZZ9VHj621P39e8sfT2r4AMQMV5oDZB3X7zMIaa6xRf0wMLADvggsu6NrA8S222GL2y1/+0kGY1D/wpk7OF9uU0v5YC8LNqwi6LIhZqOVB7FdLT0rjVn/tME9WSorXDtcWrx3288NJJhImQmZ++I7CpbalLeei4XVsATvD/mGDM/PDgL5C88MJzApwLMqCsNQuagnC7paVVTQnXH/XrOZWR7cwn0samIhrqaWWch38I4880mgekn8/mUbTdPz8Mfbs2dNFckABKBG1ETWzoAig/PrXv3avPfXUU9arVy+3DfOd7IO5T4ADTLp37+7mSl988UWXvmYg8Pvf/9614bHHHnPwAWoAeMkll3TRNGX8PphrBWzHH3+8LbDAAg5qRNWUY/9ElnvuuacNHjw4qv3585I9nph9EfHeeuut9YAk4n/00Ufd6xwz0TH7eeihhxzEactFF13kzhP1zz///PUQZr+ch/vvv99F0KW0P9aCcMvKg9g/YcnND1vd/HDdZUtufrjwdf2DHfz8MHPBzc8P/7v++cMb21J2k13UMD+c1l2h+eEEZgU4FmVBWGoXtQrh7H2j53QIc51wCrTgdcJp9NjSdcKkO5m3BHSAmIgzuwiLKOu6665zYCG6JTpljvT666+vf40IlQgPeAAk0rfMg5JmJqIDKA8//LA9n0blG2ywgYseAZFP1RJ55yE8YcIElwoPQRj4AHHmae+66y4HOcpwHKSRSRXTNua1mVeNaX8+peshHLuvzTff3M3j0mER1bKwCqhSB+8DTeaKGYjwO9EubSFSJ31PvSEIk24upf2xFoRblo84HYQLxbR0zPxwS5ct+aiYVdNvF3rbkXXzw6yY/msaFzeZH27m/tJtiIYTmBXgWJQFYald1DqEq+yOWXfeWdIds1gwNGDAANfx88cGJOjk/UIqAOkhQHqWDh8w33LLLe41olxSyR7CwOTOtC1AFAB6sBJhAxTgdfDBB7uyRJVrrrmmiwaJeqmLKNlHgKwOZts8hP0+aBv1Uob9fPDBB+61bt26uXqYx6UNN9xwQ6vt9wunvD2EY/fFIrYzzzzTpd/nm28+F90eeOCB9ve//90dL4utSOtfccUVbr+rrbaaaxtZAM459TYH4VLaH2tBuHU1AnGZ88MAOLtQi/nh52vvt93r5odXtV/YvrZZCueXgvPDxWi4zfPDCcwKcCzKFYTwdSmEe6QQPl0QllqGcM304mKsCeNt+oivbfrwr2x6CqaWIsrZaXfv6DT6zN47egT3jk4jrJh7R5POJK0JFJmjJRoGQu+9956D5gMPPFAPU1Kub775plv5S9RLZMuCKQ8tD1HSycwDk0ZlO9KwlAE8RMiAhTlVQHLppZe6BU1rr722g9jZZ5/tFmIRZZL6zUM4C2pSvh6M7I/XshAmHU361rejufbnz0n+eFrbF+ft2muvdZE7x0Q6mv0wwOFYiIIB7r333uuOh3rIAlDmsMMOc9mBEITZppT2x1oQjlMRdFkQB+aHuX44ND9cd2/phvnhzB210gh5cGGA3VXby7a0P7j54bVtATvVDk5ff7/Z+0u3MS2dwKwAx6JchHCnFMIXpBDulUL4bkFYKl8tQpgoMI3kJr/Ux8Z2726jO3e28TfeaFOHDrWaaXMYiJkPTiOhkccc0+QpShPuuy/qKUpErUR7RGdAj+iKdCopUxYXEQGygpc/RtLLRK/8Gxhxgwlg5KHl4ZGHMPUDpq233tqtDGa+ljoAMWACJP/85z8dwCjPCmCAxsIo0uQMBogCs/vIgpH95MEIhBlgEIHum56bltqfPyf542ltX6z0ZlU3q8ypmzQxq71ZXc1CLNLxRLBE0MCW4+L4OM+0g7nnEIQ5j6W0P9aCcLzyII6eHy4Un7Tkrh/OXbZU9Pvu/tIXFI7JzA8vaTcWLrQRKcSnpnUCeWBfYlo6gVkBjkVZEJbaRS1B2N0GMo0CR6Xw5WlEI/bbz823jr/tNptGRBzYZnbZPU84hW2T5wn/61/RzxMm9Uxq9Z577nGXFgFf4EhkSkqViPittK4j0nPApTe8x40omANlFTGpUECx2WabOaiwkIjLdXgPsHDTDwB2++23u99Z1Yup//TTTzfmWynvFxytuuqqbj/sm7Quqd6XX37Zpbyz+yBKJGqnfuplf7xGypcyBx10kA0fPtwtPmN+uaX2589J/nhi9sU2/fr1c5Ht6quv7s4jAxsGA/6GHYCYS5yoG9hSF9cU0x4GJkTN2f2yTSntj7UgHC8Pu5j54dBtLf1DHrKRcBbE/Wsbzw9vk/7/2cJ9aVT9jUt3+7R0frV0RDScwKwAx6IsCEvtohYhnALh2//+111nWw+2FMQjTzjBwRlI57eZLU47Xy5NGn3mmTZi//0b2pr+e3TaQXMXrdgFZYCYqAsgEnGSRqWD9xDjUiWu8wWEpI55D3D7m0n4S5mIaImss5c38RrwAVpszyVJQJ1/szAJiPhraFnsRLRI+pZ98zt1AGnakd0H29Fmfud19ufv2exvaJFtX0vtzzt/PDH74jXayH5oP8fIQirffo4RUx9pct8OzgF1cKycg/x5LKX9sRaE26ZGIHbRaDPzw9YwPzy2tullSx6+X9YOLM4PF5gfHmgv1j5gu9t6tmrd/PA+tombH56cRtcuLZ152lKTueHmP8cEZgU4FmVBWGoXtQjhyZNt0ksv2cgjj2wUXbLwafzNNxfnWSPh1p4m1TwxjTC5HrhROw89NDoVHbJflJV/vbX3Ysz2gKOlB0R4KOdfr4TLbX+s/XE2ty/fjrYeZ6XbLwi3XcWoMwviwPywS0uPt0lWnB92t7UsDCku0ipw2VIxGga89SBOX+P5w/fUXmFb2R9cNLy2zW+d7UAbbFw/PLF47XAmGo6cG05gVoBjURaEpXZRSxB2N78YNsxFk40WO+27r4087rjoNG+7Ou3gv2Ne8vTTG0fBacQ+6sQT9QhDOcqCcGnKgzg/P0zUyrW+jS5bKhRXS7touFCMhosQftfZp6UH1faz7oXj7M+2SN388BJ2Y6F7uu2wFPF10XCBRVp10XBhVl1bmv0cE5gV4FiUBWGpXdQihFNzv+WJpKRz194yRzz2ootsKjdIqGBE0iYTDX3zjY2/4YbGlyX5aP3WW23a2LFNt5PlnAXh0tQoLV0/P/yDu4zIpaWNtDRPWxpvkwujbSLRcG3xIQ/+kiUP4aG17zhnQfx24Tn7l+2cuX54Zff84W9tTHFu2N9Jq9A4Jd2MEpgV4FiUKwrhSy4VhKWiWoOwm28dlkbD557bNBo+7DCbcNddNo3bO7YxnVi20/1NHzfOvn3yyeIdsjIrol0UfMop9t2gQYqC5SgLwqWrEYhz88M8gKGmwNOW0mi4fpFW8dph5oaLd9IqzgMD4C9qBzQB8Uu1D2Xmh39uf0tj4ncLr6QInlS8gYe7bri4Urq9IbxLCuGLLi4Hwu+mEL6xCOEzuwjCUgSEa4oLtCY9/3zxnsxZ2AHif//bLd6aTsTZUSAGwGmEPumVV9yNOIBuozYdfrhNfPBBt2K6ybayHLAgXJ6CaWm/WjoTDRevHfaXLA2ue+4wD3PwEH7bvpj1dh2IBxq3tfwiBfL9tdfYX2x5Fw2vZfPbaXawS0vPKExL91J8uEPDPaWbTUknMCvAsShnIXzFlb3s3vsEYakCioGwS/uOTEewN93U5BIgF3Ued5xN6t27eNlSe4O4DsCTX3/dRp12WuPonDT0gQcW0+TDhs2+NLlcdRaEy1MoLU00DCABpZ8b5pKl4p20kmJKuvCpmxcuQnhAEcK1QHiAi4aJkklZf1R43boUDksBPJ+tZP/PpaWH2scp4IFw8eYd7LNgLc4LJzArwLEoC8JSuygKwpgFUJ99ZqO7dnV3oQqBeOJjj7k52naDH4OBFPSs2B516qlNAOwuSUpfn/LOOxVZMOYvV+KWiVwGU8nVuPKcZUG4fDWNhotzw6SMi3fS8jfwGFm8nWXhC3dPaS5V4raVX8waYENm9bchtf3rQPyOS0fz/sDaPvbvwm62uv3aLdLa3lazL9MouhgJC8JSFSsawjXFS5ZcBAoAsyuR60DMgxJYDMU1u+6xgZWKiol+U6hO5UHyDzzggB/c/7HHuojcXZJUgX1zTSt3qDrmmGPcHZn8ow3luc+CcPlqFA17CLt54fQc21T3uMMpVgfhWuaFuZVlaxAeaJ8U3rCrC2e51dEA+M/2v3Zp4QwbY8MVCf+PIFz1aguEHQxTwLlI9MQTG8/F4n33ddfmjunWzSb16eOiYvf4wFKByP64GcTo0Talf38bd8klNpJV2oH9Ml898ZFHKpoSHzdunHuoALev5DaT5TwqT56zLQiXr/aA8OD0348VbrLtbBV3P2ki4SNtF/uo8LZ9Z98Kwv8jCFe92gRhXLcqmYhz1AknNI1I8QEHuKh43BVX2OR+/Wzq1187eLs7bMUAkhtYpFEo89BT3n3X3a+aKJf53kYLw3wEDIDTCLncVdr+blXc9Yk7NfGQBR6vxz2Rua2iv0MUd3biAfP+7k7ZOzrlHSrP05m4gQXbker293XmTlDZuihDW7hjFq/zb+rh39TD79x9a9iwYW576vJ3pGpu3y21dV62IFy+iuArQphFUg0QbpyOrn+6UiAdDXw9hIekfrn2Yds3jYFXs1/YH+1nKX7Xtlft6RTko4tPVnI37RCEpSpWmyGMPYjTaHf0aaeF4UhUfNBB7vIhImNWK08eMMCllIEl1+9OGz++CGduh5jWR8Q7LQXRdx984K5NHtujh1t9/c3BBzetH6cDgFHHH28TH3+8bABjAMx9m3mwAg9O4IEDPLCBp/QAYR5mwK0STzrpJPfcXO5rvNtuu7mnAHHbxjzcgCDlTznlFNtiiy1cnZTnKUMAlOcF/zs9PqLsjTbayA455BC77bbbXNqbuoAmbeExgDw1iLZQlicp8UAEfmeQwH2u119/fTvyyCPde4DY7zu2rfO6BeHy1DQK9qujZzQszKq7l3T9wqzCEHcf6YaFWXWro+sA/FbtM3ZCYS+3GIs09Ja2nD1UuDHdbph7qhL3p3ZPVXI37PAQbvGuWQnMCnAsyoKw1C4qCcIYEE+c6BZB8fhA0tBBUPJaGhnzPkAedfLJbvXyuOuvt/G3324T7r3XJtxzj4t2x156qY0+4wwX2XK/avfQiGbqBMyju3RxqXF3Q44yocKiK+5HDHh5ghJPMfLP0eXh9BtvvHH6N/Sq7Z+Cnyf78OAFnqzEv9dYYw174oknHMR9fUCOCHS/NFKnDsrxQIZ11lnHunfv7iLXa665xj2CDwNR9snfpH9gAfdF5tm5PJeXpxHx5CDKAVp+5wlEvMa/qZ/HH+66666ubhzbVlkQLlfZKLgRhOtu2OEeb1h3idL42q9tbOFLG1lbvGsWlyE13KyDaHiAfVD7kvUqnGob2eL188A9Cyfb0MKHaR1j3ErrIoTrnqhUaHydcDOfZQKzAhyLsiAstYtKhnCdWTD13eDBbkFWsynjrJnPTeEKRLmrFZc8OfM72+bne/Mm1Z3CfNxVV9mUQYNc2rpcAGOiR571u/TSS7s/tovSgcJTTz3lnl40//zzu6cG3ZgOFHh8n39OLk9E6tSpk4PsCSecYN+wMryuPiAHTHnMHnC88MIL07+/d93DDIio2R/QpwxPRmLfPGmIunnwPWlm/xjBn//85w6eF6SDHSJ1nubE6zz2j+cf085evXq5djN/3adPHxdlx7ZVFoTLUR7ADSujZ7hbS7onKmVu1uHmgwvF5wuHbtbxae0b9mDttbZtil/mgddw88Cd7L1CP3f/6e9snJtfbniaUsffrEMQliqmciHszA36R4+2yW+8YWN79nSQbBXGbTXR9BFHuDt3TUpB5C6FquDdsPwiLKDFo/d46g/zqaR7ARePGzzrrLPcHyKRMeldUtTAkG149CBzt74+npZE2pn3eOQeqWH/wAbMvPCDDz5ox6YDlx122MFFw0TgpL67du3a6NnEPOieRx0SWU+ePLn+dcoCZoDav39/FxUT7fIoxssvvzy6rbIgXKryaWh3fXChbi64MN1muLng7I06/EMcBtc9xKHxbSuZD+5T+4DtYxs2mgd+qfZRG5NuRx2koovzwXWLsgodd9tKQViquCoCYUx6Oo2Kp6WdO3fXGstKZuZzuadzaPFWjHl+cRohu3nlFEwT06iRm3BUKvrNGgjzTFwgRUTKoiyiUcAM2Hh+LSAkqiU9TITMc36Zrz04bSPRa/ah8r4+/nBJKQ9Ko3b/tCAAzaVPgJ26d955Zzv66KNtxRVXdPWfmw40shBmYdhdd93lrlmmbv86g4M777zTLbaivUTd1MdrtCe2rbIgXIrqAVwAfCCw6XOFi48z9HPB/vrg4i0ri48z/KARhJkHPq6wZ/088Ba2nN1XuDaNmD912xNNT0vr41aY9aloFwW3Oh+MEpgV4FiUKwjha1MIX5xC+DRBWKochL2B8aRJxZXNafQ3/o47bMw55xSBfPjhxRT0QQcVb/gBnL3T6GxECgr3/mGHOfDyZCTmiie/+mpxhTXwbacbZgC4e++915ZcckkHMhYwvfnmm+7B9ESiRJMAedlll61P8fI+zxvmAfQ8N5fFUL4+0s3333+/qw+IksqmDLDs27ev9ejRoz59TKqY9DFzuwsvvHATCNMe6qJO6s7Cmddp+8cff+zSz5TlOHBsW2VBuBTl09CNnqBUl4Z2K6LdZUmjbDy3qywwF1wXBdd+6FLRQHho7bv2QW1fu6zQOY2BF3MAXt/+13oUTrbBKaDZlucSuyi4USq68aMM/cCgGSUwK8CxKDdA+PwUwpelEL5LEJbKV8Uh7A2M046e+zeTOuZxg0TIE/7zHxt3zTVu5TNwZnEVZgX12Msus/G33WbfPvGEA/jUNKpm1XRZ1xpHmij1gw8+cGlbFjwBMMBLdMncKwuzmLvdfffd3R8jwNxjjz3cKmUWcz388MP1kaqv78MPP7StttrKzSkz17zpppu6VdCnnnqqgzxpalLQzOtuttlmLrINRcLNQdi/nofwI4884iLv2LbKgnBblQdwMQ5uuCRphuXS0LUj3IpoNxecRrVfF4oLsooPaXjPPqt9yx6ovcb+aivVzQP/xo6yXWxgoa+LnoG4mwtOoc7lTvkoOCIVjRKYFeBYlAVhqV3UbhDOm1RsGiE7KHN5EpcjpdEygHY/uWxpzJgidFNARF9TXEGTJr777rsdEIEcQAaY6623nu255542ePBg69evn4uOV199dTd3TOp6++23txdeeMHN12brA3SsRGZBFKlmoMsCLyJqImIWSJHmpi5SxlxOxD5ZZEUqnBXOtIXBgF8xTb3514EzK6nZlvqfffZZlw5vS1vndQvC8apPQ9cDuG4eOPv4wsJkm5pGrY3S0LVD3YpoPxfso+Avat+xPrUP2t/q54F/brvaOtan8IiNKgx121NPMQqumwv2jzDMALiVVDRKYFaAY1EWhKV2UYdBuArMfC3zq8CWhVSAjcVZ/kYXpHCnTJnibqpBSpeVzizgAorZm2Rk6+P1YcOG2fvvv+8WTxGxsiiLuri5BjDmPW7Ywb6oiyiYSJoy/M7+szfZCL2efQ34s31b2jqvWxCOUxbAzc0DM1+bXQ09vnZ4Jg1NFPxRo7ng/rXP2vGZeeAtbTm7n3ngwqduIVdxMdZ4F1kTYbvHFzYTBQvCUtVJEG5qAOUXUeXfy5ZhlXPsQx0oR/l8nX5f+fKVdFvbOi9aEI5TEXINUXCz88DuQQ2j3GML3Wro2iEuDc0lSdycIykUL0saVNvXLi2cYhvYovXzwD3T3wcXBtq4FN7UQV0uDc11wek+2BeXJGVXREdEwSiBWQGORVkQltpFgrAsC8IxygM4Ow/8faN54Anuhhr+zljFeeDP6p4dPMilofHntW/Z/bVXNZoH5klJ7xX6puBOXBQ9xcbW35jD3aIyk4b2zw/OxuetKIFZAY5FWRCW2kWCsCwLwq2pAXNtmwceUyjOA3N7yuxq6OI88AON5oF3s/XS1/w88Dd1d8by88DF1dANd8dqUxraK4FZAY5FWRCW2kWCsCwLwi0pC+Bm54Fzd8UqXo40rMV54IbrgX9qW9ofWpwHJtIGwP7OWG1MQ3slMCvAsShXBMLvpBC+IYVwz0sutjPOFIQlQViWsSDcvIqQa4iC2zoPzOVIbh6YKLjwng0qvGKXFE6unwfm5yWFzo3ngf3lSP4hDf7OWJkIuI0ARgnMCnAsyg7Cu3Sy7hedb5dfcZndc68gLFVAgrAsC8LNKQ/gIoRD88DF64EnFrLXAzeeB/bXA99be6VtYyu6eeA17bd2TGEPd1/omHlgf2esNqahvRKYFeBYlAVhqV0kCMuyIBxSNg1dzjzwV4ViGpq7Yr1Qe7/tbRvaqnXzwHvYn919oVudB2775UghJTArwLEoC8JSu0gQlmVBOC/ORT4K9vPALg1tdc8IzswDF9PQXzY8nME9IalhHpj7Qh9b2L1+HngrW94eKFzXeB7YKj4PnFUCswIci7IgLLWLBGFZFoTzahoFN74ciVtH8jhBoOmfjlSfhi74hzM0pKG5Hrhn4aRG88CXFk7tiHngrBKYFeBYlAVhqV0kCMuyIJxXNgputBo6k4bmeuCYNPRntW/aPbWX29a2Qv088LGFPe39jpkHziqBWQGORVkQltpFgrAsC8JZNY2CgTBzwXWroQuNV0NzOVL9auhC5q5YaRTM9cDP195re9v6bh54Vfu57Zn+++XaxzpqHjirBGYFOBZlQVhqFwnCsiwIZ5WNgrNzwfnFWA13xco9nIEo2M0FF68HPiY3D/xg4Tr7uuPmgbNKYFaAY1EWhKV2kSAsz+vm+z9r1ixBuE71UXChbkV03Vwwjw90c8HNXRNcNxfsn5BUnAc+0Taw/62fB76scJoN6dh54KwSmBXgWJQFYaldRMczc+bMJh2TLM8r9hCWmqaiuT9z/Y05siuizd8Za7iNqS0+IYlUNDfmIBL+vPZtu6f2CvtLGvkyD0wkfLztZR8wD1zbofPAWSUwK8CxKAvCUrsICJOKy3dMsjyvGAgrCi6qCYRT/P7oVkSTigbCxQVZxVS0X5CVQrhQB+E0Eh6WRsEv1j5ge6exb3Ee+Bfu330LT9jotKx7PrADcIfMA2eVwKwAx6JcIQj3r4PwRSmETxWEJafa2lqlpOV51t9//70gXKci8IoQJgouLsgiFZ2eqxSW0ywL4eJ8sH9WMOloFmX1LzAPvIeLfomC/2Ir2kOFG9Mo+TObUFtciEUdHTQPnFUCswIci3IRwjunED4vhfClAQifLQhLpQkI0xHlOydZntutVHRjNUDY3yO6bj64wHzw1EaPKgSo42qB8DB3fTALsz4r9LcuhUPtT7awmwfe0Bazywtn2BeF9+sXYk1xD2bosHngrBKYFeBYlAVhqV1FR6RoWJ7X/MMPPygKzshDmEVZ/kEN3zMf7CDc9HnB/vIkVkcD4g9rX7P9CpvZavZLW9vmtxNtn/S1N1w5D2A3D1zosHngrBKYFeBYlAVhqd0lEMvzkpWGbqoshOvvFV0XCQPN7E06iqujuVPWVw7ELNBKCh/ZHYXLbPc0Fv6HbWuvF55J3/uqDsDjHICpg0udOmgeOKsEZgU4FmVBWOoQCcTy3G6+31wRwDSM1FjZdHTDTToyC7PM3y+6eLvK4j2jR7hV0g7GtcPsq8In7qlIHxf625hCUn8tcD2AU5gD9Q6aB84qgVkBjkVZEJY6TICYKEEwlucme/hyNYAAHFYDhBsWZrE6+ocUwszf1vDoQpuUxrGAeFwDiGu/SWGMR7jHGRZ/jnRpa5+C9gB2C7EKHTYPnFUCswIci7IgLHWo6KQwHRYdFx2YLFej+f4yqPTwVQq6eWUhXH+3LK4TTqHpnh+cQpQFVSysIi1dBPEYB+NJBpBHuX9PdvAdV7cKurgIqx7ALMTquHngrBKYFeBYlAVhabaIDkuW5xZLLatQ/1/mGcKZlLSLhgvfuai2AcR4fIrZOqf/5nWiXxZycYMPUtkhAHfAPHBWCcwKcCzKgrAkSZLUrgpBuH6VtIuGiyBmYVUxIp7kYDzVvnXQ5Se/87qLfu07B2A3B0wKOgDgDkhDeyUwK8CxKAvCkiRJUruqHsKFYoq4ISXN3LBPS9e4pykVQYyJjKfUm0iZ12cUitEvlyG5VdD1c8CzBcAogVkBjkVZEJYkSZLaXUUoNkTDboEW95B2i7S4jzQLtYrXDvNQh2Jk3GAAzevuEqT66PeHJgAugn4ehPD1N6QQ7ikIS5IkSU3VAMamIAakxRXTDTBm5TTRLtAtmte4/rcBvn7b2QhglMCsAMeiXA/h7pWC8BmCsCRJktRUHpB+5bK/lrdhjhgQ/+BSzFzC1MjutTr4ZqJfbgCSTUF3MIBRArMCHIuyh/CFQPhyQViSJElqJzVgMgNidxet4hxxNrotRrsZFzx46+Dro9/ZC2CUwKwAx6IsCEuSJEkdpiyGfWo6C2Nvn6rOvpaNfPPwnU0ARgnMCnAsyoKwJEmS1KHKgzgL4xjn4TsbAYwSmBXgWJQFYUmSJGm2KA/SIkybd+i/OUAJzApwLMqCsCRJkjRb5e481ob/5jAlMCvAsSgLwpIkSZJUuhKYFeBYlCsI4WtSCHdPIdxZEJYkSZLmFSUwK8CxKBchvFMK4W4phC9JIXynICxJkiRJkUpgVoBjURaEJUmSJKl0JTArwLEoC8KSJEmSVLoSmBXgWJQFYUmSJEkqXQnMCnAsyoKwJEmSJJWuBGYFOBZlQViSJEmSSlcCswIci7IgLEmSJEmlK4FZAY5FWRCWJEmSpNKVwKwAx6IsCEuSJElS6UpgVoBjURaEJUmSJKl0JTArwLEoVwzC111/jfVIIXy6ICxJkiTNO0pgVoBjUQbCnQRhSZIkSSpJCcwKcCzKHsIXXNjNegHhewRhSZIkSYpVArMCHIuyICxJkiRJpSuBWQGORVkQliRJkqTSlcCsAMeiLAhLkiRJUulKYFaAY1EWhCVJkiSpdCUwK8CxKAvCkiRJklS6EpgV4FiUKwjhq1MIX5hC+BRBWJIkSZpXlMCsAMeiLAhLkiRJUulKYFaAY1FuDOGegrAkSZIktUEJzApwLMqCsCRJkiSVrgRmBTgWZUFYkiRJkkpXArMCHIuyICxJkiRJpSuBWQGORVkQliRJkqTSlcCsAMeiLAhLkiRJUulKYFaAY1EWhCVJkiSpdCUwK8CxKAvCkiRJklS6EpgV4FiUBWFJkiRJKl0JzApwLMqlQ/jUHISvu9ou7nGhnXa6ICxJkiTNM0pgVoBjUXYQ7tQA4bvzED4vAsID3ulv1wrCkiRJ0rynBGYFOBZlD+HzL+hml/UShKtahUJBlmU5aKndlMCsAMeiLAjPBaqtrXX+8ccfbebMmTZjxgxZlmVn+gT6Bt9PSBVXArMCHIuyIFzlmjVrln3//ffuj62mpkaWZTlo+gj6CvoMqaJKYFaAY1EWhKtY/DEJvrIst8X0GQJxRZXArADHoiwIV6kEYFmWS7VAXFElMCvAsSgLwlUoAViW5XItEFdMCcwKcCzKFYTwVSmELxCE21ksrGBeJ/8HJcuy3FbTl2ixVtlKYFaAY1FugHDXOgjfUQqE38pA+GRBuB3FH4yiYFmWK2H6EkG4bCUwK8CxKDeGcA9BeE4W1/pxqUH+D0mWZblU06foOuKylMCsAMeiLAhXkfhD4Zq//B+RLMtyqaZPEYTLUgKzAhyLsiBcReIPRaloWZYrafoUQbgsJTArwLEoC8JVJEFYluVKWxAuWwnMCnAsyoJwFUkQlmW50haEy1YCswIci7IgXEUShGVZrrQF4bKVwKwAx6IsCFeRBGFZlittQbhsJTArwLEoC8JVJEFYluVKWxAuWwnMCnAsyoJwFUkQlmW50haEy1YCswIci3LJEO4cgPBFF19gp54mCLeXBGFZlittQbhsJTArwLEoA+GdMxC+6+5SIXytINzeEoRlWa60BeGylcCsAMei7CF83vld7dLLBOE5WoKwLMuVtiBcthKYFeBYlAXhKpIgLMtypS0Il60EZgU4FmVBuIokCMuy3MTTpxedfz3SgnDZSmBWgGNRFoSrSIKwLMvO331nM77+2mZ89pnN+Phjm/HJJzZj6FCrmTixzUAWhMtWArMCHIuyIFxFEoRlWXYAHjDAfjz8cKtdZRUrLLecFZZf3mZttZV9/8ADVjNuXJtALAiXrQRmBTgWZUG4iiQIy7I848svbdbuu1thoYUs7Wgt7TCLP3/xC6tdc02b2bevA3V+u+YsCJetBGYFOBblCkP4fEG4HSUIy/I87qlTbWYaBRP51gM448LCC9sPPXtazdixTbdtxoJw2UpgVoBjUS5CeEcH3SKE/1MqhK+sg/BJgnA7SRCubk+fPt2+/fZbmzBhgk2aNMn9ni8Ta7adPHmyq2vixIll1SVXkdMId+Yrr1hh6aWbABgXFljAfjzpJKsZObLpts1YEC5bCcwKcCzKgnAVqT0h7Dv10aNH29dff22jRo1ywOD1adOm2fjx4+2bb76xESNGNDGvjxs3zqamo3R+5sv596mntX3l2xVjX9/ItOOhLr+fOc0A84knnrDbbrvNnnvuOXfM+TKxBuL9+vVzdd13333u88mXKcWcS9rJucx+ZvIcYiDct2/LED7hBKtJ/+aabNuMBeGylcCsAMeiLAhXkdoLwnS0wPDpp59OP/Dz7B//+Id16dLFHn74YRsyZIiD5X/+8x878cQT7d///ncTn5D+0d9888325Zdfup/HHnus/etf/6o3v99www02duzYVvf1XTNzWQAeoLMt/86+B5BeeuklO/XUU+3iiy92IG5tm9nhYcOGWadOnWz55Zd3xz18+PAmZWINJDt37uzqWn/99d25y5cpxQwM+Gw4l9dcc43bT6mDI7kdLAjPiUpgVoBjURaEq0htgTAdJ2lKIESU1FJHSkfbtWtXW3nllW2JJZawZZZZxv1cbrnl7KCDDrL+/fs72P7hD3+wxRdf3HmxxRazRRZZxBZI/+j59yGHHGLvvvuu7bvvvu5LtdBCC9miiy7q3vv9739vhx56qINOa/v64osvmrSV3wEYMD/ssMMawYv3hg4d6rZdccUV7YwzznAQbmmb2WXaudlmm7lztueee1qSJE3KxJrP9eijj3Z1rbTSSvb55583KVOKp0yZYn369LG11lrL1lhjDRexk2XIl5Pby/6a32b+XgXhOVEJzApwLMqCcBWpLRD2Ec1xxx1n9957r0sx5stgIsR33nnHVl99dfvNb35jW2yxhV1wwQUuYuN3wEuUeuWVVzqQHnDAAc7AduONN7Zf/epXtuCCCzr4DRw40Lbeemu3HZDda6+9XFkAffnllzsAt7av3r17N+r0gSlp0UceecS9T72vvvqqAyyDC46LdCzv/fGPf7QXX3zRbd/SNtSJ+TcgJIoE/kTM2bS4j6Qp49PslBs8eLB7LTsXm62P96kT8GfnfkMQ5j32yX6o+7PPPquvn2PLtoXzRxnqHjRokMsyZCEcW5cvx/HQJuqjDBkPIExG4+CDD3aDLQYwvp35745cIXNup4y3mrFDrGb0p0WPSQdVE9OB47RcZkgQnhOVwKwAx6IsCFeR2gJhoHHttde6z+Lcc891HWy+DKZzJ9IlrQlMTznlFPf7JZdc4iLdpdM/duYxfVoXsGAgQCTGNkSgwO/TTz+1P//5z+410q1vvvmmAwHw8x18a/t68sknG0EYWPDaX//6Vwd8vMEGG9hOO+1k99xzj9vn3nvv7aLuI4880rWttW04N5S75ZZbbLfddnNRH+8ffvjhbsBBW4EOx0wGYNddd7Wrr77aRdWbbLKJG0TwGmUBMSn2r776yqXcGVAQQa677rpuAEI7PPhDEOZYX375ZQfUDTfc0A0YqH/33Xe3u+++28aMGeNS9B9++KGdfPLJrsx6661n++yzj2vDfPPNVw/hmLpoB9MCtJ3Pj/ass846tscee7jpgY8//tgB+/HHH7dll13Wfbb5gZFcSacAnjTKat650Wru2Nhqbv6/om9d22qeOtRqRrzbGMSC8JyoBGYFOBZlQbiK1BqEsxEOnXL37t1dmpc5WzpXXs9GRH4bIh86dFLIa665ppsPBDb8TrT6ySefNNrGR89/+tOfHFBIBQMUgEs0+tvf/tZ22GEH69Gjh5tLfu211+oXTLV1X7SZ9i+11FL2k5/8xH72s585OACO66+/3kF81VVXdVHb7bff7o6vpW0AJTCkbSussIJrPwDHv/vd72zttdd2kTVwpdxWW21l888/v6sLL7nkkg58vLbddtu5SJNjYy6a+qiD9DsDCgYaAPP55593EAtBmP3cf//9biBAap5tSeFzDnmNdDDbkdHgGH/961+7ttIO6vnpT39aD+GYujg/LOhisMQ5532yBQyMNt98czelwOfLZwnI2SdZDAYu+e+bXAFPnWQ1nz9lNbetZzWXL2Q1veav8wJWc83SNv2Jg6xmwlcN5QXhOVEJzApwLMqCcBWpNQiT+qSjZQEVqeNNN93UddREZaSEjz/+eHvooYeapKbZjoiNjtqnl0kPAy0f7WXLE1H17NnTfXmADR0/ZT766CMXff3yl790MPJzwkSGlAeOPkqN3RfRMxE1kR/lACHHwGukXF944QXXBsziLMq3tA2DgAEDBrhzwv7ZL207//zz6wcQ2267rQOfh+YvfvELB6wjjjjCbrzxRgdQygF2Uv4MBIAt+9pyyy3tgQcecAvUABvbAVCf+s1DmIEJmQJAx0rnZ555xs2Zc/4WXnhhu/DCCx3EGWhwXjlvDCDOOussN8DKQri1uhgosM877rjDwZV2HHXUUe7zoM287jMmRPZMJ/D5MaAhFZ7/vskVcBoFT3+pSwrcpTIAzoD4lrVs+sgPG+6AJQjPiUpgVoBjURaEq0itQZi056233uoiVADAh/vzn//cdcL8TpRHRwxE/TZEnUQ5RKweQnTYAIWOn+jSpzEpT0cPbImaiAiJeD0AgCJziUS022+/vQMGEKINq622moMJMIrdlzdpcNLCRJ8cB1E90RrHe+eddzqgAH/a5bdtbhsg/9hjj7lIkgHAaaed5uBIRAtkKU9kCFh5DWh6WBP9AyMA5xemXXbZZS7FDeiBJFH9SSedZMccc4yLjDk2zhFwDEGYNjEwAIIXXXSRywyQxqYdlCMFftNNN7nFa7SX96mHjAFpeOr3EG6tLlZTA1cGaqussor7XBi8HHjggS5dzTnyq9P5nBi0cZzAmO3y3ze5Ap74tdU8fbjVXLV4AMKpb1q1mJKeXnepmCA8JyqBWQGORVkQriK1BmE6UDpnIENUw6IaAEWHDzhYqMTiKSLF7Davv/66AzQdtU8jk2ql0ydlTETl5wQBH2lgv0KauVKfqqQu5lqBBNAhtQlEqBdgXXrppQ4AsfvyBgi+HsBGqpTX2S8LxmgLA4/sZTrNbUMWANgTpfPlZ96cYwL+RMMMWADef//7XzffDDT9YINjom3MkQJdjomFZbSB+ohKqRMoMiggJYx32WWXIIR5DWgyWKCNlAWObAsgKcf8LpG6by/nnvb6S5Q4b+yP42utLuaUOS8YSDNfzPHyHgMPInbqYCBDRNytWzf3GbPYjtfz3ze5AgbCzP1etVhTANdD+J0UwnWX2AnCc6ISmBXgWJQF4SpSaxCm8yQaIr1MJEiURhRIRETURSoYUGYjTTp0QMQXgegQ+NBJs9CKRTl00qQ+/WU/RFw77riji2JZzPTBBx+4KJj32C+LfgAV7WAbrjWlbuo588wzXecfs6/scVEGQAALjoeIl30CYYAKhAEOkZw/tua24RwAeiBKlM7+GDgARB85AzAu0wFsQJPXWLjEOWQAQ0TvIcy8O20A3ESllGPBF9EoJkp+9tln6+eYsxDmXD744IMurcz53HnnnV1qn9Xs1Ec5Fk9dd9117hhpL+llFoxRF1MMfmEWn0NrdXkI8zlxLCziYnGcj4oBMXX4dQWkoYEwC7son/++ya2Y7yIRbC6z08iC8NygBGYFOBblikH4mhTC3S8639LXBeF2UmsQzhq4Mi/J4hpAkU1BZw00gTVAIdpiztN36Mx50vGTsgWMgASokMIEmOecc049MAEvlwExH/nUU0+5dC4QIgoEToCN9jDHGbOvbBuJyoAP7wMjUqdE9ET9AI72UH/ftHPy6dTmtiHFzD6ZE2aRE/PmpLRJ4zOvy2ssWgLopNfz6eM8hFnZzVw0UaWvj/ln9kH6mqwE5yK0MItIG4ADOtrJIAUwnn322e53ypESZqUyAwnS4qT6Oa+k9JlrB55A+L333mu1LiBMWpnzwACIn2RB/Lwxn4mPtLNzwmQUgHL+uyMHDHC/m2Azvh1mM8d/6jxjwmCbMWlE+l7gRjSC8NygBGYFOBZlILzTzjtat/POtUsu7WF33iUIz7FqC4SBEcAhdcrlRNkUdNbAgcVNQInOGqABFH4SUfHvRx991EVHpCRZ7MTrzOGy6tlDD0CzqhgwsC1QBX5EanzJ6NBpB+nomH1l20jkBohIs7JIinrZD/PbQIRIjtcAk1/Y1dw2pL9JW5PiJfIjyvWpddoA7HiPQUsemiEI9+rVy0W0DEhYjUx9HDvpcf4OSL3TLtLg+fr8IjHmzgE42QHOAdEs5wczvwwsWYEOKClHZMs+gCYrv4EwA5LW6gLCDCxoD+WYp99oo43cMTNQoq0MZDhGvzqa88I0AoO1/HdHzpvrfcfa91/cb7X9DrBCn12LfnkPm9X/RJs5One5ERaE5wYlMCvAsSgLwlWktkAYkxIGsvkUdNa87q8bZf6RFDOdMvBicRUdNpEpHfMbb7zhFmTRebMCm5S3r4f3ufSFhUB8/v4SGRY0AZK3337btSVmX/m28jsABCKAArCwLVEbaWbSpQCJ1C2pZcq3tA1t4D0yAFxLzP55n0VVRPK8R+qanyx+Ama0l+PlXHKc1EW9pJ6pD8ACK+oA7tRHip3UPQMPnwLO10fETjuIcDkXnC8WdZEKBoLMU1OOwQY3SAG4tJfrkZmzpQ1sC1xj6iLCZTU0l175dlKWbbh8izpoK5EyoOc9VoDn5+nlgKdNsZkjX7favvuYPbux2TMb1nkjs95b2qy3jksj4tyd2wThuUEJzApwLMqCcBWprRCONcDyd1oiqgO2pDeJ1Px1xb4MUSRlSE9mb+7v54Tp5AEjoAK8lGURkY+YY/aVbx9mX+yTm1a89dZbblvgxzakyAEK0TlzuT7qb24bXsceniwgwxybf5/tGcQATjIKwJ3fs+eB1/P18Tp1kSXwx0V5tgvV57fjNdLWpKhps787Fj8pwzGxLXX6egEm++MYOL8xdbFPzhlluGSLyJe0Oe/7BzYwP87NVsgQ8JPfm/tc5Iy/G28/fHqLFZ7/awbADSAuvLS7zRz3UcNKZywIzw1KYFaAY1EWhKtI7QXhrD0ssoBtq6kDKFBP/r18ubbuy2/jocBPIAQsWAns7x3d0jZ5e4jmXy/V1OWhmH+vObfWRu+YtsbU5cvk2+nvHU0UTZSte0d7s8iqlYVWU8bYj4Mus8JzfwlAeEMr9OlkM8cMbAAqFoTnBiUwK8CxKAvCVaSOgHA1GkgQeZJuZTV2c4vQ5NZNNgMIc+kVl7X5W3jmy80zBropXGdM/KLxQqvJ3zSGKXYQvlQQnveUwKwAx6IsCFeRBOGwgQQRHMAAwK1FinLz5lyyuI1zySrpefpcpueCOdwfP7rCmOdtWGi1p8165wyb4VLLGaAKwvOqEpgV4FiUKwzh8wThdpQgLMsd6KkT7fuhD1rhpV3cnG4DUNN/P7+NzRp4ThoRZ27nKQjPq0pgVoBjUW6A8DkphC8uB8JX1EH4REG4nSQIy3LHmZTzrAGnmvXeoglQ3UKrl/eyGROHWv2zfwXheVUJzApwLMpNIXy7IDynShCW5Y4zqeja148we3aTJkB1UH1pVzc/XL9QSxCeV5XArADHoiwIV5EEYVnuOBchfFjzEO6TQni8ICwJwvOMBGFZ7jgLwlKkEpgV4FiUBeEqkiAsyx1nQViKVAKzAhyLsiBcRRKEZbnjLAhLkUpgVoBjURaEq0iCsCx3nAVhKVIJzApwLMqCcBVJEJbljrMgLEUqgVkBjkVZEK4iCcKy3HEWhKVIJTArwLEoC8JVJEFYljvOgrAUqQRmBTgWZUG4iiQIy3LHWRCWIpXArADHolwRCL894C27+por7MLu59kpnQXh9pIgLMsdZ0FYilQCswIci7KD8E4phLudYz0vSSF8pyA8x0oQluWOsyAsRSqBWQGORVkQriIJwrLccRaEpUglMCvAsSgLwlUkQViWO86CsBSpBGYFOBZlQbiKVCkI8+D2qVOn2pQpUxr5u/QPnPfy5WPMw9/HjRtX9oPg2XbChAk2ZswYmzx5sn377beu3nLqzJtjHT58uHtwfSXrnZvM96O57wPvTZo0qf59/30KlfevN3eeeZ3Pg3It1TM7LAhLkUpgVoBjURaEq0iVgjBwGzhwoPXp08deeOGFevfr188BMF8+xkDzhhtusNtvv91BM/9+jOmQv/rqK7vtttusZ8+e1rt3b3vooYdcnWPHjm1SvhTTyQ8aNMgOOeQQtw9AnC8zOwx4OPfNwaojzfeDc/TWW2+5QRCvAcWJEyfal19+aQMGDLAnnngi/dt/1YYMGWKjRo2yd999115//fX68phj+vzzz+21116zr7/+usmx8f4nn3xiL7/8sivHtvx888033fdpdoNYEJYilcCsAMeiLAhXkSoFYaLAgw46yFZccUVbffXVba211nLedtttXaeY7yxjTOe822672f777+9Amn8/xnTy9913n2255Za2ySab2Prrr2+bbbaZ9ejRw3XK+fKlmI4fKHDchx12mINDvkxHmzZ98MEHds8991RssFGq+ew//PBD22uvvezQQw91nyUwZLDCZ7PLLrvYOuusY2uuuab72alTJ/vPf/5j++yzj/us+P54ePKZde/e3TbddFN75JFHGgGa/Xz22Wd24IEH2tprr22XXnqpJUmSdkB32l/+8hf3s9QBYaUsCEuRSmBWgGNRrjCEuwnC7ahKQXjYsGG2884725JLLmnnnHOOXXPNNc50piNGjHCQHjlypPv3F198YUOHDnW/04nyHtEPHSapZ9/h8u9HH33UnnrqqfqIjoiYTpzyQJo6iLIATf51Hwn+97//teuvv94efvhhu+CCC+yKK66wjz/+2EWw7IeflKdNvh3Au7moidd9+pny+Nlnn7WVVlrJRcNAOF8nZUm3huqkbCnnp7l98DqvdenSxTbeeGMXXfL5cJ58at6fK0x7fduybfkm7XSpBxOZcj6zbY49Z4CTQQ+DsltuucXtn7L333+/rbfeeg68p556qst6kEno3Lmzy6LssMMOtsoqq7gI2tdLO8444wxbeeWV7e6773b1+M+E9rCf5ZZbzhZeeGHr2rWre43tt9tuu7RT2sk++uijkgaElbIgLEUqgVkBjkW5AcJnpxC+qFQIv5lC+HJBuJ1VaQgTCRMV0vnRYdIBA0UioBNPPNGOOuoo22qrrWzzzTe3k08+2aWGARdRKlHvzTffXJ96pmMnCv7nP//pwACgrrrqKttvv/1cZEsEdeaZZ1r//v0dWLOvAyBgRl333nuvi8LYB50+Efvzzz9fPwf5/vvvOwjQLiLl3Xff3XXwRGohqACzV155xQ4++GDbYIMNbMcdd7Sjjz7alk47MY6Fc0Gdp5xyim299dZuv3//+9/tmWeeqYdG1gCRCLot58e3O7QPztWVV17pADbffPPZFlts4c4j0wVsy8DmgAMOcPsgojzyyCMd9Dgf2bYce+yx9te//tW22WYbO+ussxzM2G9bzhn/JpJlP5wnIlVe4xztuuuutsIKK7ipAj/AYDDFdwewA01gS1qatnHeOTb2m4cw7z/55JNu0EHUu9RSSzkI0x6OmfNBH3Lddde5/eQ/g45yEcKHNw/hl1IIT6gEe6aeawAAgABJREFUhA+LgHDdYCQGwun3oSb9XPLH05wF4bKVwKwAx6LcFMK3CcJzqioN4d///vduvhXIvfjii/bOO++46INohy8GENx7773d57nIIou46BEY7Lnnng7gdOikUYlWBg8ebH/+858dZOjIH3/8cVtjjTVcR3vcccc5CP7jH/+wm266qcnr//rXv+o79rvuussB6qSTTnLlgRM/AQ7tZoDwhz/8wTbccEMHOjp46sunOzEAAe577LGH6+g32mgjB5M//vGPtuCCC7p9c8yAjGPjuIAox8txvPfee00iMY6zreeHgU1z+2AQ5CFMRAjYSeGyH4DU3PkAcL4t7JufpIQBKPu56KKL3KCqLeeMjAHrBGgbAwYAyzkE6KTvGSB8+umnTQY72e8T0TOZBubzyWYw2Fp++eXrIezn5P/2t7+5VPbFF1/s2uMhzKCBbABt4PtBhJ///naUZ0weYbP6H2/We7MmQLVnNkohvEcK4S/SsnXn47tx9uPH11rh+W0C5YHwLjZz7AcNQMXfpsf33HFWc/USTQGMb/6/NKp9v2Gb9PzNfP11KyyzTBMA48JCC9kP6SCspg1rHQThspXArADHoiwIV5EqDeH555/fdep0yOuuu64dfvjh9sYbb7jfl112WdeJAmXSjosuuqh7ncVbgOWII45wnf0DDzzgOnIPBKJb0sfMHxI5sR9S1GwDnIFK/nXaQ+cM8IigidwAIJ0584zMP7IYiAgQgAI64EWkdvXVV7uUJkDNz+8CFWBAO6mHbWgDaVCOjwjzwQcfdHUSnT799NMOQtQFREnP5+clOc62nB/meYl4m9sHkSXHBpAp//bbb9fDiHPS3PngNY6ffS6Tdsh8DrSNc0q9DDaIUNlX7DkDknfccYetttpqLovBIIBz+Nxzz7k6GXCE5vuz3yeACrBpF/VwXpj28BBm8HD22We7wQLnnu8D7fMQpj7a+Kc//ckNnhic5ffXYU6h+sOnN1vhhe0ddBtBtffmNuut49JoOfOdmzbJvh/+rIuQm5RPo+naVw+2GRO/tHpo4ynp92vgrVZz48opdBdoDOArFraae7ex6WOHNJRPB0Az0u9wbfr3aj/9aWMIp31uIR0IzUz/9moCWZzmLAiXrQRmBTgWZUG4ilRpCC+xxBJ2+umn22WXXeZSxKRT6eyZDyTKozMkdcg8LdEMURydImlIwAPAfcowC2E6fxb3kNIkAiNCJuVMKpp0Zf51wEP6knoADVEYERQpTtLGAAOYELUDcFKyfi6XOgEEcGLOM3ucABSQ0nbS5GwDVF566SUHCyLHyy+/3EECkDGvyXnhOKizV69eTRZKcZxtOT+cW+ZPW9oHkeH222/vylMn+yHapP3NnQ8GS0Slvi0+QmV7fgf4fAYscIo9Z7SbyBR4AkgGV5wvMiXUQRQdgmL2+8QcMYMcjr9bt25ucEGEDISJrKmXAR9RLqugyYww+GA7VkYzECNzwCJBBg5kMvL76zCn0eeMCZ/brLdPcWAtvLhj0X06uTT1zJFvpOCdktkmBeSkr+zH98632pf3bCj/4k5W2+/v9v1XT6eRbONsjYtwx3xenBe+ZQ2ruWGl1CsWoXz35jbjsyfSwUBum/R78X36udamn30h/V4VFl/cCum5r00/ox8PO8xmcM4CUzPNWRAuWwnMCnAsyoJwFanSEKbz85eDEPUQqdARAghSj3TQwJFoEkDQkROZURZ48RpRFb9nIcx2dN6keolwSIMCDiDCXCfQzb8O/Pv27evgQRRFipoyAAXAkS4HqMCAOV3SlHTYQB2gkt7Od9hAjPQo2/jUZhbCpESBBalqVugyt8qggIEJC9b8XHS2Tn+cseeH+jlHLe0DcHoIA1P2QyRMVN3c+fBRfbYtbMcAiDQ4qXcgDPxizxnfgzyEKc9nRtsYNBGB51P0oe8TQKctpNF5nXbw3SL7sHgKDeanGbQQES+wwALuOJjLBtRAmMVZDBLyn2mHe/pUB9aZowfYzK/7pH7RwXfGxLRd0yYHyqfgnvyNzRzzXkP5b/rZjPHp4Goq0WkAjswRjx9mNclrVvNpCt1PHrOaIc9ZzaiPUgAHtgGw6YB1Rvo3M/Opp2xmOnie+cgjNvPVV20Gg6S6RYyxFoTLVgKzAhyLsiBcRao0hImGmH+jc6bzIx0IBLIwzUKGjjwPmRCE6TiJakld0vECGjpVYECamrLZ12kHaVuiQiJk5ky5RpXol9QroGZxFZBeddVV3eIjUrgcB9Ex7wPUfKoUgHI9K/UTgQIf2kZ0SjqZBVDAAUgALUBPuzApdY4rP/+ZH2y0dn44JuZeW9oHx0H6mDJ8HkCMz4IV682djyyEfVtoXxbCwJ36Ys8ZgzAGOpT36Wj/fWExF+fswgsvdPWykI/vDNE154SBFMfb0upozj0LtciE8P3jJ2BnQZqfh+a7OMeko+udHs/074rQxfw7D8a8AasvT7ScnQcOOq1vWlrv1El1jtiGwVD6/athXp/BIivi2xABewvCZSuBWQGORVkQriJVGsLM19HBE50RsZA+5IYLRGyxkAlBmHlSVvVS/rzzznPRFVEXnTvRHxFj9nW2Y94RWFGGCIi2sDKa9CvpTKBDe3iNSBBoUT/bMqd46623Npm/BQYMKlg1TCTKqmtWEROB88VnTpTU7L777uugRGRGm1gYxWpnYJCP+toKYc4PYGppH4CHleMcF58HUwNkBjiHLZ2P1iDsL0eKPWdkCRgkZBdm8bq/RIkBAPVwLLSX9rOQLPYSJQZmHCvfP6JdPpsbb7zRDZLYH79zPueUhVnzigXhspXArADHoiwIV5EqBWEWx7Bilo6YRTR0rhhYEW2RGqWjJUqiYyYCJX1IGpWOlc6UDpzX/OIlOlUiG7YjymN1NB0zQAcKAIDULOXzrxN1+c75hBNOcNGRj4SOP/74+iiOyJYUNxBnW9K0wIZ6OaZ81IoBCDBjjpHvJUADxFwawzwkkGLgwaI05ir9HCtRcgjC2eOMPT9EtS3tg7QvKXIGCXwOHC93kQKiLZ0P3s+2hfb5qJrIlX+T1o49Z9lLlPiMaBuvYY6BFDV189nRTgYz3GyD42dAw/Hmb9bB/DCDhMcee6zJ6nU+TxaS8Vn4+fc56RKlecWCcNlKYFaAY1EWhKtIlYKwv8kDsKSj9SZd6G9NCJwoR4dK50mk5ecUMR0mr9Fp8judvd/O33gDSBBpEtXxnp97zr9OXdThVwMTSTP36PdJGSIk2kLdpECJmoALkSn15mHp7dvPsVGe7dgHdfKTfQJS6iQ9zJwm7QJgvJ6vL3ucbTk/Le2DOgAS9ZIyJ5rk/LV2PvJt8e2jXg9g/1rsOfPzwgwUWLntI2V/nNRLe5jXpz72zesMAvxaAF8X9TMo4XXqyQ+S+J3Xed+vCKduBgCYOe1QG+XKWhAuWwnMCnAsyoJwFalSEO4o08n6S49iXs++39x7bSmTN+XzIMi6tXZVwq3tw0M8v03+tVIcUw/vMwgg6iZyZ7CWL+OPoaVzWYoZALI2gIiaAYCi4I6xIFy2EpgV4FiUBeEqUrVBWK5OE2UTMbMYLnTXsPYyUTSRMKl5IuhKQ14OWxAuWwnMCnAsyhWD8FVXX24XXNjNTj5FEG4vCcJyR9hHuj5Vnn+/vcy+SEl39H7ndQvCZSuBWQGORdlDuGsK4R49L7I7BOE5V4KwLMuVtiBcthKYFeBYlAXhKpIgLMtypS0Il60EZgU4FmVBuIokCMuyXGkLwmUrgVkBjkVZEK4iCcKyLFfagnDZSmBWgGNRFoSrSIKwLMuVtiBcthKYFeBYlAXhKpIgLMtypS0Il60EZgU4FuV2gPAJgnA7SRCWZbnSFoTLVgKzAhyLchHCO6QQPiuFcPdyIdxVEG5HCcKyLFfagnDZSmBWgGNRFoSrSIKwLMuVtiBcthKYFeBYlAXhKpIgLMtypS0Il60EZgU4FmVBuIokCMuyXGkLwmUrgVkBjkVZEK4iCcKyLFfagnDZSmBWgGNRFoSrSIKwLMuVtiBcthKYFeBYlAXhKpIgLMtypS0Il60EZgU4FmVBuIrEH8rMmTOb/BHJsiyXavoUQbgsJTArwLEoC8JVJP5Qvv/++yZ/RLIsy6WaPkUQLksJzApwLMqCcBWJP5QffvihyR+RLMtyqaZPEYTLUgKzAhyLsiBcZZo1a5bmhWVZrojpS+hTpLKUwKwAx6JcMQhfedXldv4FXe2kkwXh9pRS0rIsV8pKRVdECcwKcCzKQHjHFMLndk0h3KO7/ecOQXiOl6JhWZbLtaLgiimBWQGORVkQrkIxcv3xxx8FYlmWSzJ9B32IouCKKIFZAY5FWRCuUgnEsiyXYgG44kpgVoBjURaEq1j8EZFOYl5HMJZluSXTR9BX0GcIwBVVArMCHIuyIDwXKAtjLrznj02WZRnTJwi+7aoEZgU4FmVBeC4Sf2CyLMshS+2mBGYFOBblMiB8Yg7CveogfLwgLEmSJM0rSmBWgGNRboBwF0FYkiRJktqoBGYFOBblxhC+MIXwrYKwJEmSJEUqgVkBjkVZEJYkSZKk0pXArADHoiwIS5IkSVLpSmBWgGNRFoQlSZIkqXQlMCvAsSgLwpIkSZJUuhKYFeBYlAVhSZIkSSpdCcwKcCzKgrAkSZIkla4EZgU4FmVBWJIkSZJKVwKzAhyLsiAsSZIkSaUrgVkBjkVZEJYkSZKk0pXArADHolwZCL/9pl1xZa90o6524kmCsCRJkjTPKIFZAY5F2UF4xx3snHO72MUphG//jyAsSZIkSbFKYFaAY1EWhCVJkiSpdCUwK8CxKAvCkiRJklS6EpgV4FiUBWFJkiRJKl0JzApwLMqCsCRJkiSVrgRmBTgWZUFYkiRJkkpXArMCHItyhSF8bgrh4wRhSZIkaV5RArMCHItyEcLbpxA+s1wIXyYIS5IkSfOaEpgV4FiUG0P4ghTCtwjCkiRJkhSpBGYFOBZlQViSJEmSSlcCswIci7IgLEmSJEmlK4FZAY5FWRCWJEmSpNKVwKwAx6IsCEuSJElS6UpgVoBjURaEJUmSJKl0JTArwLEoC8KSJEmSVLoSmBXgWJQFYUmSJEkqXQnMCnAsyoKwJEmSJJWuBGYFOBZlQViSJEmSSlcCswIci7IgLEmSJEmlK4FZAY5FWRCWJEmSpNKVwKwAx6IsCEuSJElS6UpgVoBjURaEJUmSJKl0JTArwLEoVwTC/VMIX37FZdbtvBTCJwrCkiRJ0jyjBGYFOBZlD+GzzznTLro4hfDtgrAkSZIkxSqBWQGORVkQliRJkqTSlcCsAMeiXGEIn5NC+FhBWJIkSZpXlMCsAMei3ADhM8qB8BsphC8VhCVJkqR5TQnMCnAsyo0hfL4gXM0qFAqyLMtBS+2mBGYFOBZlQXguEH9gs2bNsh9++MFmzpxpM2bMkGVZdqZPoG+gjxCM20UJzApwLMqCcBXLw/f77793f2w1NTWyLMtB00fQVwjGFVcCswIci7IgXKXij+jHH38UfGVZbpPpM+g7BOKKKYFZAY5FWRCuQgnAsiyXY4G4okpgVoBjURaEq1CkkwRgWZbLMX0IfYlUthKYFeBYlAXhKhMjV+Z18n9QsizLbTV9iaLhspXArADHoiwIV5lqa2sVBcuyXBHTl9CnSGUpgVkBjkVZEK4i+bng/B+SLMtyqdbccNlKYFaAY1EWhKtISkXLslxpKyVdthKYFeBYlAXhKhJ/KFx4n/8jkmVZLtX0KYJwWUpgVoBjURaEq0j8oWg+WJblSpo+RRAuSwnMCnAsyoJwFUkQlmW50haEy1YCswIci7IgXEUShGVZrrQF4bKVwKwAx6JcOQhffql17XaOnSAIt5sEYVmWK21BuGwlMCvAsSgD4R1SCJ919hnW/aLz7TZBeM6VICzLcqUtCJetBGYFOBZlQbiKJAjLslxpC8JlK4FZAY5FucIQPlsQbkcJwrIsN/J331nN6NE2I0mca0aNspopU6xm+vSmZZuxIFy2EpgV4FiUGyB8eh2Eby4VwpfUQfgYQbidJAjLsuwMZL/91ma+9pr90LWrzdpjD5u1++72Q5cuNrNPH6sZPz4axIJw2UpgVoBjURaEq0iCsCzLzmm0O7NvX6tdd10rLLSQFX79ayv86ldWWHBBq11rLfv+ySetZtKkptsFLAiXrQRmBTgWZUG4iiQIy7LsPHKk/dC5sxUWWMDSDrOxf/Mbm7XffjZj+PCm2wUsCJetBGYFOBZlQbiKJAjLsoyZ/521884u+k07zMb+yU+skPbBMwYPbrJdyIJw2UpgVoBjURaEq0hzKoSnT59uU6dOte+++879O/9+KeUo01q5tpad2z1t2jQbmUZIX375pSVpJz1p0qSKnBM+sxEjRtTXO4WFP4Fycsd5RvpZzNp2Wyv88pdNIZz2vYWVVrIZn3/eZLuQBeGylcCsAMeiLAhXkToSwnToo0ePtsHpaBqPGjXKvZYtQwc/fvx4GzJkiL311lvWr18/++yzz9x22bIx5ShD505n/8knn9jrr79ur7zyivv3119/7SCbbdu4ceMcFD788ENXjjo/+ugjV3by5Mktwof3qKO5MrRj6NChTY67te1mt2lr165dbdu0c95jjz3sjTfeaHTeSjWfyUknnWRbb7217bXXXu6c578L5Zi6xo4d674fX3zxRcUGD3OzBeE5SgnMCnAsyoJwFamjIEzH/emnn9rZZ59tq6++uq2xxhrWvXt3B01fhk6Szvn666+3zTff3JZbbjlbdtll7c9//rN169bNdaYeWK2VI9IC0sD0mGOOsbXWWsuVWWaZZWzNNde0f/7zn9a/f38HR+oDtNdee61tv/32tlLa2Sy99NKu7B//+Ec77LDD7OWXX3Ydef64MPsaNmyYffDBBzZ8+HD3e/7YGShsueWWts4669g111zjgN/adnOCadcBBxxgCyywgP3+97+3Z555xg1I8uXaao6bc/3b3/7Wll9+eXvzzTcrevwTJkywu+++2/70pz/ZRhttZH369KlIu+dmC8JzlBKYFeBYlAXhKlIpEKazpHOOSU/yHmXeeecdB7PFF1/cfvKTn7hOvXPnzi7V6csCzZtvvtlWXnll+2XaEcw333yu3C9+8QsHxbPOOsuVjyn31VdfWd++fR34FlpoIVdu/vnnd2V//vOfu9d22WUXF5nSOT///PO27rrr2m9+8xtXbuGFF3Y/f/azn9mCCy5oO+ywg4u0Q8cKwI899lg3CLjssstcBJY9fgYMp512mi2yyCJuAPLaa685MLe03ZxizuO+++7rzsuSSy5pTz/9dBBmofPSksk4bLPNNu4zY7BDhN0chNtaN6augQMH2vrrr2+/+93v7Mgjj3Tf11Lqqm6nxzttitVMSge7E74qetKY9LWm2QxBeI5SArMCHIuyIFxFKgXCAPiQQw6xPffc0wGlpfk8OuyXXnrJOnXq5MAH1Pgc8xCmcyRdu+uuu9qvf/1rV/aggw5yKUvACjiJZgcMGODA2Vo5olw64e22286Bf4MNNrB///vfdvjhh7tyP/3pT11k/NRTT7lBAlA46qijbL311nM/L7nkEjv66KNt0UUXdYMGyj733HONjpU2c3ykuYErnT3teP/99+sHKLxPFM33178PlFvbjrox+/vmm2/cufk87QBpJ+csmx4nO0DamG15b+LEie4zIhWLAem3337bCEC+btri6+Yn+8oeYwjCtI9BBFkMIlo+D7Ic7IuBRX5gxr8ZOFHWHwPR/1//+lc3OMpCmLIxdftzT/vJfDBAoizbsC11cE7OP/981yGtsMIK9uSTTzabzZg7nX4GU8ZbzZcvW80r3azm8f2dp7/a3Wq+etNqvvu2UXlBeI5SArMCHIuyIFxFKgXCdIhrr722SwMDsVBk5A0Y9tlnHwdLIkE6Q6KfPITpNEkd/+EPf3Dvk0IkeqYDBpxEsADx6quvdinR1sqRqqbTBpwXXnihgzIdNnOP+++/v4MKX1RS0ACC/dORA3kARlQKxLfaaisHCiBMtJwFFP9+9dVX7cADD3T7ZYBBuzbbbDM3QGFOGYidfPLJDrRE7gCZVGlr23FOKUd5Bg+k3VdbbTU3h0p9tIV2AyNgc95557nInnN65513uhQynxGp97333tseeeSR+vKYuknR/utf/7JNNtnEpd033XRTF5mzf6DNMYYgDOQ//vhjt08GOQwk+FwZwBx88MH23//+t9G++BxuvPFG22mnndzfMcdw4oknumPKQxjH1E37XnzxRdd+BlicW6Y4SHEDXsDM5/P222+7QRnft3/84x+uLfnv6FzrqemA4/OnreaOjazmmqWt5spFi752Gau5a7MUxK83iogF4TlKCcwKcCzKgnAVKQbCPjqh46YDJGIDCEsttZQ9+OCD9Sni0OIl5j5vuOEGB5guXbo4k+rNQ5hO9f7773dRK/OEAJUOk3oBJV8q0sLHH3+8A2xr5Uj/+ohxzJgx9VEWkdLf//53t+0SSyxh9913Xz1wKAN8gTBRIQOMVVZZxaWlAQKRVvb4iBoBInOlRNZEzJSlXgAIsBgcAHKOd7fddnNRYMx2tJn9Axi2pb0cF+UA+sYbb1wfxft5W15fbLHF3OCIgQgDHwYqAJS0rE+Dsw1RIXVTJ58H55Of1MFnxSCBsiEIc64BIOl7zjf7xAwoaB/1MhUABCnL58U8+69+9SsHXQZjbMcxcexZCLNNa3WTWXn33XftL3/5i2s/9dB+zh9laf+gQYNchoBzA3w5h5xbIvH893uu9cThVvPfg63mqsWsptf8jZ1CeXrfc6xm0qj68oLwHKUEZgU4FmVBuIoUA2E6YyLI2267zYHuggsucACmk2fR01VXXWU33XST63jz6T6gBVDoNIHYFVdc4TrhPITprK+77rp6iJ5++ukuwgOQgN5DFyAQJbVWjvnnfNRDBPfYY485IAAnOnSiXT8X6d+n0wa6lKPjp1NngMD72frYJzAjsmafgIpo9PLLL3fRKBkD0q5EaX4AAYBjtiOSI4LlPeBFG0444QS3ShkgkYqnjZTLgpKoms+G34877jg3iOA1zpefdyY78be//c3tm8+Q9Pstt9xiRxxxhPtcaCv7oq0hCPMZU8eZZ57p9nHllVc60NI22srne9FFF7nPnc/cz/3yHlE335ktttjC7Z+/6Xw6urW6Wa3Nois//UAEzPeK7+Cpp57q9u2/V6SmWazH4IJsRktzz3Odxw6xmlvXTaG7QFMIExE/vl9xjriuvCA8RymBWQGORVkQriLFQBj43HvvvS6SoMOkM6bzI4rjw6YzJJ15xhlnNFpo5U3H6qNMOtUQhHmPeViiMcBwzjnnuA6UDp8UJPsEBKQ02a61coADgPg28D4RFFEpAKNDpi2Awpchauc1wEX9lOP4ABKRYWiAQYr74osvduWBF/Ag2iVrAGxfeOEFd354n+PjOFvbjuid9DlpWCJFfpKWBoqssmYhF+efSJoUPlG7ByXnlfllUrqk1/k3r2GibwYmpGipk8+POgBw7969XcoYgANMzhPtaQ7CfCcYmLGqmfP60EMPOZizHwYupNDZlvNGZM5xsAqaFDjHznw4KWYGCHkIt1Y3K9sfeOABl8KnXj4j3n/iiSfcoIf6PWg5nwweyQwwQGOg5jMfc73HDraam/+vKYAdhP/Xah7ZM4VwUl9eEJ6jlMCsAMeiLAhXkWIgTKcLTIgQmbNkpTAdIpBiHnH33Xd36VA6cUCW397bQy4EYSJhLt3xES5Q8hHuww8/7FKNRE5cU0ok1Fo5Fo75SJj2E6UTOdKJA0UiaCCTvTaVcqRCSZkTFQIiIij2RSQKvPJRFFAlwuSYGBSce+659ZddAZO77rqrPqVK9Oaj6Za2yw4oPBABLe+RXvVz2oAFwABbD0r2QzTNfjinTAXQfo6byJJ0PFE4dfN3Qf0MSAAkP6mDlDHzqH5RVx7CDFyYayfbwJwz26644orufcBOpA4oaTOZBT4T9kP62B8H9RKN8x3KQpjPsbW6+Wz4LFiQR920l+8TmQvmiBmY+AETA5pnn33Wbc+55vvX0nd0rrIgXM1KYFaAY1EWhKtIMRAmOqFz9Jcl0WES+dIB+vSpX8zU0g0XWoIw9TM/S7RCR8vKZCIaIhkuRwI4bEPEQ9q6tXIs/PGpX6IpAMzrgIZLmGhzvq3+OIE6ddLRsx2dPF/qSy+9tMllRC3BFBDecccd9RC+5557oiAMOICdhzDpXAYMvMfAAvgARdpEqpabj3hQ8pkAcL+w6/bbb3fnBAiz6Ip6Hn30UVeOvyfO4YYbbujSw1zOhYE+8+aAMg9h6mbxmp/nZsDD/C2L71gURbkshP3AiHPI+/44+L6wD8p7CDMfzHqDmLr5HhItk3pmWoFzwbliYMZnRkTM58t5IMonwudck/KvagizJmHqRJsxZZTNmPxN+jP9zkwlsg9ceiUIV7MSmBXgWJQrBuFeQLjr2Xb8CYJweykGwnkzz8eqVSJKoqqWVkdn3RKE/epoIh86bFbQ0pECSyI4yrNdjx493IKk1soBODp60p9cCuNXTRMBv/fee26/RHREi0RgtA3A8RqgBGCkdD2APMQAe2vHRLTJ9pioDgCQds5CvKXtOJ/AiLQ40R9zyiyq8nPrzKuSjqZegMrnkY9WsxBmAODbzzkhzetTuZxHolWOlXoAOvsmug4tzGKVNVMT7JtUMtEq2QPm1slKMKDIgpI0OgMf9sXADdj6leesjs5eJ8xnAbRbq5tImLlwPgvOGYMCVsBzLJwvtieFzYAqn47OLsSrOk+fZjO+HWbfD33EfnzvPJs1oLP9+P4F9v2wJ2zGpOHu/UblBeFqVgKzAhyLsoPwDttbl7NOtwu7N4XwuYLwnKNSIEw0w0IZIhA6yZauE846BJ7sdcLUS7rbR3lAlUU1pCOBzqqrrurmGIFFa+VIPwMu2klERWfPwIFFQaSzKc8CMyJ5YEHEeuihh7rIihQy8GIOFUDQsQOy0A01SHsCJh+1AkhSwNQL7IEm7eJ4/cKs1rYDggwqSL3TdszKagYgRI9Eexwnl2dRFhDFQthfc8zcOgudaBeX/jDHyrmlTdzJjIEOg5EQhDk/RLeAkjuAATzmlVmxzbF4CDOoAepE2rSX10lBcx451wxMsguzgDDtaK1uphoYOLAegLZwSRW/+8vJaKef+80vzPIrxPPfzWrwjMkjbNbAc63QZ2crPLelFXpvnv7cKv19F/vxg4vT9xtWOjsLwtWsBGYFOBZlQbiKVAqE6cSABJd70FHnL0tqzi1BGFMXKVs+a+YKKUPn6TtWf6OLmHK0Daj5tCvmfQBGWX85Dzf94P7QrPBmTpFoCfMeZen4gcXOO+/soJqfE+bYiSK5BIiy7IOoi7YBCFKmpHqBoL9EKWY7UuLMZQJnjg/40A6ADDxpK3PoDAryoGwNwn7+nHlff+kPx0xmg+2JwEn583nl6yYdDchYVOXbzTlmWyBHW/3iKT4rIAjUAS1gpR6Ok7poFwMcD2G/IK21uknH89kSWdNutif65dxwPKxTYPDDZ+UvUWI7Iuvm7no2x3v6VJs59n0rvLyH2TMbpd4w442s9uW9bOa4jxtHw4JwNSuBWQGORbnCED5LEG5HlQJhTEfW1s6MSIfUIBFOc/eOBj5AiAiW9CKrd1kNzD2nAau/d3Rr5QAIAGJfrM4NGZCxyIkBhb/xAylSIlc6fspw72GuOWZVcnNpd9LEvXr1cvsCCKR6mcclmgS6RMCkUoEbEbqPxFraDlByvrgxCZGqv/c1q5qZ8yRyB3KcD34S4QMloM4cONkJ6iCSBGr8/TDvzHnj/AFv9gNgyRywf46Z+hmYMI9KtB6qG5CzCI8IlzbRbhZdcSMVIlzmcUn7M8CifaSO+VxYXc/nBAypkwiVfxPRe2jSrtbqJkPx+OOPu4ERnz3txnxuZA94jwEI9TGvz/kF4NwcBSjnP7+q8LQpNvObV6zw4k45ABdNdDxzZP/Gt6MUhKtZCcwKcCzKRQhvl0L4tBTC55UD4Z51EP63INxOKhXCpdg/2aa1pygR6ZIypWNm/hKo5su2Vi67L6KfkClPKhooAix/C0RSvMDSX9tMnS2lMNkXQCWyJTXKdtRD+wA34CIVTiTLgjHStLS/pe38IAcQAg7SuqSLaZu/lMkPgoANdXI8DCg4Fr89IOc1jsND0Z8/6ibSZf9Et75+0tu+DaG6qYNBDjciYTvuWEa7/bw65QC1zxpQnnPon2TFTx8l0y7K+wEO+2ytbr8Qj/PAfDGfFesJWBvA5+mPn30CejokAM0lTPnLzGa/ubfzJLfAyi20IqU8dULT+d1pk23miJebh/CLQPhNQXjuUQKzAhyLsiBcRepICLfVdN7+2tH8e6WUizX1Ad38AKE1s//8drwGkIgESa0S0fq7UbW0Xd4xZUq1r7ut9XtIx27jy8d8TrF1+88q33a2ZVBDRE36m1Q8A46YfXeYWWg1eaTNHN7bzenOeruz/TjwXPvhi3ttxoQhLgVdX1YQnteUwKwAx6IsCFeR5mQIzy0GCESY++23n0uhkkomQs2XkytnomFWjnMnsko+B7mi/m6s/fjp9Vb78h5WeO4vxYVWvbdMgbpDCuSTbca3ALJu0CAIz2tKYFaAY1EWhKtIgnDH2F/uQ6q3teup5fJNxMtAh/NNijp2BX/HebrNmPiF1b6ybwrRjXNQ3citeJ75zavFxxBSXhCe15TArADHoiwIV5EEYVmeDZ4+za1mBrZ5oDqovrC9fT/s8bobcdQIwvOeEpgV4FiUBeEqkiAsy7PBDsIftQzhLx8VhOddJTArwLEoC8JVJEFYlmeDBWGpZSUwK8CxKAvCVSRBWJZngwVhqWUlMCvAsSgLwlUkQViWZ4MFYallJTArwLEoC8JVJEFYlmeDBWGpZSUwK8CxKAvCVSRBWJZngwVhqWUlMCvAsSgLwlUkQViWZ4MFYallJTArwLEoC8JVJEFYlmeDBWGpZSUwK8CxKAvCVSRBWJZngwVhqWUlMCvAsSgLwlUkQViWZ4MFYallJTArwLEoVwbC/d+wy3r1tHNTCB93vCDcXhKEZXk2WBCWWlYCswIcizIQ3j6F8JldTrMLLjzPbr1NEJ5jJQjL8mywICy1rARmBTgWZUG4iiQIy/JssCAstawEZgU4FuWSIXxK5xN/aArhLoJwO0oQluXZYEFYalkJzApwLMoNED41hXC3FMI3NYJw165ndfmfkJpGwj3qIHy0INxOai8I8zxXHmbPc1yz5rm6vJcvH2OewTtu3Dj3nNhynsfLthMmTLAxY8bY5MmT3QPgqbecOvPmWIcPH26jR48uu17O46RJk5o9d7zG/jgOfobKYNrB8bZURu4gC8JSy0pgVoBjUW4Nws1GwoJwx6u9IExnP3DgQOvTp4+98MIL9e7Xr58DYL58jIHmDTfcYLfffruDZv79GAOir776ym677Tbr2bOn9e7d2x566CFX59ixY5uUL8VAc9CgQXbIIYe4fQDifJnWDCQnTpxoX6Yd44ABA+yJJ55I/y5etSFDhrjzx/uY8/DJJ5/Yiy++aA8++KA7x/zO6x60wHvEiBH27rvv2pNPPmkvvfRSo3ry+5Y7wIKw1LISmBXgWJQF4SpSe0GYKPCggw6yFVdc0VZffXVba621nLdN/8iBRCnRIUDabbfdbP/993cgzb8fY8B233332ZZbbmmbbLKJrb/++rbZZptZjx49HOTz5Usx0HvttdfccR922GH29ddfNynTkgEj4Kadu+yyi62zzjq25pprup+dOnWyp59+2h0HYL3uuuts0003dftaY401nDmua6/9/+ydBXgUV/fGt99X/deVlhbafi2FFpfSUoVSnOJeoy0ad3cSAoEAIVhwdy3u7u4aFq8XKS49//veyaTp7CSZrCS7yXmf530gyezurM3vnnPPPXeQfFwMCADc4OBgqlatmrwfvA8NGjSgsWPHyqyC9vHZ+WCGMCtnmcEsHY4ZMkPYheQoCJ88eZIaNWpEL730EkVGRlJqaqr0mDFjJDwA6fPnz8v/Hz9+nE6cOCF/RkoVfwM4zGazhIQareH/s2bNovnz58soTk1PA8g4HpDGfSAKR1Sr/T3giNvNmzePhgwZQjNmzKAePXpQ//796cCBAxJYeBz8i+NxTup5AHrZRY1qOlg9b3jRokX0prhoIRpWYZj1PnEsUsx694nHmjJlClWpUkWCNzAwUGYAEFUHBATQvn375IBh2LBhVKZMGapatSpFRERQWloaRUdHU/Xq1entt9+WtwHMt2zZQm3atKHu3bvL9yA0NJRee+01qlGjBh0RF1V16iC781OfH56H+nrifvH6XrhwwaoBVZE3Q5iVs8xglg7HDJkh7EJyNIQRCSMqxAUeF2zAAxfx7777jnx8fKhbt25Us2ZN+vjjj8nPz0+mhgEuRHOIeocPH56ZegYMEQV37txZQgIAT0lJoXbt2snIFlEjAAPoAKxZfx8WFiZhj/uaNGkStWzZUj4GQIeIfenSpZnzrrt375bgw3khUm7WrBlNmDBBgkcPmoD+mjVr6JtvvpEARJQJ4L388svyueC1wH36+/vTZ599Jh/3yy+/pIULF0rgau8Pxzdp0oT+97//ybS5OhjBwAKvI4AIGOL8Xn/9dQlsABLH4DXB4AK3xXM/evSoHNjgueNveP579uyhWrVq0VtvvSVT1Dj/nM4Pf0cqHM8Prwfe15iYGGrdurUcxOB91T4Hdi42BOHZWSB8WUB4dfYQXgEIb7aE8IjyArpP6EN4VmsB4X8ySjfE5+5u/fr6EP7Pf+jv0qUZwvknM5ilwzFDZgi7kBwN4ZIlS8r5VkAO85bbt2+n/fv3ywgPHxRAsFWrVvL9ffbZZ2X0CCC3aNFCAhwXfUAD0RaAgpQqQIGU9pw5c2T6FRGdp6enhETHjh1lRKj9fdeuXTNhNn78eAkZX19feTxghH8R2eG8MUBApPjee+/JgUCpUqXk/c2cOVMCLevzBJQBuObNm1Px4sXp/ffflwAtLS5YTz75pHxsPGekpfHc8LwAZjxfPI9du3b9K5LE/WE+GenlTz75hA4dOmQBfkStmzdvlvcH0KrRrHp7vE64b/x948aN8nj17+pt8bojjY1j8ZxzOj8cg0ELnh9eUzw//P3555+3Kt3OFhbvx43fjtDfq1oIiL5vCdXlDejmmWUyAlaOv0I3L2wRsG1scaw8fmVTuvnLbnGcks2R/u0kXZ/akK73f8YSwgNfpBtLvOj6n+cyj78h3sc74v38+9FHLSH84IN09/PPZbRs8Vx0zBC2WWYwS4djhswQdiE5GsKPP/64hBwgVrlyZfrhhx8kGPBziRIlZNQGKCPVios6fo/iLYC3U6dOEgxTp06V8AMMAG+AB+ljzJki4sPjIEWN2wDOgKz29zgfAAjAQ0SIyA+AQdoYc8KYK0UBFAqbAFAMBBDBHz58mAYOHEivvvqqBKoWOIhKUdyF88T94DY4B8wx4/l16NBBFkzhPhFhYj4XxWq4LwwykJ7PWqiG+1uyZIn8GwYnenPfiEzxvPAcAUftMcgStG3bVv4dqXccj9+rAxkvLy+ZrsY5njt3ThZqZXd+yETMnj07c3C0YcOGfz0/Nd2uPUd27r5x6Rzd3R5CtLT2v0G86CO6t/5bAenDMmJWjhfQ/iOd7m7sTLT44yzHi38Xf0p3N3vQjT/xOcgyYLv8K13bNlhJSfd78h8A4/8jK9H1AzPo+pUsg8o//qCbkybRPfFeI/IVF81/omDx+b+VkkLXDRZEMoRtlhnM0uGYITOEXUiOhvCLL74oi4L69u0rU8RINwN+KA5CNAbIIQ0MWCC1ikgMEStSrwAzAI7iI0SwWSGMdCzmRpH6RdSKCBkpZ6SikWLV/n7r1q0SRrgfgBepV6SrGzZsKNPGgCzgg6gd8OrSpUvmXC7uE0ACZDFnmvV5AqAAKc4daXLcBiAF2BBBYy62X79+cm78lVdeofr168vXBc8D95mcnPyvqmzcFlkDnAOicLwW2tc26zGISrXHAMqIzPF3PFc8bwAY7wnSyBjo4FwRQauZgezOD+lmDEKye34MYRssotYbv+6nuzsjRUTcUkazf69sJkDbjW6eXUPX/7r47+ORkv5pC93d4i2Ob64cLyLpu1sDxO93/DsVLe//qhINr0+g62PeVWAMj32frm1NVaLgrFkWROdigHpbfCbviUEpwAvfK1uWbovPjYyCDc7/M4RtlhnM0uGYITOEXUiOhjAiqE2bNsm5YMxHYo4RF39c5JFuBdQACUSTAC7gp85dAl74HSCAn7NCGLcDDJDqRTESUscAKaCKpVGArvb3gP/q1atlxAcQIUWNYzAYAGSQLgdQAS/M6SJKBLwAdQAHqViknrM+T0B4xIgR8jZIfeM2WSGFeVMMJpDKrVixopwHx6AAAxMUrKlz0er94fFw/njeGEAgYtcWPuFnPBdEryjKUtP16t8wOMHctDrni3lugDkpKUmeA+bAcb8YYOD8Me+c3fkh5Y9irqzPD/e3atUqhrA9DBBfOi+i2HQR6Z5QfPFMRhrasv4AIL5x8ew/x4roGBE10tUWx8r7F5+Liz/T9V+O0fWfDinG/y/9miXKznr/4ndiUIi53xsHDijGPDCW2RkEMMwQtllmMEuHY4bMEHYhORrCiKZQ1IOLN4qKUNyEec6sMM0KYcDPCIQBQ0RxgAugDpjVrVtXwgJpahyb9fc4j4kTJ8rIExEy4IG5UUS/SEUD1CiuAqRRcVy7dm2ZnsbzQHSMvwOo2tQvAIo1vLh/RJGAHs4NkT/StSgkQ1EXBiOYLwbocV4wUupZ1/Nmfe1QDIbbx8fHy2wBip/w+gF4eL1wDM4Hx/Ts2VMeg7/jfgFbzMUjVY0iONwG54MUNN4TpNzxPHA8BkdqJbfe+eG9AIjV54cBAt4zvDd4DIawPY3PgQ54dZ2XY628DT6XOoWIRswQtllmMEuHY4bMEHYhORrCmOfFhRoRFgqhkA7FvCKiLlsgjHlkLFfC8bGxsZSYmCgjVQAUERwi6qy/x+0w14riKhyD1DLOBVEh0tEACuZzcT74HSJjpHpx/7gtos6RI0daNBoBQDGo+Pzzz2U0CfB5eHjICBxfBMytIp2NOVqAHOl2nFNCQoKsBgc8tZGuukQJgwOcB26Lqm8cj2pyRLo4Dzx/NW2MuWdUdKPgDEDF7/FcAW/cF15HzM8jI4AMgLu7uzwec8uAbXbnh+eGOWA8P7xOSK8jIkbB3NNPP80QZuuaIWyzzGCWDscMmSHsQnIUhFEchCpjwAuVvgAKjIs5os969erJCz8iMqRvEYFiyQ1SoQAHolxAD79Ti5cQ1WGuF7dDpIYIDdEZgA4oAJpI/eJ47e+xlAnROAYH3t7eMtWLVC7mTlGopEa+iGyR4gbEcVukrREh4n7xnLRRKwxoAohoRILPKQAPEGMZENb1Ys4WAw8UpaE4TZ0PR5SsB2E8BjIGKOjCueN54LUD2L/66is5AEEqGXPJiMIREeP+cK5qtTleG/wdRuMOPCaAjvNTm3pgcIL10oiIczo/Ffh473B73A4wxnw/Q5itZ4awzTKDWTocM2SGsAvJURAGJAAtwBIXctVI1artGAEndfkMqp8RharzsDAAgt+pfZ0xF6neTm28gQItRJqYI8Xf1Lln7e9xX7gPPB4ibYAM86LqY+IYROQ4F9w3wIIoEEBGBI771cJStXr+eG44HrfDY+A+8S8eU212gagTc+Q4LwwI8Hvt/WW9TxyDc8UcN+4Xz129DY7BoAG/Q7SKY/AvflYbbeCcAXQ8h6zvA4zfqb2tczo/7fNDJI72l1mbkWjPn120zRC2WWYwS4djhmxXCEdGhZGHJ0PYUXIUhPPLAIS69MjI77P+Pbu/5eUYrXG8XrSsOrfz0rN6GyP3m9MxRpzb+amDISwjQ4qbIczWM0PYZpnBLB2OGbKEcL26FBKqQHjESCsgvFlAuE9fhrCj5eoQZue/AWlEy6jAxtwyon3tMeyibYawzTKDWTocM+SsEI7rwRB2ajGE2Xk1omFMNaDqG5XW2i5ibDZD2GaZwSwdjhkyQ9iFxBBmW2OAGHP72W1CwS7aZgjbLDOYpcMxQ7YThDdkQDiUIexAMYTZbLa9zRC2WWYwS4djhvwPhAMEhKMFhIcxhJ1VDGE2m21vM4RtlhnM0uGYITOEXUgMYTabbW8zhG2WGczS4ZghM4RdSAxhNpttbzOEbZYZzNLhmCEzhF1IDGE2m21vM4RtlhnM0uGYITOEXUgMYTabbW8zhG2WGczS4ZghM4RdSAxhNpttbzOEbZYZzNLhmCEzhF1IDGE2m21vM4RtlhnM0uGYITOEXUgMYTabbW8zhG2WGczS4ZghM4RdSAxhNpttbzOEbZYZzNLhmCEzhF1IDGE2m21vM4RtlhnM0uGYITOEXUgMYTabbW8zhG2WGczS4ZghM4RdSAxhNpttbzOEbZYZzNLhmCEzhF1I+KLcvHnT4kvEZrPZ1hrXFIawTTKDWTocM2SGsAsJX5Rbt25ZfInYbDbbWuOawhC2SWYwS4djhmxXCEdECgh7MIQdJXxR7ty5Y/ElYrPZbGuNawpD2CaZwSwdjhmyCuHgkAwIj7ASwkl9FAi7M4Qdqnv37vG8MJvNtotxLcE1hWWTzGCWDscM+V8Qjoum4Qxh5xanpNlstr3MqWi7yAxm6XDMkBnCLiiOhtlstq3mKNhuMoNZOhwzZAdAuBtDOB909+5dBjGbzbbKuHbgGsKyi8xglg7HDFmBcJ0cIBxmFMKJAsIhDOF8FIOYzWbn1Qxgu8sMZulwzJD/gbC/gHCUgPBQhrArCekkVDfii8VAZrPZelavD7hWcAra7jKDWTocM2SGcCEQCivwxcLo9vbt27LYAgvw2Wx20TauBbgm4NqAawQXYTlEZjBLh2OGzBAuZMKXjM1ms7Oa5VCZwSwdjhkyQ5jFYrFYLOtlBrN0OGbIDGEWi8VisayXGczS4ZghM4RZLBaLxbJeZjBLh2OGzBBmsVgsFst6mcEsHY4ZMkOYxWKxWCzrZQazdDhmyAxhFovFYrGslxnM0uGYITOEWSwWi8WyXmYwS4djhswQZrFYLBbLepnBLB2OGTJDmMVisVgs62UGs3Q4ZsgMYRaLxWKxrJcZzNLhmCFbD+EASwiHRzCEWSwWi1WkZAazdDhmyIBwXQHhoGB/CV4LCEcZgPCmzRuod5ICYTd3hjCLxWKxiozMYJYOxwzZAsLDGcIsFovFYhmVGczS4ZghM4RZLBaLxbJeZjBLh2OG7AAId2UIs1gsFquoyAxm6XDMkO0E4fUCwj0FhIMZwiwWi8UqSjKDWTocM+R/IOwnwBspIDyEIcxisVgslkGZwSwdjhkyQ5jFYrFYLOtlBrN0OGbIDGEWi8VisayXGczS4ZghM4RZLBaLxbJeZjBLh2OGzBBmsVgsFst6mcEsHY4ZMkOYxWKxWCzrZQazdDhmyAxhFovFYrGslxnM0uGYITOEWSwWi8WyXmYwS4djhswQZrFYLBbLepnBLB2OGTJDmMVisVgs62UGs3Q4ZsgMYRaLxWKxrJcZzNLhmCEzhFksFovFsl5mMEuHY4bMEGaxWCwWy3qZwSwdjhmy1RD214FwWDhDmMVisVhFSmYwS4djhiwhXLcOBQb5UUysDRDu1VuBcHc3hjCLxWKxiozMYJYOxwxZC+E0hjCLxWKxWIZlBrN0OGbIDGEWi8VisayXGczS4ZghOwDCXRjCLBaLxSoqMoNZOhwzZAXCn9sDwgkCwkEMYRaLxWIVJZnBLB2OGfI/EPYVEI5gCLNYLBaLlQeZwSwdjhkyQ5jFYrFYLOtlBrN0OGbIDGEWi8VisayXGczS4ZghM4RZrKKiv//+xywWy14yg1k6HDNkhjCLVRgEsN65Q3TjBtGVK0R//EH0yy9E588TnT4tLhNmopMnFeP/8NmzRBcuKMfheNwOt797V3PnLBYrB5nBLB2OGTJDmMVyVQG8t24p8Pz5Z6I9e4jmzCEaMIAoMJDoq69IfLuJ3n2XqFw5orJl/3H58kTvvUfUsCHRt98ShYQQDRpEtGAB0eHDRL/+SvTXX0S3b3PkzGLlLDOYpcMxQ2YIs1iuJkS8ACSi2FWriFJSiLp0IfrkE6JSpYhKliR66SWi558neuYZoiefJHr8cUvj9/j7Cy8QFS9O9OqrRKVLE33+OZGnJ9GwYUSbNimR8rVrRPfuac+ExWIxhFmsIiA13XzxItH+/USjRhF166ZEuYBnsWJETz9N9MQTlrDNi3F7gPnFF4n+9z8F7D4+RJMnE6WnK1E3p6tZrKwyg1k6HDNkhjCL5ewC9C5dItq5k6h/f6KWLZWIF+B96ilLkNrLADLAjqi6TBmir78mGj5cSVcjEuc0NYsFmcEsHY4ZMkOYxXJWAXJIAx87RjR4sALfN94g8a21PeLNq/F4SFu/9RbRN98QjRtHdO4c0c2bDGNWUZcZzNLhmCEzhFksZxSiXxRHodAK872AX0HAV2sVxiju8vMjWr5cqazm+WJW0ZUZzNLhmCEzhFksZxKiSiwTOnqUKCmJ6OOPlaKpgoav1ijqKlFCqa4eOlRZCsWV1KyiKTOYpcMxQ2YIs1jOIgDs8mWiNWuIvLyUeV8USTkbgFXjvBCdi+87RUQQ7d6tpM8ZxKyiJTOYpcMxQ7YrhEPDGMIsllUCuP78k2juXKL27ZWK5+yWFjmbcZ6opEa1NpZMoYKaQcwqOjKDWTocM2QVwgGBAsIxtkC4VwaEuzOEWaw8CcD6/XeiSZOIGjVyzvRzbsb5Yn3yl18SLVyoVHMziFlFQ2YwS4djhpwVwtECwsPSGMIsVv4JoEJh04QJRHXqKMuOXA3AqnHeL79M1Lq10nkLqXUGMavwywxm6XDMkBnCLFZBCYBC841p04jq1XNtAKtWQdyuHdGyZURXrzKIWYVdZjBLh2OGzBBmsQpCABMAhdRts2ZKhypXB7BqPA9UTn/3HdHmzcpaYhar8MoMZulwzJDtCOF4AeFAhjCLZURYzrNtmwKqV14pPABWjefz2mtE/v5EJ05wq0tWYZYZzNLhmCFbQngwQ5jFcqjQ2ALrarFz0euvFz4Aq0bVNJqM9O2rNB7htDSrcMoMZulwzJAZwixWfkpdipSWpqyvdZVlSNYa65zRcGTmTKXfNItV+GQGs3Q4ZsgMYRYrP4X5UTTj+OILpdGFFlqFzYjysQEE0u4HDig7QbFYhUtmMEuHY4bMEGax8kuIgn/6iSg0VGnGUVjT0Frjeb75JlG/fspyLE5LswqXzGCWDscMmSHMYuWXrl8nmj2bqFo1x25B6Ix+9lmiBg1IXDCIbt3SvjIslivLDGbpcMyQGcIsVn4I0R+KsTw9lY5YWkgVdqvV0nFxRL/9xtEwqzDJDGbpcMyQGcIsVn5IjYIrViz8xVjZGUVan39OtH49R8OswiQzmKXDMUNmCLNYjhaivl9+IQoMLJpRsGo1GsYWjegUxmIVDpnBLB2OGTJDmMVytBD1YS4US3WeftoSTvYyIIeKa3TfAuxRlYy52JwKwHA+WY9//nnHRuo4v1atiI4c4QYerMIiM5ilwzFDZgizWI4WNjIYMECJAnMCorXGfQKe5coRNW9O5ONDFBxM5OdHVL++8jftbWAAuEoVIg8PpXEIIvWvviKqXl3p/+wIGONcS5cmmjJF2XuYxXJ9mcEsHY4ZMkOYxXKk1IKsjh2JXnjBEkq2GlBDFNu2LdGKFURnzyqp7wsXxKXBrGyPiL1+tbeDcTu0lTx4UDn+55+VJVR79ijLqEqVcgyI8biAPrZvZLFcX2YwS4djhswQZrEcKaSi164lqlrVMUBDlIutAwFObAiB9pB79xItWkQ0eTLR998r6Wbt7WAUSn36KdHw4crWg5s2EZ07p0Sop08TxcQ4Zj0zUuSNGxMdO6a08GSxXFtmMEuHY4bMEGaxHCm0agTk0CNaCyNbDTgiBb1kiQJgQC0oiKhyZaU5BiLgnLZHxO8BRKTJcXzZskTt2xOtXq3cH+ZtAUsco72tLcbjlilDNH8+0Y0b2leMxXI1mcEsHY4Zsn0hHBpI3RjCLNY/QocozM86oioaUXCHDkq6G48TEUH0xhvWR9yAI6JmbK0IoKOCGXPZJUtaHmurcZ+4b8yXs1iuLTOYpcMxQwaE6wDCATZCOFFAOIQhzGL9W5hjRbrYEX2isQUiml9gQwhsF/j++9YDWDVAjJ2PsOECILxsmTI3rD3OVgP23t48L8wqDDKDWTocM2QVwv4CwlHRETR0GEOYxbKPMN95/DjRe+/ZDkc9I5pMSVGi4C1blBSv9hhrrEapgPvWrUo1s/YYW41BSYsWyiCFxXJtmcEsHY4ZMkOYxXKUsA521y5ly0IthOxhRMIJCUSnTinzq5jX1R5jjbE8KTJSuV9HRcIYlNSooVRwcwtLlmvLDGbpcMyQHQDhzgxhFgu6fZtowwbHRJKwWt2MDlSYG0YRlvYYa4z1wwBkr15E33xjv/vVGoVghw9zhTTL1WUGs3Q4Zsj/QNhHQDicIcxi2U1YnoS1u46IJGHM32LtMSqvUfgFKAOgthr3o94vumg5IpUOv/020b593DmL5eoyg1k6HDNkSwgPYgizWHbRzZvKel17pYmzGmDEEiS0wvzsM8e4Vi2iDz5Q0t6OADHmsJGuZwizXFtmMEuHY4bMEGaxHCWsgbXnXG1Wo3iqTx9lKREabDjK+/cTde7smJQ0ILxjB9GdO9pXjsVyJZnBLB2OGTJDmMVylADhH390DITRyWrQIKWwCe0mHWXM2bq7Z991yxYzhFmFQ2YwS4djhswQ1ujve/fo3t27dPf2bXYR8j0Bgr+RFrVnpa4jI2HM3aKwCct80OXKEW7XjqhJEyXt7ah09M6ddoXw3+L9w/uI91P7HrMLr/F+47qN63cByAxm6XDMkIs8hPGm3bp6la7++iv9KaKKXw4coHPbt9OpDRvIvG4duwj41Pr1dHbrVvpp71768+RJ+ktEgDf/+sv2LzTmhBcvdgyEYYAR623ROctRzm0rRFsMCO/ebfOcMC6+Ny5fpisXLtDvx4/TBXGfZ7Zske+r9r1mF0KL9/n0xo10bscO+uXQIbp05gxd+/13un39uhyU5YPMYJYOxwy5yEIYb84tcaHFl3bXuHE0p3NnSq1cmZJee416lyhBvV5+mV2E3PuVVyjp1VcppVw5mioiwC1Dh9Kv4gt949Il62GM6uhVqxxbHQ1Q2ruKWd2XGBEwqq7tdb9aozoac85Wvr6A77U//qDzu3bRuqQkmtisGfUXYO9dsiT1Eu+n9j1mF2KL9xvX7T7iuzC0Rg2a7+VF+2fOpIunT+cHjM1glg7HDLlIQhjpC7w520eOpFG1a1OiuIDFPPYYRfz3vxQmHp9ddB3+n/9Q9COPUMILL9Aw8WVe36ePHKjdQVSb1y+y+JzJnYkctU4YoMQGCxMmKHsCA8TaY6wxol/sQ4xtEAMClOYd2mPsYWw+cfRonl9XXFBvX7tGPwuALwsPp9SKFSlenHPUww/L90/7nrKLkAV3Iu6/n2LF5wtQnti8uYQxsiQYtDlIZjBLh2OGXLQgjC+vGBUh9Tjtq6/kCCrywQflG2fxZrKLtvFlfuAB6lmsGE1q2ZJOrFyppKjzAgx86bHFIOZutQCyh8VFhnr3VjZwwE5K9oq4sSQpNla53zVrlF7S2mNs9VNPEX30kdKVKw+vKV7/63/+SQfEhRUD6B4Cvjx4Zus5XHyHMaBGdLzA21umqu8iO5WHz5tBmcEsHY4ZctGBMNLPV6/SscWL5ZcXIyW8Sdo3js3OavlFfvRRGvr++3Rwzhy6efmycRDjuPR0BTaAjhZEtjprj+ft25X0rvYYa4z7TU11fO/oNm3y1Dsar/u1336j7SNG0AAxsIl66CEeQLNzNbIjyJRMatWKTm/erGS17CszmKXDMUMuMhC+c+MGpa9aJVOMSFvxl5edFyNjMqhKFTo0b55MhRoWlvl8+aUyd6sFka1GmjgqStnAAUuV0LjDVtire/1iadWlS45rNoLUOVLdOHcjEgC+cfEibRs+nPqJyBwpR+17xGZnZwymEXiNa9xYFu6hmtqOMoNZOhwz5CIBYbzgP+3ZQ2MbNKDo//s/izeIzTZiRF4jataks9u20T3M9xoRokns8+uIeVVEk1iidOaMsu0gmncgGsbyJe2xRowCLKS40S/69Gnl3BMTlfS09lhbra5zvnJF+4rpCoNoZLEGVqzIAGZbZ8GkOPEZn9mxo1wFYXXBpaXMYJYOxwy50EMYKay/fvqJ5nt6Ug9xceIImG21MZoWX2JU0l85f95YWvrqVaJx44jeeMMSRLYaUStSxTNmEF2+rHS46tdPaTeJnZswlwv4Z1fdrFZXI9JF9Fu9OpGPj7Js6Pp1ZT4b7SvRS1p7W1uMx8X5LV2qLOPKRbhYojhuXKNGFPXII5bvC5tt0IiIUYi7rndvuo6Bq31kBrN0OGbIhR7CyP8fXbSI+oqLIFdOsm01vsR9XnuNDs2ZI6OzXIWIGXv9ogezraliPaOSuV49ovXrFRAjhYzIGCBdvZooMFBZZqS9HaxWVyP1jDllzF//9psycEDVshi4Sojbe50wHrdlS8NFWTdFtLwpNVUWyfEgmm2rkUkZVLWqXFdsp7S0GczS4Zgh2x3CXbs5F4QRBU//+mtOQ7PtZnyWpnXoQFeMFBUBMjiuWzfH9F9Wd1KqU0dZUgSQXrigVDafPEk0caKy3ld7Oxhw9vcnOnhQOR63Qxoaa5u/+05JGdsbwDDAHhOjpLtzEbINf4jnNPyTTyjygQcs3gs22xojK4rlbai0t4PMYJYOxwxZQriOjRDeuGk99UyMp+AQ54IwRjmYv0suVYqjYLbdjM8SPlNY6mZoJI15z6FDlZS0I6CG+0TKGPePiLt5c2V/YVQfI8WcXToZkTnS2erxrVsT1a6tpIoxYHDUuWLees4cJeWdi5BtODh7NvUSAwaOgtn2MqJhrHj4A3PDBrIxucgMZulwzJBVCPv5+1BklIDw0EIEYaSxNg8aRPHiSWrfBDbbFmPJw8aUFPkZy1VISYvBoIxWswOivQywIkWNuV6kfXNLgWdtfYl/UdTlCPiqxuOgWhypaAOFMWg/uMDXl2LFOWnfAzbbags+ocvW8WXLlLXDtskMZulwzJCthnBirx43kvok0JYtG2jrto00clQapaQkyxs6C4TRD3rmd99RzKOPWr4JbLYNRhOAKe3ayemOXIWRNuZaIyOV6mMtmIqKAXdE61iDbGDwoqaiEbFwRTTb3s7TQDpnmcEsHY4ZMiDcokUzSu6XREOGptL0GVPEGPUEjRgxhBJ7xVGvXvEhJj3NXzDr9q5dm+nw4T20f/9O2rlzE23duo5WrFhE5cqVcwoIXz5/nkbXrass6jdZvglstrVGSnqAGGxiww9DSx1QxIXNHARQrF5C5OpGpI1dmbB9oYElXiiqPLJggexsx6lotr2N5UrLIiLsMS9sBrN0OGbIgLC3j4fk544dmyRPwdU9e7bR5s1rafTotHCTnlwBwthNA1Vw3NaO7QijWnf3xInGmncgGkbjjpAQZd2tI1O+zmg1Cu7bVynIMjAPh4sjimdwsdS+9my2rY4Rn8sf3d3llIeNMoNZOhwz5EIN4YunTsmlSTyKZjvC2PRjdufOdPWXX7QfPX0hGkaP508/dfzcsLMZc8GtWin7BxuIggFpbLIysnZtpb+7zuvPZttiTFPO+PZbOW1po8xglg7HDLlQQxj7A2NrQu2Lz2bbw+H//a/c+hD7EBvaoQXRH77w8fHKsqGiEg2j+AvNQNLSlHXMBqLguzdv0jExYMFOODyIZjvCWGo4/auv6C+jg+jsZQazdDhmyAxhNtsGo/J+c2qq8eIORIFojNG+vWPWDTubMdBA+h2NP9Df2sj8OSlFldgTFv1+ta85m20PM4RzdrL2WVojhjDb0UbRH3qSY+rD0HpDHIPOVmisgTW8hb1IC8VY4vWRaXgD64IhZBXO79wpswzINmhfczbbHnZ5CFsuURpGKSl9nWqJEkOY7WijjSWqd/dNmyb3qjYktUgrIUHZAzi73s6ubjwvAVLZqAS7JRkZpAjduHSJ1iQmUo9nnrF4vR3tcAda+1jsgrUzQVhZotSbhgwdSNNnTDa2ROnfzTrWUc/EHhQcEkBdu3ViCLOLlPFlntq+PV06e9ZYNAyh09ahQ0ReXo5rD1mQBoCxMQTaU6IlpsE0NJZ7/Spel7SPPsq3NpUAZIRwZIajHGD1vvE4DGTnsDNBuE6d2uTn702RUWHGm3UwhNlsxYiGe5csSftnzDAeDUOoll63Ttk6sDAtW8LzEN878vZW+lIbae2ZIexss7Z3b4p//vl8KcgCEAHHGOF44Z7CvYR729mJJuX+Y00KlBnEBW+GcM5O1j5La8QQZueX0UFrYosWdFF85gxHwzjur7+UJh7o2+yIHYvy2zh/RPZduii7RxnZaSpD6MONnW0GVauWbx2yEJkCjADlMOExwhOFJ9nRuL9xwiOE+wv3MBUNEGNwiqY26NPgjL37nQXCz4sBp10h3N2tC0OYXeQs54aLF6ftI0YYr5SGAGIs28F2glhH68ogVgHcqZMS4aOJSR4GJKiIXhIcTHFPPWXx+jrCgCBgiOgXgNwq3sOjwunCJ+3s48L7hOeKx+lnUsCPAYD2nFze4jlGPvQQ9RDRXe/XX6fkd96mfuXLU5/Spamn+GzHiM+IsxTbOROE69arYz2E16xdSVu2bmQI22h11Ih/tX9ju4Yxh5n24Yd0YfduY7srqVJBvGCBsrlByZKuB2LMAWPts5sb0YYNyp7ERgFMSovK40uXUv8yZfKtwx0gHC3cV3i68J/iu3fHgb4ufEA4zaSkppEGL0zRMK5fsU8/TWmff04rUlJo76qVdEB8Fg5s3ED7xaBs2+zZNNPTk5LefNMpGrA4E4TrZYHwsLTBGRCOzAXC/t5XccDKVcsYwtb6PmXUiPmv3uIC1leMFjF6xM/yQ3pf4QQyRsLRjz5Kcc8+Qwkvvkg9RQQJxxcrRnHiSxz1yCO66Sv8Dl+cuGc0t3tR3O4Zcbv/079dvlm8X9indJG/v9xr2HBaGsKxiKBXrybq3l1p8egKVdMYLKD7F7ZEFFEs7dqlLEXKw3P/++5d+u3oUZrYrJlM61u8rg4yABhjUlLE84SvivePHGiAGFH2GJMSfasp6cJQPR0unhe+l5O//452L19GJw4eIHP6CTp1Mj3TJ48foyM7ttOatDQaULkyReRT4V12dlYIpw0fIiEcFR2WM4T9/Lwu44AVK5cyhK0wPrRIzQyrVYtWDx1C+1avEqPG9fLf1YMH0+CPPqLoxx4rVJExABnzxOPUV0Q7E0TEt7RPEm2ZMZ32LFtGuxYvok2TJ9PCuFga3awp9Xq1pAJj8fzlayVeiyQBpgnt2tLSXom0Zfo02r10Ce1aspg2T51CixPiaWyrlnIQA8AX1OuG59hHDKj2TJpEtzDfmxcBXEjh7t1L4ptHVL680u7RWaNinJcYDJGI/mVP6JMnibAtXF4AnJGGXhEdTQniuebn+6ZCOEV4gfA1HXDa04AwUtPjxWMlCcdlPD4cbXLt6mkAbUyL5jL6NQvYZoXvvyzAfGzfXlo9ZLD4jr9aoINmZ4Owf4AC4eEjhv4LwuHhoX4mPWkhnCggHBL6D4T/K6Idk84DGnSy9llaI2eFsDpqHNeqFe1ctJBOHDooP5zqhxSjyO1z59DIhg0pVkRD+XlhcpRRaJNY4hWa2qUzbZszhw5v3yaf58ljR+WI2XziOJ08eoSO799HhzZvog3jxtIYERkhOsZc0qRvvhHgnU6Ht22lEwf2K7cTt8m8nfjdoa1bJMjHt2tHCeJ2BTX3hCwGltic3bKF7hrpk5xVABhuc+EC0YgRRE2bKvOsue0LnJ8GfNFkBOlncRGjadOUdpxGWndqdPvqVTo4ezYlv/VWvr9fKoQHCi80WUL4b+F7OsbvYSPHaSFsFkax1gCTMjeMfxGJIyWeYFJg7GpzxQBp79dfE9+9SfK7aAFercX3Hd/VyR07ykBDe3/5ZWeB8AsvvJAJ4ajocOMQ9s2A8LLli2nb9s2ZEHb36MoQzsH4wMa/8DxN/vZb2rtyhYSJxYdUGB9mRIdjW7eSwHZlEAPAfd9+m5aJyBdfvuyec9YvafqRw7Rv7RoZGS/vl0wHN200dDu8bsgozA8PV0ba+XxhlxbvFdotzhADh99PnDC21aFWuA12G1qzRknzVq6sRJ0FHRVjMIDisY8/VnpgY1tCpNHzEP2qwmbqZ8RAZWStWnJaxuJ1dLBzgjAAelMY88S/Cv+cYfwfv7uRccxd4SvCfwj/lsUXhZHeBozV+8Sxp4SniccaJTxT+McMzxAeYvoHxK4UDUc98jCNavIFHdqy+Z9gIhfj+71h7Bg5laS9v/yys0C4mAgY6jeolwnhESOHSQhHRoXmDGFvH89fccCSpQtp+44tlNgrXkLYw7MbQzgbA8AJL71EMzzcZaFCjmkbYUBn78qVcsQYL0ZLBZm6sdaAIFLEK1MG0NHduyzmiXIyolxExnrzSzkZt0PEvAApTvF6F8TrhkFTgnjPloWF0ZXz560DMcB286YSFU+dqiz7wUYI6Dmd3/PFgG/x4kSVKhH5+ipFZLh4IWq3AsBoTfnLwYM0uXVrOdVQEPUPOUEYwPxJeLX4/WzhqRmeI4zfnRVGZAsY7xf/35jx+5UZ/24VPiF8W3Ofp4Vxf7gfAB2ghgHxlcKIjF2tcjpGfBbnBPjTsb17LL6L2Vp8n/etWU19kAEpgO8n7EwQbpAFwqNGD5cQDgsPkhAODgt0N+nJy9v9LA5YuGge7dy1LRPCnl7dJYTvF9GPSecBDTpZ+yytkTNBGDDqVbIkzQsJEVHdJgkKiw+mjgHq/evXyapCFCEV1AfWKouLStyzz9Lc4CBZkJEXkNpqPBZe5ynffy/3DbU4t3ww3qsk8Z5vSk2lq7/9lrdCrazC7VBtfOoU0YQJRF27ElWooESk4vV1WHSM+0XvZ1Rrv/eeAt/Zs5VBAdb/Wvl8MCDBd3Oem5tsTVlQWZ7cIIyoFVXTg0xKuhgebFKi1qMmBbCA8EHx/y3C64XXZvy7Q/ikSQG1FsIoAluiebxbwtuFEQ1jHTHmh7Xn66xGMSUyVhgwa7+HORnZLVmglU9rwrV2Fgi/+OKL1Khxg0wIjxk7UkD4HAWH+EsIBwT7dTbpycOrezoO+HH+HNq9Z2cmhL193Kls2bL0wAMPWDxYHpysfZbWyFkgjA9Z0ptv0OL4eBmhGQWwahx/cPMm+jEsVKZY82sJh63G3OigDz+gPStX5Pk528PIJGD+OVkMCgskLS2M96pf6dK0c8wYuUm91SCGEE0DxmgDOW8eUUQEUcOGRCKakEAGMG2NkBHxohgMHbwQdbdoofS4XraM6Kef8lz5rBUAfOnMGVoeGUk9xcWnIAeVOUEY8DwhPEH8vo9JKaJChIr/o/nGIZMCYaSkAVDAGEuQYPwfqWz171oIzxe3Xa55PNzHrvtcc/kS6lbmBQfnORLev3aNLNIsqM+As0D4pZdeosaNG2ZCeNz40TISDgzyBYT/9vf3+takJ3fPbnsB4bnzZtKevbvQZFpC2MfXQ0L4QXEBNuk8oEEXGggDRFiwvqJ/Pzq6a6fV0aBMsW7fJquA+7z5ZoGNHvPiWHFBny8utsf37bV4PvnlIzt30LQuXQosGobxXg0Q3wlUTNsMYgi3RyT6++9EBw4QTZ5MJF5n2XUL6WIsb0L0ivQxUteAKiJmFFOpxs/4PeaZAXAUf2EzCezshGIrzPeKAQwdP0508aKSFrfxvAHgi6dP03IxeMCmFwV18VWdFwgDwNlBGP8CuoCvavyM+8gOwis0jwcI7xYebnI9CEcJmI1r3UoGGNrvX3ZG7camKZPldJH2/vLLzgLh4uJ72qRJYwnh6JhwmjBhLJ2/cFb+DAh7+ri1MOmpm1uXtYDwrNnTad/+PdSrd0JmJFy+fHl66KGHLB4sD3Z9CIsvVNTDD9OAKpVpTdowOUq0FsCqcXuAfEXKAEou+45TLHjPyUifb5szW64P1D6X/HL64UO0dnia0otY5xzzy2jkkSK+F7vGjaNrAp5WzRHrCRXJWNaEIq5z55RWkTNmEKWkEIWHE3XrRtSuHVGjRkS1axPVrEn0+edEX3xB1KGD0lwjOppo8GAFujt3KulmgBdRr53OE2uB/zx1ipaGhMjOYgUNYDgnCKvpaKSekYIWV9jMdDQKqo6ZFAgDtkhNI/282aTMDSM1vUf4tEk/HV3YICyX5b31lmzGkWvxJCyuYxgcozamIAfHzgBhLOV9WQxImzX7IhPCkyaPlxBGQAsIu7t3rWPSU7funacDwtOmTaJDh/ZT76SeAsKBEsIVK1WkhwWATDoPatCuDWHxwmKN6+APatCGCePl8hmjVYO5GSAG0NcOH04pVaoUSFWpEWOeDw1IkHLSPof8NF6vPcuXyWVO2nPMbyMiRkeorUOHKs087AS4TKnLmwBPVCwDzL/9pmybCLAijQ1Q41/8jN/j7zgOxyO6RqcvGyNerbBMC804Fvr5UWIBFcrpOTcIawuzpmT8H787Y/qnMGuf+P8G4VUmBa74e06FWYUNwjBgOrnjt3JlQo5TT+npcknmhvHjlKKsApomgp0Fwq+88go1b9E0A8IRNFUw9fyFM7LIGRDu0qVLeZOe3Ny6xAHCEyeNo6PHDlGSgHBoWKCkdxUR/f2feIImnQc1aJeGsJwLrVGDtkyb9u81wPayuD+AHR9kZ+g8o2dcaNEBDF9Ki/PPZ+9ft1YWxRVEBa7WmCPug2rx2Fj5+cxTe0sXE9Lut0WUfm7bNpr25ZcyG+EsAIZzgjDSyJjfxbKkM/cpUTGM/wPO6vIjgPh34QvC5zJ8PuN2lzOOKQoQlksvixWTVdIoJJXrhTXXPTWA2DxlCg35+GOZKdTeT37aWSBcUlybWrVqTgGBPhQTG0kzZ00TY+XTsijLzb3LvdatWz9o0pOvr2cUDho3bhSdSD9GSX0SZUk1IFytWjV69NFHLR4wD3ZZCOPDiAhw/ZjRCoB1oGAXA8T799GqQamUiPm1+woeMFktISyiPmeBcKKTQBjGa4OipDmdO9OFPXvk9oc2zxM7mRDlX/vjDzo8fz6N/OwzuW7a6T6jpuwhDAOggKPefC9+DwCrKemsx2T9e1GYE1YtQfzCCzS+XVvZuAPVz0g7Y2ki6lnQF2FRjzgaUKmSzBQW9PfRWSD8mmBUmzatMiE8d+4sOnUqXULY06v7PVN2Cg72lxAeNSqNzOYT1KdvLwoPDxYQ9qTq1avT4+JLZ9J5UIN2WQijA8yU77+THzrtSNDuTleW4Yxp3kz5UOucT0EZF9wkpKMFAC3OOx8t09ErljtFOjqr8frEPfkkja5blw7NnassYbJ3erogJAYTaMKB797GAQPkPHgUpkwK+IKr55wgDHji5/MmZakRUsvHhI9nGD+rVn+n/j3dpMwHI0IGeIsKhGF8rgG3xBIlZEtedLqb1rULjW3ZgvqLz0KPZ591mqJSZ4Hw/8R1sl37NgLCvhQXF0XzF8ylEyeOSgj7+nlmD+HIyFAJ4WFpg+jMWTP1Te5N4RHBuBF98EENelJcYEw6D2rQLgthpNxQCISCIC0QHGGkpbH0CWv1tOdS0EaEvmP+j7k2JXGk0ZlnPTrziBG69vwK3OILCED1L12aVvXoIedNXTkqxiAC1d/pq1fTtA4d5Pyvs1xw9ZwThBEFA6K7TMraXzThWK4xQKr9HYy5YRRnFaU5YdWAMOpUsDICA1/0e+9T6k3qJa7D+A6ir7uzfCacBcJvvvkmffV1e7kkKa5HNC1esoAOHzkgIewf4J09hGNjIyJx0MCB/eSapuR+SRQRGSIh/PEnH9Ezzzxj8YB5sMtCGBXB2FQgx+IEO1q2fxs31ikhg4EB0k95XcRvTyMVhkYn2CxDe37OYswTY/OCsQ0b0oGZM+nKhQsymrR3gZSjhEHDratX6bdjx2h93740sGJFiinATTSMOicIIxJGO0pEtQeE9wrvNmBURaNQ64jwBeGiEgnjvcZSpcRXXqHhdevS3MAAuTEN+r1vnTlD1q8sS0qSkXH/ChVkK96ChrGzQPitt96ibzt+RUFBftQjPoaWr1hKe/ftkhAWYM4RwuE4CFXR6O6RmtqfRHRMfv5e9NlnNem5556zeMA82HUhLD6E+VkRjCUBW8WFG1v7ac+loI0RcdrntWUPaFuXZ1ljRODov12QXXmMWl7EHn5YFm2hk5R57Vq5u9A9K9tC5odk4ZWI3PE92zF6tEyto1WnqzSTyQnCajSsN+ebk9Vji9KcMN5vFGWNadlCZp0wF4wCrBOHD8nrE5x+9AidOHCAjuzYQXuWLaUfw8MkjAHCghqsOQuEy5QpQz906khBwX4UnxBLa9etkpsiZUD4jik7RUSFBeKg2LgoCWHsgYhtmADhOnU/lztDmHQe1KBdG8L5OA8qu0LNnlWgi96ztfiAIT2/MDZGRqQOnyPPYkAfzQNmeXnJ1JjFuTmpUdyCIiYsZVro70+nN26kv37+WW567yxpaqz5vXnlCl08dYr2TZ1KE5o2pcTixZ127jc75wRhwBMQRRX0pfuUDRmMGscjikZ1dWGHsNIN8E1aGB0tizCRmcvte44s4bE9u2nrjBk0slGjAtspzhkg/B/xfUdzq67dOsk2lQk942jzlg20Zu1KNR193ZSdAoP9umMNExp0IB09eswIio4Ol2udGjasL1txmXQe1KCLDoTFBxbzx7KCUEADzTjws9HI0akhbFK+pGgssm7kCLuul87RGUshsPtSQe9Zaq1xzijcQsvLuV270pEFC2S7x5uXLxfIsiYMAO7cuCEbjfwsIppNAwfS2AYNZOcrRPAFcRG11TlB2MiccHbGnDAadxw3Fe45YbncrlQpWjEwhY5Y0Q0Qy5h2i6gYO8XJ6aJ8/gw5A4SxxwIg7O7RTTa76pnYg3bs3CrnhQFhH1+PX0zZycOjezNAGHPA6O6BLh9YaAwIN2n6hewCglDbpPPABlwkIKzu9rNWAAoVhKO+aExTfvie1o4YLqurjcwrOzuEYaybHli1Km0YP17uiORQEAPA+/bKLmXJ4sPt7Gno3AwYY5eh3iVL0jgRNWDO9ey2bXJnphuXLjl07hiFVljnC/D+mZ5Oh3/8UTbcSK1cWc5hI/J1Rfiqzg3C2NkIc7xoxLHapMAVMM7JOAbQ3mZSqqQLK4TxvmMKbFFcnFUAVo3r186FC2jYZ/m/naUzQBidJcuVKyebXKHZFdo/7923m+bMnSkh7O7RVXwEs5G7u/uzWEgsTOfOn6ZZs6bLNU7+AT7UslVzelVEIAzh7I0PLfbWneHuLqO1mMcfkxEFLrj4eZa3l/x7bh9uV4AwjC/YwOrvyiIyh4E4A8Crhw2lfuXLO2UTE2st54zFa4glHslvvkkTmzenNYmJdGLFCvrz5EmZskZlMgqk0KEqr6lrbC2IlDfSzIDu5XPnZMS7Z/Jk+tHDg4a8956MemNFxOIqc765OScIw2o6GqllpJiNGk06/rpPmSMurOloAGxcm9Z0YOOGXK9RuRmZv3WjRsqGOvmZtXIGCKOpVeXKlWR/jdCwIFljdeToIZo8ZbyEcDe3zqmmnCRueBcHYk3TgoXz5BonLDjGmiesfWIIZ2+AaHn/fpRY4hWLDx5+xjq75cnJCrB0bq/aVSAcdl8GiKtVkyC2e2papqD3yorMfmJkWZgArDU+Hxiw9Xj6aeolPm+plSrJfXmXhIbSzrFj6eSaNbJSGZslAKZokYkiL6xFxr9/iZ/xO1RhXzp7VkL8wq5ddHTJEplmBnRH1alDyaVKUc9ixeQctcwo3Oe6Ua+ec4Nwds06jBi3KayFWfj8IVDYOHGiLLiy+C7m1eK7e3jrVpokgIglTNrHc5TtDOEBOhzL1einUV0EJ4Awml2h6ZX51Am5p7AszAr0jTLlpIBAXwnhfft304oVS2V5dWCQH33z7Zf01lulbIFwal5H8npyZggf2raVRjRokG3rNjTfGN2kSa47k7gMhDMsQVy1Kq0fM8ZuIFbb4a0aPFhJQRdiAOsZkWm0+LxgDhnVyYhYUWWdUqECDf/kE5rYrBnN+uEHObc8u1MnmtSyJU0QvxvfuDENrVFDwhbpbqzrjReRNvoAYwrBlVPNRpwThAFgRLSY18WSI8wN7zQpGzXkZByDpUrYZQmNPgDiwgZhXLMwdYbtVe3x/YVlNDxieL4utbQXhAWrzIJZg3U4lqufFgPpjz76kHx9PSk8IoSS+/WWfaMHDU6REI6KjRAfhRwUGOR7Cweimmv9hjWUkBAry6w7d/mO3n77bVsgPOqeHboHOTOEUUmY016aiDxSKleW5f7a22a1q0EYBoix+cT60aNtBnEmgAcNkvsGFzUA52R8trB7k5zmEBEGpjpgDPDwO7gwRrhGnRuEtXPC2vnf7KzOCaPTVmGEcKwAx4LoaLuu/8f3eO/qVdRHBG/ZXRPtbTtDeJQOx3I1lvLWrl1L9teIiAyV8MVqo95JCRLCWApsykk+vp6/4UBUcu3YuU1WdqHM2t2jK70jLogPiAuASeeBDXjmHTtUgDozhPehn3GJEha3V43dRfqJqA5zLtrbZrUrQhgGiAcIEK8bPUr5MlsB4n8AnErJYtDHAGbnxSqEU0yWEEYaGWnlX8Tvz5mUXZPQivJULsYxOBaNOjA/rN3AARtAZAfhXcJppn8grD1fZzGiVUwpyeVIOt9La42AY+C77+ZbMaW9IHz79u1TYJYOx3I1VhE1aFhPLu2NigqTq4wAYaSmwdbg4EBPU07q7tZlAQ6cPmOK3M5Q2VM4YzvDihXpETHiNuk8sAGvvIWqTxvl1BBeu0Yeq729akAYqdUDGwonhGGkPAdUrqQsX8ojiAHgo3t206rUgQxgtlVWITxAGGDUzgkDxAAnjIg2L8ZtsgJYhTB2WVogHmuJMIq31L9hDnmL8GDx+zjhCJ3zdRajK+DORQsNrd7Iiw9t2UxDa36ab/uk2wvCN2/ePAVm6XAsRyNTXEIEYs1bNMmyjeFkudrI06u73EHJza3zB6acFBDgI1tXgt7qJg5hGZs4vPdedXriiScsHtig91/Hnqg2iiHs/JYgrlRRLssyCmIVwCtSBsiUPgOYbY0B4WjhZJOyTzCqoLNC095W1x4vNSnQP3ufEm1jGdOfwojG+5mUgYFTQ/jll+WmKLZWRWuN1SBptWvn21Ile0H42rVrpwWzDuhwLEcDwm+88Qa179BWbt6Axlc/zp9DJ08el1Gwl7fbXVNuQv9oLFFKQf9oQe/+/ftm9o+uWfMTevbZZy0e2KAvXcEm4zaqyEB4lnO2rTRqgLh/xYpy44tj+3IGsQTwbgHgAf0ZwGybDAhHCfcWniiMKDVrr2dHGF20torHmmVSUuA7xc97hZGeHmJSUtE4J2edD4aRjkZhpV3T0eJ7jesmljFGPOBa6ejLly+fAbN0OJajAWG0rPzu+29kQXNcjxhauWoZ7d2r9I0OCPTJHcKRkaEBODg6JlzmsUeMHJbZurJBg3o2dc06deqU9rnmWQUCYYwSly/LdZRoNwgfPUIbJ06QvVu19+FKliCuUEE22cBaXz0QKwDeRcv79aO+pUvn29wRu/Aac68AHwCIRhuISJFORtSKdLS9Dcj/fJ8SDU8QHik8zKSkxBNMSmTuzFEwjI0asDUhUtKHt2+XewbbaswHr0wdqGT07sufQkF7QTg9Pf2Cll9GrHbLQiAbFIyWlbG0ddsmCWJw1c/f+y9TbnL3dv9EHHxPhM2yrHra9MkUg65Z/t7UsmUzKlmypKS9SecEcvPChQu1zzXPKggI93juOVkodOLQQQuIZLW9IAxgLYiOotinXac/cnaOECBGkw0029CCOBPAyX2pz1tvMYDZdrGaku4ljKIozNUeF9esX+9TlighRW1Po1gLKemj9ykFWkg/A76xJiUCBoCdOQqGw8W5YxlbSrWqsmHH5G+/pckdO1rtSd98TSMa1JeFqvnZCMZeEJ47d26eo2AYjToqVaqU0S0rQNZUHTy0n2bMnCoh3N2962qTEYk7kGuFjx8/QosWL6DYuGiZ3/766w5yn0RrIZyYmKh9rnlWQUAYyz6w/ne3iIaRKtZCMxPCa1YLCGe/0TzK9LHkBkuZtLdVjYXyaPk2+KOP8q2YwdFGehnNNlBwhXWIqH5Gs3e8Dkt795K9ahnAbHsa4IsRTjQpy5VGC08Wni48Q3imnYz7miI83qQAH3PRKMKKNjn3kiRdi+s6vocAGRpsRD/2mPUWt5f9x/NpaZJqe0E4ISHhtpZfRvzUU0/RBx/WyGjUESxrqk6fOUkjRw2TEA4K8hMfCwMSwL2NG2zZspE2bFwrQ2qsFcauEFim9F8xsjHpnEBubtu2Ld29e1f7fPOkgoAwRonYtWd8+/a0bc5sOrhxg6z6O7RlS6YBl02TJ+U4j4v76f3667R11kyL2+NnLF3aMn0ajW7WVI5K8yuFkx/GlxujYmyNNifAn2b7+crmAD2Lv5SvI2V20TDgBxBHmxQo9jQp88R9MtzXTsZ9JZmUqBsp8BiTC8K3ENkeEAaj2rVrZ8EvI8ZOg9hxUF0jPHjwQPrpp3OUlNTT2BphVZ5ebodxgzlzZ9D+A3tFSB0vQ2ukqBFqI+Q26ZxAbkbV2LVr17TPOU8qCAjDAChGd73EY2Pd29BatWhY7dqZHlqzJvV9+23ZSEF726xGlSDSs/++/Wc09NNPKaVqVQkqzM/g8bS3dXXL1oyPPCK3OcMOK1GPuOZOPWzXMWAIKCItDEc70HgcNfXMEC4Y2wPCYBQyvlp+5WZkiDFd26JFU1lDhbqqyZPHy+VJ+Fkw9e+AAN8OJiMKCPCJAYQRQp8+Y86yTMmDPv74I9mWy6RzErkZJ3ns2DHtc86TCgrCqgENRHVIFQOomUZLQCMRXQ63L8qdjthsR1oFo6OtfVx2/toeED5+/LhVU664DVo7o8Uzpm+x78KixfPp+IkjmcuToqNr3m8yoqjYiFDcCJsRo0J6WNpgWSGNELtRowZUvHhxixMw6kGDBmmfc55U0BBms9lstnPaHhAePHiwBbeMGN0klX2Eu8ouk+Dn5s0b5JSusjzJ95bJqDx9PT9FZw90+Dh77jTNmj2dYuMi5W5KWIRsy25KzZo1Q0sw7fM2LIYwm81ms/VsK4TRWhmM0nLLiNHICg2tvH2ULQyTkhLp6NFDNG36pIx9hLutNuVF/gHed3DD3Xt20Nq1qyg+QSnO6ta9s03FWTjR3377TfvcDYshzGaz2Ww92wrh33//nZ588kkLbhlxsWLFqF79OplFWbLh1U9nxb/JEsKRkaERprzI28f9DG4478fZdODAXrkxcWiY0kMaeyViz0STzokY8fjx47XP3bAYwmw2m83Ws60QnjBhggWvjBiZ4ddff53atm1F/gE+FBMbQVOmTpRFWcggoygrMMS/kykvCgz2jQWEBw9JoXPnz1BKSrKkOyhfv35dSX2TzskYcZMmTaxOSTOE2Ww2m61nWyAMJjVt2tSCV0aMzHDZsu/ITDHaVcbHK+0qDxzcK6Ng9N5o3br1g6a8KDQ0oKssqRYUPy8gPHXqJEH3SLkzRAcb54UfeughOnnypPY1MCSGMJvNZrP1bAuEzYItDz/8sAWvjBjTrO/XeF9mipExRuYYAMbmDYCwj68n2mDmTSil9vX1lPPC+/bvpjVrV1JCQmzm3sLly5enBx980OJkjDoqKgobJ2tfh1zFEGaz2Wy2nq2FMFgUGRlpwSmjxoqhxo0byvXAWEmUmtpftn1OHdQ/Yw9h/1iTNfL2djuCO8DewseOH6Y+fRIz1wvbuKOSPOk///xT+1rkKoYwm81ms/VsLYQvXrxIL7/8sgWnjBgZ4dKlS1PH777O3L5w9pwZdPbcKclKZJSDQvy/NFmj8MjQMOwGkdirR8aOSmmELiCgfZs2Lek1AUNrU9KwNWuGLwoI9/3f/yxefDabzWYXbQPCM775hq7mEcJgkZZPRv3YY49RtWpVyctb2bQhsVc8bdm6iTZtXq/unHTbZK18fNyruHt0vYv0MzZzWLZ8ceZSJcC5QgXbUtJoY3np0iXt65GjLp05QwMrVTLWnYrNZrPZRcYxAojzunena3lYBnv58mWr2lSqRla3UeMGGUuTQqj/gL505qyZRo0erhRlebvNMdkiQfHfcEdz582kI0cOUp++iRQeEUy+vp5U+/PP6Pnnn7c4qbw4JSUlT3PDl8+fp1G1axeaHYbYbDabbR/HPfkkLQkNpesGpzrBnoEDB1pwyahRFf32229Tp87fZaaiZ86aRufOn85cmhQeHuRlskVhYUGRgDB2UsLC4zFjR8oq6YAAH/rq6/ZUqlQp+s9//mNxckaNPPyvv/6qfW2yFdIM07/8UqYdtG8Am81ms4uuezzzDK1PTqabIro1IrDH2rlgGPsofPDhB+Qju2QFyv2Dd+zcShs2rpFRsIiObxvuF52dvLy8ynl6db+rVkmv37CGevaMo+AQZVeld999V5Znm3RO0Kj9/f0Nb3GIF3d9nz7yxda+AWw2m80uuu5VvDgdWbCA7ty8qUWHhcCcgIAACx4ZNeqhsFS3TduWsk4qKiqchgxNlUt6Bw1OUZYm+XlONdlD3j6eO3CHY8eNkhsUD8jSuKN5i6Y2F2hhbda2bdu0r5Gu7t6+TeZ162SFNG+Dx2az2WwY+5KnVq5Mvx87ZmiKc/v27VavC4YfffRRqiwez8Ozm6yT6hEfS0uXLaL09KPyd9h/ISjUv5nJHgqLCPZEbhu0P336JM1fMJfiekRTYJCvLNCqVKmi1XsMq37//feN7TUsXtzL587RxGbNKEq8gNo3gs1ms9lFz7FPPEHzvbzo2u+/a6lhIbAGzNFyyKjVvYObNGkklyGhTio5OYnSTx6jGTOnZKSivf4w2UvinO8TUe813DE6gBw7dvhfeww3/qKhPCFbomE4NjaW7t27p329LHT7+nXaN3Uq9RaPydEwm81mF20jCh5QtqzMkt69dUuLjH8JjImLi7PgT16MoLNixQrqFoVZ1gaflsuUurt1odDQ4BCTPRUc6t8DDxgZFSp7Sc+YOVU+ME6gW/dOVKFCBXrkkUcsTjYvRjvLtWvXal8zCyHVcPnsWbkeLObxxymMQcxms9lF0gjE4p97jpaFhSlLk3JJRa8ToAZrtPwxagSbJUqUoIaN6ssgFMFoUp9EOnT4gExHZxRk3fz6668fNdlTHh7fFxcPeAsPsGLlUjp4aJ98YDUaxjope0TDWDt87tw57etmIYx2Tq1fT2kffkiR4gXVvjFsNpvNLuQWvIl59FGa0LQp/XLwIN3LpcD3/PnzkjFa7uTFiIIriCgYmzVgGVJMbBRNmz5ZFmTFxEQo0XGA1xCTI+Tn7zMCDxAbFyn7YuKB1WgYv69YsaLsHmLSOfG8uF69enT9+nXt6/dvidHOratX6cDs2TRQROGRDzxg+Qax2Ww2u3BaADjqkUco7aOPyLx2ba4V0WBK/fr1LXiTFyPIfPXVV+UUbNYo+ODBfbRq9XJ1x6TbnTw6vW5yhNzc3N7EA6jR8GERfqOfdHhEiDyhps2+sGl3paz28PDIdbtDpKVvXLxIuydMoMFVqlA0CrU4Nc1ms9mF2khBYypyZK1adHTxYrqFot4c0tBgiaenpwVn8mosx61cpbIsSFbngmfMmKpEwbFKFOzn7z3G5Ej5+/uMwgNFRYfJriCYjO6RUSmNsux3360mFzCbdJ5AXp2YmJjr+mEJ4kuX6NiSJTRGRNCYG4i4/36LN43NZrPZLm4BX2Q9E196iaa2a0dnNm+m27kAGAzp1auXBV/yajSlQnvLVq2aZ1REh1Dfvr3pyNGDsqWzGgUjWDU5UuIBSqhzwwsWzqMT6UepX/8+ct2wn58Xte/QVu4ocb8AoUnnieTFeNKDBw/OvWJavAF3btygnw8coJWxsZRaqZJs5hH10ENcPc1ms9ku7nDBAixJTXj+eVkHtCklhf5ITzdUCT1kyBCbujqqRovmDz6oQZ5e3TPWBcfI5bpnzp6SS5SUuWCfYab8kHigZDxgYJAfmU+l07JliylBdtHyl120atb6VDa1tkda+gEx6hk+fHjuIBbCpPz1P/6gc9u30+r4eBrboAH1feMN6vXyy3Lk1LNYMTabzWa7iHHd7vXKK9RPBHYTW7SgjQMGyAIsdE78OxcmgBlgBxii5UpejWrqsmXfoW87fp3RHSuMBqb2F/w7QbNmT1eiYF/3G506dSpmyg916dLl/0Q0fBkPPGHiGDorRgLD0oZQdEwE+Qf4UJeuP8girccff9ziyVhjRNWpqam5pqZV3btzR6ao0dTj5/376eSaNbKV2f4ZM2jf9OlsNpvNdnLjen1k0SK59vfXw4fpyoULdPPKFfrbAAfACmwOhA0WtDzJqxFMoitkg4b1kG6WPaJ7Jvag9evX0LHjh2XnSMHCvwMDfSNM+amgoIAf0JYL88B79u6knTu3Ue+knplLllq1bkFvvfWWXdLSMNIJYWFhdCuX9INWGC2h1SUq59Dkg81ms9muYVy3cf3OLerNKjAiPDzcLilo+LnnnqPq1d8lbOmLYiwsSRo3brRcITRk6EClR7Sv+xnx0PeZ8lv+Ad6bcAIYFaCBx5w5M2WePCgYaWl3qlWrplzUbI+0tOoOHTrI/R9ZLBaLxcoqsOHLL7+04Ia1xprgcuXKUseMNDRqn5L7JcliLGxmhCppD49ud8PCghuZCkIhIf7vqkuW5v04i06dSpe7SCAtnbGXIlWrVpWeeeYZiydni6tUqUJHjhzRvv4sFovFKqICE6pWrWrBC2uNLC6qobH0FtldNQ29ctUyyTr8DMYFBfnNMRWk/P09+yIfjlz5/v17aPfuHXLxsqyWFiOHbzt+JUcStm7woPWzzz5LEydONDxPzGKxWKzCJzBg0qRJkglaTlhrtTVlzZqfymJjFB1j06KJE8fJNcEjRgzNWJLkduX7778vbipo+fp77cUJ9YiPprPnTtHiJQvkiCE0LEiOIFq2bCaXLT344IMWT9YW44X6+uuv6eeff9a+LywWi8Uq5MK1/5tvvrHrlCfuq1ixYnIeGBsxIKuL7G7qoAFySa7aGcvDs9vdkJDA1iZnUGCgTxV17fD4CaPl/PDESePk/HBwSICsKKvfoK7spmWvQq2sfumll2RUfOfOHe17xGKxWKxCJlzrEf3i2q/lga1Gs6lKlSrRD506kn+AN0VGhcldA3fu2kaHD++Xv8NccGCw30yTM8nX19vD3aPrPZwcRgonTx6nYWmDZVsvFGphgTNCe/TdtFfVmtafffYZbdu2zdCGziwWi8VyLeHavn37dqpdu7bF9d8exrLacuXK0dffdJDTqeiK1at3Ai1fsUQ25YhPiFHT0GY3N7fHTM6m4GC/2YAw1k3t2btLNrUekJIsQ3m0tUSJ94cffkCvvPKKw0CMSLtNmza0f/9+hjGLxWIVAuFajmt627ZtHZJNhR999FF65523qW271hmFWEGyCRWacWA50oiRyjwwsr6RkSHvmpxRrVu3fkQAeB9OFCOIE+nHxKhlC/UVoTw6jCCMx/ZPNWq8Ty+//LLDQAyjS0oLdFjZuNFQty0Wi8ViOZdw7cY1vGXLlnbpfJWdAeAyZcrIvtCYPsU0KqZTJ0wcK+uc5s6bJQHs7tHtrp+fT0eTM8vf3/MdL2832U0rsVcPOnPGTGvXrZaNPJSKaW/q2q0Tvf/++w6NiFVjkv29996jtLQ0unjxovY9ZrFYLJaT6dKlS/KaXb16dbsWXekZ2+8CwC1bqgBWKqFHjkqTS5FWr14hs7hYBeTn7zXK5AqKiQn/QC3UShmYLAu1VqxYKnPriJABYkTEH3xYQ84R26O1mBHjxW7VqhVNmzaNgcxisVhOJFyTcW3GNdoe+9Ib8ZNPPknvvPMOtW7TQgIY9UuoY0pLGyIzuVu2bpRLlDDNGhIWsMDkSgoK9W8mTl428hiWNkjm1JcuXSRBHBEZkllh9umnH8uqaUemGvSMhtyffvopxcXFiQHCCrpy5Yr2M8FisVgsBwnX3JUrV8prMK7FuCZrr9OOMqJrNJEqX748te/QJjMCBoCHDhtEx08coR07t8riLLl3cJDvRk/PBg+ZXE3e3u5enl7d7wDEI0YOkyBeLiJipKYjo0LlZg/oPV237ueyz7S9G3rkxZjsx1pmjMLQd3TkyJG0fPly2rNnD509e1a2Q7t58yYXe7FYLFYOwjUS10pcM3HtxDUU11JcU3FtxTXWXtvdWmNMgWJpU5Uqlembb7+URVghoQEyBZ02fKgA8FHatXuHDBRlIZaf5343t44vmlxVXj4eke4eXe8qEfFgmZpes3aVXHcVFR0ut0NEn+lmzZvItADWaDl6DoDNZrPZRc/IuGIKFDVJnbt8T75+XhQWFkTx8TE0eswISj95nLbv2JIJYBEhp7u7//CqydXl5eUWje4ieFKpqf3lequt2zZRv/59KCY2UqYBkA7A2iz0hUbldH7NE7PZbDa78BvzzMi41qlTWxZaoTYpPCKYevaMo0mTJ9DpM2bauHGdujUh1gIfcXNze9NUWOTt7ebv5e0mU9O9esfLZh77D+ylIUNSZRogJDSQfHw95V7EmCcuVaqULBs36byYbDabzWYbMdLPL774IlWsWEFusYtCK7SijIwMlTVKP86fIzO0y5cvlk2lMAcsWLT3h8IQAWsVGOjX2sfX4yZAjDnh/Qf2yAq0ceNHU0LPWLkXMUYneCGaN28iJ83x4nFUzGaz2ey8GoEcdkJCk6hOnTuK6NZDVkCjgVRycm9au24Vnb9wlqZNnyzhCwcF+a364YcfnjEVVkVGRn7o7eP+F0CMyjO8COfOn6YFC+bJgi3MEwcF+8kX64dO39LHH38oo+InnniC54rZbDabnatR9FW8eHGqUKG8DOg8PbvLAA9dsHr0iJEV0MjEYh3wwNT+Mv0sAPx3SFjgzNatW//XVNgVEBBQTkTER9WRx+Qp4yWIMSGOnSriekTJF0uNilu3biEr2TCh/sgjj1i84Gw2m81mI/WMLQ3LlClNtWrVpM5dvpMBHQqAsRFDYq94mjlrGp06fZJ279kpM7IAMKZKfX09k0xFSV26dHkyODRwDkYfanetQ4f300nzcZkawIuFFw1RMUrIcUyjRvWpfPlysnArP9eUsdlsNtt5jSzpU089RaVKvSnbIn/1dXs594sqZwR0qDtCxLtp8waZfsY8MP4ulyD5eFwNDQ1saCqqEi9AuLDsroWqtMWL59MF8SKhU8mgwSmyfycq2DCRjgpqjGzq1P2cypYtK9MNDGM2m80umlbh+8Ybb9C71d+lNm1bkodnd8kSrLqJjg6XxVczZk4VAd4JOnLkICX3S1LTz+Tn573d09/zHVNRV3h4eDUfH/fjeFHw4vRN7iWjYpSML1g4T64pxlImjGjQ4APrirHXI2BcrlxZ2YMajT54zpjNZrMLv1Gsi7Qziq6qC/ii7SQaP2GFDbKnSDPHJ8TS8BFDZeMNRL9gibo2T5qkAAAKZElEQVT8COlnAeBUIrrPxFLk6en5kL+/T5q6jAmpAqSlsab4yNGDNGXqRLm0CVVtoaGBcr4Yx3Tp+j01bFifKlWqSK+99pps9sHV1Gw2m134jJogdLsqXaY0ffTRh9S+fZtM+GLeFy2RkT1F6nntWhT9nqGdu7bJ1Tdq9CsCPnNkZOjHJpa+xItTw9fX45AaFSMVvWLlUpmi3rt3F42fMEbOF0sYhwXKnD/S1Dgea8BQiv7222XkvDEqqh29SxObzWazHWdMOT7//PNyjwEEW/Xq16Xvvv+GPL3cZGSbFb7Yv37ZssUyi3r02GFKGz5E3QEJnLjtF+CdEh0dfb+JlbsCA32CfHw8ruHFgzGS2bhpHV346Szt3r1D7vOIXD/S1GHhQRQY6CtHQ17ijUGquvEXjei996oLIL9NJUqUkBEy3kxOWbPZbLbzGplMdLcqVqyYnOutUKEC1fqsJrVr11oCFUGXv7+3nPNF8W58fAylpPSjpcsWySVHKO6dNHmcPA7swG38A3xWB4QFVDCx8iY3N7cX/QN9RokXU6ao4d5JCbRp83oB43Oy2Qcm3DFnHNcjRs4DYDNmRMeoqMbyJgC5WbMv6JNPPpLNP7DmGHPImE/APDKnrtlsNrtgjKDowQcflFsKojETphQROFWrVo3q1atD7Tu0JTf3rnLqUYl6fWXQFRMTST0Te8j1vqvXrKAzZ82yCyOmLdV5X6XzlcepoNCgFiaWbfIN9i0bEOQzQ7wR97JGxqtWL5c5/xPpR+UoaPCQgfKNQXSMNDY6o6CQC0BW94REf+omTRrTJ59+LNce4w3H5D6iZYy8EDGjywo+GJzKZrPZbNuN5hkPP/ywnCJ87rnn5MqW119/Xe6mVK5cOXr//ffkbnpt2rSkTp2/kwEUIlk/Py8JXrQ1RtSLlHNSn0SaMmWi7CuBgqvDRw7IrovqUtaMtpO/BoX4u5lY9lVgWGClgIB/wxijIiy+BojVVPWcOTPl3EBCzzgJ5IjIULlVFVLWeFPx5mI+ARP6KOzqIEZbTUW0XKdubTmnjE0ksAQKgEbDb3xYAGkUBLzwwgsyikZZ/OOPPy6BjQ8XoI0PGiJrTnmz2ezCaAQmuMZhNyJM7yGbiNQx4IoABoBFRIuaHDRXQjq5TJky8lqKtHL16tWpZq1PqWGj+tSqdXPq2PErCU0sK0KghClFZDJR4Yw2xuigiDW+vXv3lLscrV69gtJPHpPXemREUYCF67gKXxEF/xoaGuAVHR39HxPLcfL393zH399rlBj53FZhjDciZWCyjI6RmsDexbv37JBl6Zicx/wxRlFIYwDKKOrCG403HNtZqdEyRmC4L6RA0GsUi77Rsatp08bUoEE9qv35Z/Tpp5/QBx/WkOvSKotoukLFCpnQVo0PHkZ5gDhS4Ii2UVgAoMNIu7DZbLazWL024ToFeOKahWsXrmEqSFVj21lM71WqVImqVqtK74lI9uOPP5JdqhDRNm7ckFq0aErt2remjt99Rd26dZLXVVxfcZ1FIATgonWxEukGyOwloBsbFyUCqB5yl73JUybQ2nWrZZD108/n6MDBvTLljOBLvfZjzlfc17GQkKBuWlawHCw02Q4LCwoWEL2gVsDBAOrgISm0bPliMptPiDfvvJys37xlA/344xwaNXo49enTS0bKGGXFxETIHTUw8kLaIzjYX34wsgIaxgcHHyAV1qrx4XL3ALi7UNduP8iGIt//8K0c5WHT6K8FyL/8qp2MuFFc0LZdK5l2gVtnGNV+Q4em0ujRwzKcluFhFBUVlnkcm81m29vyetS2lbw+YdnPl1+2kwEIpu++FdcwXJ9QX4PMYbfuCvhw3VPBqsJVAtbbPQOyHnJ+FqBFsyVUMaNmB/0ewiNCFODGRsngCCteENUCsFgNg3ofBFKo/dm1e7v8fWxcpLzGqtd5bx+Pu77+njMCQ3zra9nAKgAJcNYT0fEI8YbfyPpG4cMSnxBDEyeNpQ0b18rqOUAZvaoPHtwn949EtDxx0jgaIiCI+QbMK8eLDwZGZAA0Piwo+kIZPECNDxFGbiHiAwVgI6IGtAMChQN8JLxhrGVW7CXT4PhA6hkjQjzG6jVLafPmtRYeN36kPIbNZrPtae21SDWuV/K6lXkNU65psAJUXwlVXPsAVlwPkV1EhArAItuIOdzomHA5JYhgJyEhVsK2/4C+MhDCNCKAu3PnNkpPPyYjXSxFRbS7YOFcGUjhsdRrOSwg/7e3r8fB8PDggEK905GrKzg4oIMA8mDxIbqSNUJW5w0A02Fpg2jW7Oly2dOJE5hPPifhjNHX8eNHZCobf0M0PW/ebJo6dRKNGTuShg0bJD9EvXsnyA8UgI2IGt1ZMKJDlTY+cBLgsXCkYgFzGOubYUA3q/sI+G/cuJp27Nhk4ekzJlkcz2az2fa0em2C1etV5vVLXMtwTcO1Ddc5GNc8XPtwDewlroVYpYINeEaOHEYTJ46TkF20aD6tWbOStm3fLIOe06dPStjiWnv23Gnau2+XLKrFktM+fRNJLa7Kah8fj7+9fNy3RkSEhHp4eLyuvd6znFyenp4VIyNDwzy9u88To6pb6iS+1njzsXsTKqyxxgwNvtetXy0/JEhloxAAHxzVgPaZM2Y5gjt8+ADt27dbdmbBhw0FA7gtiggw0sPi8SVLF9KixfNl1D1/wVya9+NsCXfVCxf9SLt3bxX3s8PC69evpNlzZrDZbLZdPGfuTJo7b9a/rkGYqsOWsrgWLV6yQF63lq9YQitXLqM1a1fKTCJ6+u/YsVXuQHRAQPXYscNyyg+rVFS4Kj4nIKt0O8Q1EcHMzFlTZQSMtsSInLUBkhokiUj8b3E9PhsU5NcrKCjgB3RT1F7XWS4sMZIqHhYW4hsSFhDj4dFtk3+A9211UXdOVhZ8e4sRYxgl9ekpR3wjRg6VpfGYr8AHe4GAK2CL4jB8YLdu2yzBDJBjjgP9sI8eO0jHjh+WhQaqUe138iRgvlccg+P+7WPHDtCp0+lsNpttNyO4SM9yHTp+4oi4Ph2SS34OHtpH+/bvlhnBHTu3ynoa7P0OKCOYQBAxY8YUOY2HqmWs10WGEBEyAIu5Ye01VOuMa6oAruevnt5uw6KiwiJ9A3y/0F6zWUVANWvWvN/T061uRFRYcERUSLSHV7cBImI+7Ofvff3/B+w9/4Mdi4meiKiJq6vLwMPR584dx8CLl8zDUD+KR/EoHsWDGYNGHUEnWwHL0D/5BTlvsrLStpWUFTQ0NtbUlpQXpSdmJcqil8WjYBTgBBkZcdJ5hdlhlZXlRXXARATE9TU1FQ1FJXkNWVmp3RmZqauAeD+wsj4PTHy38vIznwAr79cFhTnvC4tyPwHx16LivG/Aiv0HqPeNjIGJ9Hd9Y/WfTZvX/NuxcxMGnjV76t/S0sLfo3gUj+JRTC1cAsToZVFxScHP4pK874VFeV8LC3M/A3upH4EV6Nu8/OwXuXmZ94G916vACvZ4ZlbK9oys1FnADktTRUVJA7AXW98IKhPrqiqLywozMnIyrENDQ9nQy9FRgAkAZZ4IlrYHIw8AAAAASUVORK5CYII=;" vertex="1" parent="1">
          <mxGeometry x="222.26" y="130" width="217.74" height="440" as="geometry" />
        </mxCell>
        <mxCell id="AOr8H0upZgindr5D6W4T-2" value="" style="shape=curlyBracket;whiteSpace=wrap;html=1;rounded=1;flipH=1;labelPosition=right;verticalLabelPosition=middle;align=left;verticalAlign=middle;fillColor=#ffe6cc;strokeColor=#FF8000;" vertex="1" parent="1">
          <mxGeometry x="440" y="215" width="40" height="300" as="geometry" />
        </mxCell>
        <mxCell id="AOr8H0upZgindr5D6W4T-3" value="&lt;font style=&quot;font-size: 15px;&quot; color=&quot;#ff8000&quot;&gt;&lt;b&gt;Statistics&lt;/b&gt;&lt;/font&gt;" style="text;html=1;align=center;verticalAlign=middle;whiteSpace=wrap;rounded=0;" vertex="1" parent="1">
          <mxGeometry x="490" y="350" width="60" height="30" as="geometry" />
        </mxCell>
        <mxCell id="AOr8H0upZgindr5D6W4T-5" value="" style="endArrow=classic;html=1;rounded=0;fillColor=#ffe6cc;strokeColor=#FF8000;" edge="1" parent="1">
          <mxGeometry width="50" height="50" relative="1" as="geometry">
            <mxPoint x="210" y="520" as="sourcePoint" />
            <mxPoint x="120" y="370" as="targetPoint" />
          </mxGeometry>
        </mxCell>
        <mxCell id="AOr8H0upZgindr5D6W4T-6" value="" style="endArrow=classic;html=1;rounded=0;fillColor=#ffe6cc;strokeColor=#FF8000;" edge="1" parent="1">
          <mxGeometry width="50" height="50" relative="1" as="geometry">
            <mxPoint x="210" y="170" as="sourcePoint" />
            <mxPoint x="120" y="310" as="targetPoint" />
          </mxGeometry>
        </mxCell>
        <mxCell id="AOr8H0upZgindr5D6W4T-7" value="&lt;font color=&quot;#ff8000&quot; style=&quot;font-size: 13px;&quot;&gt;&lt;b&gt;Header &amp;amp; Footer&lt;/b&gt;&lt;/font&gt;" style="text;html=1;align=center;verticalAlign=middle;whiteSpace=wrap;rounded=0;" vertex="1" parent="1">
          <mxGeometry x="80" y="330" width="60" height="30" as="geometry" />
        </mxCell>
      </root>
    </mxGraphModel>
  </diagram>
</mxfile>
